<?xml version="1.0" encoding="UTF-8"?>
<svg id="Capa_1" xmlns="http://www.w3.org/2000/svg" version="1.1" viewBox="0 0 987.2 313.3">
  <!-- Generator: Adobe Illustrator 29.0.0, SVG Export Plug-In . SVG Version: 2.1.0 Build 186)  -->
  <defs>
    <style>
      .st0 {
        fill: #c6b27e;
      }

      .st1 {
        fill: #fff;
      }

      .st2 {
        fill: #102b42;
      }
    </style>
  </defs>
  <g>
    <rect class="st2" x="330.4" y="216" width="6.8" height="59.9"/>
    <rect class="st2" x="347" y="231.1" width="6.5" height="44.8"/>
    <path class="st2" d="M387.1,258.9c0,7-3.9,11.2-10.5,11.2s-9.1-3.4-9.1-9.8v-20.1h-6.5v20.6c0,9.7,5.7,15.5,15.2,15.5s8.4-1.6,11.1-4.5v4.1h6.4v-35.7h-6.5v18.7h0Z"/>
    <path class="st2" d="M445.7,240c-5.6,0-10.4,2.2-13.2,6.1-2.4-4-6.6-6.1-12.1-6.1s-8.6,1.6-11.4,4.4v-4.2h-6.4v35.7h6.5v-18.7c0-7,3.9-11.2,10.3-11.2s8.8,3.4,8.8,9.8v20.1h6.5v-18.7c0-7,3.9-11.2,10.3-11.2s8.7,3.4,8.7,9.8v20.1h6.5v-20.6c0-9.8-5.3-15.4-14.6-15.4h0Z"/>
    <path class="st2" d="M472.1,226.4c-2.4,0-4.3,1.9-4.3,4.2s1.9,4.3,4.3,4.3,4.3-1.9,4.3-4.3-1.9-4.1-4.3-4.1h0Z"/>
    <rect class="st2" x="468.8" y="240.2" width="6.5" height="35.7"/>
    <path class="st2" d="M503.8,240c-4.9,0-9,1.6-11.8,4.5v-4.3h-6.4v35.7h6.5v-18.7c0-7,4-11.2,10.8-11.2s9.1,3.4,9.1,9.8v20.1h6.6v-20.6c0-9.7-5.5-15.4-14.9-15.4h0Z"/>
    <path class="st2" d="M541.3,240c-5.5,0-10.8,1.8-14.4,4.8l-.7.6,3.1,5.1.9-.8c2.6-2.3,6.6-3.7,10.6-3.7,5.7,0,8.6,2.7,8.6,7.9v1.1h-9.7c-12.2,0-14,6.6-14,10.6,0,6.6,5.2,10.8,13.3,10.8s8.1-1.3,10.6-3.7v3.4h6.4v-21.9c0-9.1-5.2-14.1-14.7-14.1h0ZM549.4,260.3v4.3c-1.7,4-5,6.1-9.7,6.1s-7.5-2-7.5-5.4.8-5,7.7-5h9.6Z"/>
    <path class="st2" d="M598.7,240c-10.1,0-17.5,7.6-17.5,18.1s7.7,18.2,18.7,18.2,10.6-2.1,13.8-5.9l.5-.6-3.9-4.5-.8.9c-2.3,2.7-5.6,4.1-9.6,4.1-6.5,0-11.2-3.9-12.2-9.7h28.1v-1c0-.2,0-.5,0-.7,0-.2,0-.5,0-.7,0-10.7-7.1-18.1-17.4-18.1h0ZM598.7,245.9c5.7,0,9.9,3.7,10.9,9.2h-21.7c.9-5.6,5.2-9.2,10.8-9.2Z"/>
    <rect class="st2" x="621.6" y="233" width="6.5" height="42.9"/>
    <path class="st2" d="M669.3,231.9c1.7,0,3.3.5,4.4,1.4l1,.9,2.4-5.3-.6-.5c-1.8-1.5-4.5-2.4-7.4-2.4-6.9,0-11.2,4.2-11.2,11v3.2h-6v5.9h6v29.9h6.5v-29.9h10.3v-5.9h-10.4v-3c0-3.6,1.6-5.4,5-5.4h0Z"/>
    <path class="st2" d="M705.5,258.9c0,7-3.9,11.2-10.5,11.2s-9.1-3.4-9.1-9.8v-20.1h-6.5v20.6c0,9.7,5.7,15.5,15.2,15.5s8.4-1.6,11.1-4.5v4.1h6.4v-35.7h-6.5v18.7h0Z"/>
    <path class="st2" d="M740.1,268.9c-1,.9-2.6,1.5-4.3,1.5-3.2,0-4.8-1.7-4.8-5.2v-19.1h10.3v-5.9h-10.3v-7.4h-6.5v7.4h-6v5.9h6v19.4c0,6.8,4.1,10.8,10.9,10.8s5.9-1,7.8-2.6l.6-.5-2.5-5.1-1,.9h0Z"/>
    <path class="st2" d="M772.4,258.9c0,7-3.9,11.2-10.5,11.2s-9.1-3.4-9.1-9.8v-20.1h-6.5v20.6c0,9.7,5.7,15.5,15.2,15.5s8.4-1.6,11.1-4.5v4.1h6.4v-35.7h-6.5v18.7h0Z"/>
    <path class="st2" d="M807,246.4v-6.4h-1c-5.1,0-9,1.5-11.6,4.5v-4.2h-6.4v35.7h6.5v-18.2c0-7.3,3.8-11.4,10.3-11.4s.3,0,.4,0c.2,0,.5,0,.7,0h1Z"/>
    <path class="st2" d="M824.1,240c-10.5,0-18.2,7.6-18.2,18.1s7.7,18.2,18.2,18.2,18.1-7.6,18.1-18.2-7.6-18.1-18.1-18.1ZM824.1,270.2c-6.8,0-11.6-5-11.6-12.1s4.8-12.1,11.6-12.1,11.5,5,11.5,12.1-4.7,12.1-11.5,12.1Z"/>
  </g>
  <g>
    <g>
      <path class="st2" d="M158,7.3C75.8,7.3,9.1,73.9,9.1,156.2s66.7,148.9,148.9,148.9,148.9-66.7,148.9-148.9S240.3,7.3,158,7.3ZM158,298c-78.3,0-141.8-63.5-141.8-141.8S79.7,14.4,158,14.4s141.8,63.5,141.8,141.8-63.5,141.8-141.8,141.8Z"/>
      <circle class="st0" cx="158" cy="156.2" r="141.8"/>
      <g>
        <g>
          <g>
            <polygon class="st2" points="124.9 218.3 131.1 218.3 128 228 124.9 218.3"/>
            <polygon class="st2" points="131.1 237.7 124.9 237.7 128 228 131.1 237.7"/>
            <polygon class="st2" points="118.3 231.3 118.3 225 128 228.1 118.3 231.3"/>
            <polygon class="st2" points="137.8 225 137.8 231.3 128 228.1 137.8 225"/>
          </g>
          <g>
            <polygon class="st2" points="152.9 217.9 159.2 217.9 156.1 227.7 152.9 217.9"/>
            <polygon class="st2" points="159.2 237.4 152.9 237.4 156.1 227.7 159.2 237.4"/>
            <polygon class="st2" points="146.4 230.9 146.4 224.7 156.1 227.8 146.4 230.9"/>
            <polygon class="st2" points="165.8 224.7 165.8 230.9 156.1 227.8 165.8 224.7"/>
          </g>
          <g>
            <polygon class="st2" points="180.8 218.4 187.1 218.4 184 228.1 180.8 218.4"/>
            <polygon class="st2" points="187.1 237.9 180.8 237.9 184 228.1 187.1 237.9"/>
            <polygon class="st2" points="174.2 231.4 174.2 225.1 184 228.3 174.2 231.4"/>
            <polygon class="st2" points="193.7 225.1 193.7 231.4 184 228.3 193.7 225.1"/>
          </g>
        </g>
        <path class="st2" d="M164,179.5c0,.1,0,.2,0,.3.1,2.4.2,4.9.4,7.1.2,1.9.4,3.6.9,5.2.7,2,1.6,3.8,2.9,5.3,1.3,1.5,2.8,2.7,4.5,3.7l17.8,12c.2.4-.1.6-.1.6h-8.5c-.7,0-.9-.3-.9-.3-1.4-.8-5.5-4.1-8.3-5.8,0,0-11.4-8.2-11.6,6.1h-8c0,0,0,0,0,0,0,0-.6-14.5-12.9-6.3l-9,5.6-1.6.9h-9.2s-.3-.9.5-1.5c0,0,13.1-6.7,15.7-8.8.6-.5,4.9-4,5.5-4.6,1.1-1.1,2.1-2.4,3-3.8.4-.7.8-1.4,1.2-2.2.4-.8.8-1.5,1.1-2.4.8-2.1,1.3-4.3,1.5-7,0-.5,0-1,.1-1.6,0-.5,0-1.3,0-1.8,0-.4,0-.9,0-1.3h0c0-2.2,0-4.3,0-6.4,0-1.1,0-2.1,0-2.9.1-2.1-2.7-3.9-2.7-3.9l-4.2-2.8s-4.7,5.8-10.6,8.4c.2.2.5.4.8.5.4.1.8.2,1.2.4.8.4,1.4,1.2,1.5,2.1,0,.2,0,.4,0,.6-.2.7-1.1,1.1-1.8,1,0,0,0,0,0,0-1.6-.8-1.4-1.9-1.6-3,0-.5-.2-1-.6-1.3-1.4.5-2.8.9-4.2.9-.7,0-1.4,0-2,0,0,.1,0,.4,0,.6.3.8,1.3.6,2.5,1.4,1.3.8,1,1.5,2,1.8.7.2,1.1,0,2,.4.3.1.7.3.9.7.3.4.4.9.3,1.5,0,.6-.3,1.3-.8,1.6-.3.2-.7.3-1,.4-.8,0-1.6-.3-2.2-.9-.5-.6-.6-1.6-.3-2.3s.1-.2.1-.3c0-.2,0-.5-.2-.7-.8-1.2-2-2.3-3.5-2.5,0,.4,0,.9,0,1.3,0,.1,0,.3.2.4.2.2.4.3.7.4.7.3,1.3.8,1.4,1.5.2.6,0,1.3-.4,1.9-.2.3-.3.4-.6.5-.2,0-.5.2-.7.2-.5,0-.9,0-1.3-.2,0,0-.8-.3-1.1-.9-.4-.8,0-1.7.2-1.8.4-.7,1-.9,1.2-1.9,0,0,0,0,0-.1,0-.9,0-1.8-.4-2.6,0-.1-.1-.2-.1-.4-.6,0-1.1,0-1.6-.1-.3.5-.8.9-1.2,1.1-.6.4-1.2.7-1.8,1,.2.8-.2,1.8-.9,2.2s-1.7.4-2.4,0c-.3-.2-.6-.6-.8-1-.2-.4-.3-.8-.2-1.2.1-.7.8-1.2,1.5-1.4.7-.1,1.4.1,2.1.4.2,0,.3.1.5.1.2,0,.3,0,.4,0,.6-.2,1.3-.4,1.8-.8.2-.1.2-.3.3-.5-.6,0-1.1-.1-1.5-.2-.2,0-.3,0-.5,0-.3,0-.6.2-.9.3-.7.2-1.4.3-2.1,0-.4-.2-.8-.7-.9-1.2,0-.5,0-1,.3-1.4.4-.4,1-.5,1.5-.3.4.1.8.4,1.1.7.2.2.4.4.6.6,0,0,.1.1.2.1.2.1.6.1.8.2,0,0,.2,0,.3.1.5,0,1.1.2,1.8.2-.1-.3-.2-.6-.3-.7,0-.1-.1-.2-.2-.3-.2-.1-.5,0-.8,0-.8.1-1.7-.1-2.3-.7-.6-.6-.8-1.5-.5-2.3.3-.8,1.3-1.2,2-.9.4.1.8.4,1,.8.4.5.6,1.1.6,1.7,0,.3,0,.5,0,.8.2.7.6.9,1.2,1.7,0,0,0,0,0,0,1.3,0,2.8,0,4.4-.2-.2-.4-.3-.8-.4-.9s-.1-.2-.2-.3c-.2-.1-.5,0-.8,0-.8.1-1.7-.1-2.3-.7-.6-.6-.8-1.5-.5-2.3.3-.8,1.3-1.2,2-1,.4.1.8.4,1,.8.4.5.6,1.1.6,1.7,0,.3,0,.5,0,.8l1.3,1.7c.1,0,.2,0,.4,0,.1,0,.3,0,.5-.1,1.4-.4,2.7-1.2,3.8-2.1,0-.2,0-.3,0-.4-.1-.1-.3-.1-.4-.2-.5,0-1-.1-1.4-.4-.3-.2-.6-.4-.8-.6-.7-.7-1.3-1.4-1.9-2.2-.3.2-.7.2-1,.2s-.7-.2-1-.4c-.4-.2-.7-.4-.9-.7-.3-.4-.4-.9-.3-1.5,0-.6.3-1.3.8-1.6.3-.2.7-.3,1-.4.8,0,1.6.3,2.2.9.5.6.6,1.6.3,2.3,0,0-.1.2-.1.3,0,.2,0,.5.2.7.9,1.2,2,2.3,3.5,2.5,0-.4.1-.9,0-1.3,0-.1,0-.3-.2-.4-.2-.2-.4-.3-.7-.4-.7-.3-1.3-.8-1.4-1.5-.1-.6,0-1.4.4-1.9.7-.8,1.8-.7,2.1-.6.2,0,1.1.2,1.5.9.3.4.3.8.3,1,0,1.4-1.2,2.6-1.4,2.7,0,0-.1,0-.1.1,0,0,0,0,0,.1,0,.7,0,1.4.2,2.1,3-2.9,4.5-7,4.5-7,0,0-2.5-1.5-12.4-3.7-9.9-2.2-15.4-10.9-15.4-10.9-.7-1.1-1.6-2.4-2.8-3.7-2.8-2.9-5.9-4.4-7.9-5.2,0,.6,0,1,.2,1.3,0,0,.4,1.9,2.5,3.7,0,0,.1.1.2.1,0,0,.2,0,.2,0,.6-.2,1.3-.2,1.9,0,.9.4,1.8,1.8,1.5,2.9-.1.4-.4.7-.8.9-.7.4-1.5.5-2.2.1-1.2-.6-1.1-2.1-1.1-3.2,0,0,0-.1,0-.2,0,0,0,0-.1-.1-.3-.2-1-.8-1.3-.8s-.7.6-.8.9c-.2.5-.4,1.1-.1,1.6.1.2.3.3.5.5.7.7,1.1,1.6,1.2,2.5,0,.7,0,1.4-.6,1.8-.3.3-.8.4-1.2.4-.3,0-1.4,0-2.2-.8-.7-.7-.9-1.9-.5-2.7.4-.8,1.5-.8,1.7-1.7,0-.3,0-.6,0-.8-1.2.3-2.5.8-3.7,1.2-.3.1-.7.2-.9.5-.7.8,0,2-.3,3-.2,1.1-1.5,1.8-2.6,1.6s-2-1.1-2.4-2.1c-.3-.7-.5-1.6-.2-2.3.4-.9,1.3-1.3,2.2-1.5.7-.1,1.4-.1,1.9.2,0,0,.2,0,.2.1,0,0,.1,0,.2,0,.7-.2,1.3-.5,2-.7,1.1-.3,2.2-.6,3.3-1,.7-.3,1.2-1.4,1.1-2.3,0-.6-.3-.8-.6-1.8-.2-.6-.3-1.2-.3-1.6-.7,0-1.4,0-2.2,0-.5,0-1,.1-1.5.2,0,0-.6.7-.8,1.2,0,.1,0,.3-.1.5,0,.1,0,.2,0,.4,0,.3,0,.7,0,1-.2.7-.5,1.3-.8,1.9-.3.4-.6.8-1.1,1-.9.4-2,0-2.4-.9-.5-1-.1-2.1.3-2.7.5-.6,1.2-.8,1.3-.8,1.1-.3,2,.2,2.3-.2,0,0,0-.2.2-.5,0-.2.1-.4.2-.6-.8,0-2.2.2-3.7.8-1.1.5-1.8,1-2.4,1.5,0,0-.2.2-.2.2,0,0-.1.2-.1.3,0,.1,0,.2,0,.3.2.6,0,1.2-.4,1.8-.7,1.2-1.9,1.8-3.3,1.2-.6-.3-1.1-.8-1.3-1.5-.2-.7.3-1.5.8-1.9.5-.4,1.1-.5,1.6-.7.3-.1.8-.1,1.1-.3.6-.2,1.1-.6,1.6-.9,0-1.9-.6-2.6-1.1-2.8-.4-.2-.7-.2-1.2-.6-.3-.2-.8-.6-1-1.3-.2-.7,0-1.5.5-2.1.6-.7,1.7-1.1,2.6-.6.9.4,1.1,1.3,1.2,1.5s.2,1-.2,1.7c-.3.5-.6.5-.7.8-.1.3-.1.9.4,1.7,1.2-.8,1.8-2.3,2.1-3.7,0-.2,0-.5,0-.7,0,0-.2-.1-.2-.2-.6-.5-.9-1.4-.7-2.2.2-.8.8-1.4,1.6-1.7.3-.1.7-.2,1.1-.1.6.1,1.1.6,1.4,1.1.3.4.4,1,.3,1.5,0,.5-.3.8-.6,1.1-.7.8-1.1.7-1.7,1.2,0,0,0,.1-.9,2.2,0,0-.6,1.5-1.3,2,0,0,0,0,0,0-.3.2-.4.3-.4.4,0,0,0,.2.1.4h0c.2,0,.4-.2.6-.2,0,0,0,0,.1,0,0,0,.1,0,.2,0,0,0,.1,0,.2,0,2.1-.9,4.8-1.7,7.7-1.9,0-.1.3-.6.2-1.1-.1-.4-.4-.7-.6-.8-.2-.2-.4-.2-.6-.3-.6-.4-1-.9-1.2-1.6-.2-.8,0-1.8.8-2.2.7-.5,1.8-.4,2.3.2.3.3.4.8.5,1.2,0,.6,0,1.2,0,1.8,0,.3-.2.6-.3.8,0,.1-.1.2-.2.3,0,.1,0,.2,0,.4,0,.4.1,1,.2,1.1h.3c2.6,0,5.5,1,8.1,2.3,0,0,0-2.8-1.7-4.6-.9-.3-1.7-.7-2.3-1.3-.8-.7-1.4-1.7-1.4-2.8,0-.7.2-1.4,0-2.1,0-.2-.2-.4-.2-.6,0-.5.5-.8.8-1.3.3-.6.2-1.4.4-2,.3-.7.9-1.1,1.4-1.6.3-.4.8-.8,1.2-.7.3,0,.4.4.7.5.4.3,1,.2,1.4.5.4.3.4.9.7,1.2.3.4.8.5,1,.9.1.3,0,.6,0,.9.1.4.5.7.7,1.1.2.4,0,.8,0,1.2,0,.5.4,1,.4,1.5,0,.6-.7,1.1-.9,1.7,0,.2,0,.4-.1.6-.1.4-.4.8-.7,1.2h0c0,2,.2,6.2,3.1,10.9,4,6.4,15.3,10.2,22.5,10.5,1.5-3.5,1.3-10.3-2.1-16-.2.1-.5.3-.7.5-.7.5-1,1.4-1.2,2.2-.3.8-.2,1.7,0,2.5,0,.1,0,.2.1.3,0,0,.1.1.2.1.7.3,1.2.9,1.5,1.5.4,1.1,0,2.9-1,3.5-.4.2-.9.2-1.4.1-.8-.2-1.6-.8-1.8-1.6-.4-1.4.7-2.6,1.6-3.4,0,0,.1-.1.1-.2,0,0,0-.1,0-.2,0-.4-.1-1.4-.4-1.7-.3-.3-1.1,0-1.4.1-.6.2-1.2.6-1.4,1.2,0,.2,0,.5,0,.8,0,1.1-.4,2.1-1.1,3-.5.6-1.2,1-1.9,1-.5,0-.9-.3-1.3-.6-.7-.6-1.1-1.4-1.2-2.3,0-.9.4-1.8,1.2-2.3,1-.6,2.2-.4,3.3-.2.2-.5.1-.4.3-.9-1.2-.7-2.3-1.3-3.6-1.9-.4-.2-.7-.4-1.1-.3-1.2,0-1.6,1.5-2.6,2.2-1,.7-2.6.3-3.3-.7-.7-1-.8-2.4-.3-3.6.3-.8.8-1.6,1.7-2,1-.4,2,0,2.9.5.6.4,1.2,1,1.4,1.7,0,.1,0,.2.1.3,0,0,.1.1.2.1.7.4,1.4.7,2.2,1,1.2.6,2.3,1.3,3.5,1.8.8.3,1.8.1,2.4-.5.4-.4,1.1-1.9,1.4-2.3.2-.3.7-.6,1.1-.8-.5-.7-1-1.3-1.5-1.8-1.3-.2-2,0-2.4.3-.3.2-.3.2-.7.6-.5.5-1.2.8-1.9.9-.5,0-1,0-1.5-.2-.8-.4-1.2-1.6-.8-2.5s1.3-1.4,2.3-1.4c.9,0,1.8.6,2.4,1.4.1.2.3.6.7.6.2,0,.4,0,.7-.1.3,0,.5-.2.6-.3-4.1-3.9-9.3-5.2-10.2-5.4-.3,0-.6,0-.6,0-.4,0-.7.3-.9.5,0,0-.5.4-1.4.7-1,.3-2.4,0-3.2-1-.2-.3-.6-.8-.7-1.5-.2-.8,0-1.7.6-2.4.6-.7,1.7-.8,2.5-.5.6.2,1.3.6,1.8,1.2.2.2.6.8,1.4,1.1,0,0,0,0,0,0,.4.1,1.8.6,3.7,1.5,0-.8,0-1.6-.2-2.3,0,0,0,0,0-.1,0,0-.1,0-.2-.1-1-.4-1.8-1.3-1.9-2.3,0-.2,0-.5,0-.8.2-.9,1.3-1.7,2.3-1.7.2,0,.7,0,1.2.4.5.4.9,1.1.8,1.8,0,.7-.5,1.3-1.1,1.8-.2.2-.5.3-.6.6,0,.1,0,.3,0,.4,0,.4.1.8.3,1.2,1.4-.5,2.3-1.8,2.8-3.2,0-.2.2-.5,0-.7,0,0-.1-.2-.2-.2-.5-.6-.6-1.6-.2-2.3.3-.7,1.1-1.2,1.9-1.3.4,0,.8,0,1.1.1.6.2,1,.8,1.2,1.4.2.5.2,1,0,1.5-.2.5-.5.7-.8.9-.7.6-1.5.6-1.9.6-.4.8-.9,1.5-1.4,2.3-.2.3-.6.7-.8,1-.4.4-.7.6-1.2.8-.1,0-.3.1-.4.3-.1.2,0,.4.1.7,1.4.7,3,1.7,4.7,2.9.2,0,.5-.2.7-.6,0-.1.3-.3.4-.6.1-.4,0-.8,0-1,0-.2-.5-1.8,0-2.7.4-.8,1.4-1.4,2.3-1.3.9,0,1.8.9,1.8,1.9s-.2,1-.5,1.4c-.4.6-1,1-1.7,1.3-.5.2-.6.2-.8.4-.4.3-.9.8-1.2,2,1.1.8,2.3,1.8,3.5,3.1.5.6,1,1.1,1.5,1.7,0-.1.2-.3.3-.5,0-.2.1-.3.1-.5,0-.4-.3-.6-.4-.7-.5-.5-1-1.6-.9-2.4.1-.9.8-1.7,1.7-1.9.9-.2,1.9.3,2.2,1.1.1.4.1.9,0,1.4-.2.6-.6,1.2-1.1,1.7-.4.3-.4.3-.6.6-.4.4-.6,1-.5,2.1.9,1.4,1.9,3.2,2.8,5.4.8,2.1,1.3,4,1.6,5.6,1,0,1.8-.9,1.9-1.9.1-1.3,0-2.6,0-3.9,0-.8,0-1.6,0-2.4,0,0,0-.2,0-.2,0-.1-.1-.2-.2-.2-.5-.5-.8-1.3-.9-2,0-1,0-2.1.9-2.8.7-.6,1.7-.7,2.5-.6,1.2.2,2.5.8,3,2,.6,1.1.2,2.7-.9,3.3-1,.5-2.6.2-3.1,1.2-.2.3-.2.8-.2,1.2,0,1.4,0,2.7,0,4,.5,0,.4,0,.9.1.3-1.1.7-2.3,1.7-2.8.8-.5,1.8-.4,2.6,0,.8.4,1.3,1.2,1.5,2.1.1.5.1,1,0,1.4-.3.7-1,1.1-1.8,1.2-1,.2-2.2,0-3.1-.4-.2-.1-.4-.3-.7-.3-.6-.1-1.2.2-1.7.6-.3.2-.8.8-.7,1.2.1.4,1,.9,1.3,1.2,0,0,0,0,.1,0,0,0,.2,0,.2,0,1.2-.4,2.7-.9,3.8.1.6.6.8,1.5.6,2.4-.1.5-.4.9-.8,1.2-1,.7-2.8.1-3.6-.7-.5-.6-.7-1.3-.7-2,0,0,0-.2,0-.3,0,0-.1-.2-.2-.2-.7-.5-1.5-1-2.4-1.2h0c.3,1.7.5,3.3.6,4.4,5.4,1.2,10.1,3.6,10.1,3.6,0,0,1.9-23.7,1.6-29.6,0,0-4.1-5.1-6.8-6.9-2.6-1.9-7.1-5.3-7.1-5.3,0,0-6.9.6-13.1-2.6-.1,0-.2.2-.4.2-.1,0-.2.2-.3.2,0,0-.2.2-.2.3,0,0,0,.2,0,.3,0,.3-.2.5-.3.7,0,.1-.5.9-1.2,1.2-.9.4-2.4,0-2.7-.9-.2-.7.4-1.6,1-1.9.6-.3,1.2-.3,1.8-.2.2,0,.4.1.6.2,0,0,.6.2.6.2,0,0,.1-.2.2-.3,0-.1.2-.3.3-.4-1.5-.8-2.9-1.9-4.2-3.3-.2.2-.4.3-.6.4-.1,0-.3.2-.4.3-.1,0-.2.2-.3.4,0,.1,0,.2,0,.3,0,.3-.2.6-.4.9-.4.6-.9,1-1.4,1.4-.4.3-.8.5-1.3.6-.9,0-1.8-.7-1.9-1.7-.1-.9.4-1.9,1.2-2.3.7-.4,1.4-.4,2.2-.2.2,0,.4.2.7.2,0,0,.7.3.7.2,0,0,.2-.2.3-.4.2-.3.5-.7.8-.9-2.5-2.9-3.9-5.3-4.6-7.2,0,0-.2,0-.2.2,0,.1,0,.3,0,.4,0,.5.1,1.1,0,1.5,0,.3-.1.5-.2.7-.4.8-.9,1.6-1.4,2.3.3.2.4.5.5.8,0,.4,0,.8,0,1,0,.2-.4,1.4-1.5,1.8-.1,0-1,.3-1.7-.2-.3-.2-.5-.5-.6-.8-.3-.7-.2-1.5.2-2.1s1.2-1,1.9-.9c0,0,.2,0,.3,0,.2,0,.4-.2.5-.4.8-1.1,1.4-2.4,1.2-3.8-.4,0-.8.2-1.1.3-.1,0-.2.2-.3.3-.2.2-.2.5-.2.7,0,.7-.3,1.3-.9,1.7-.5.3-1.2.4-1.8.2-.5-.2-.8-.6-.9-.8-.3-.5-.3-1.1-.3-1.3,0-.5.2-.9.5-1.3.2-.2.4-.3.7-.4.9-.3,2-.2,2.8.4,0,0,.1,0,.2,0,0,0,0,0,.1,0,.8-.2,1.5-.6,2.1-1.1-.3-.9-.5-1.7-.6-2.3-.2-.7,0-1.3-.3-2-.2-.4-.4-.8-.6-1.2-.3-.6-.5-1.3-.6-2,0-.8.3-1.8,1.1-2.2.7-.3,1.6-.3,2.3,0,.5.3.9.6,1.1,1,.7,1.2.3,2.5.2,2.8,0,.2-.2.7-.7,1.1-.4.5-.7.5-1,.8-.5.5-.4,1.3-.2,2.3.5,2.5,2.1,5.6,2.5,6.4.1-.2.3-.5.4-.7,0-.2.2-.3.2-.4,0,0-.4-.5-.5-.5-.2-.2-.3-.3-.5-.5-.4-.6-.7-1.2-.6-1.9,0-.9.7-1.7,1.5-1.9.8-.2,1.8.2,2.1,1,.2.4.1.9,0,1.3-.2.6-.4,1.2-.7,1.7-.2.2-.4.5-.6.7,0,0-.2.1-.3.2-.1.2-.2.3-.2.4-.3.9-.3.8-.3.9,0,.1,0,.5.8,1.4.4.4,1,.9,1.8,1.4.7-.5,1.3-1.1,1.7-1.5,1.4-1.4,1.5-2.1,1.5-2.4,0-1.1-.6-1.3-1.4-2.8-.3-.6-.5-1.2-.8-1.8,0,0,0-.1,0-.2,0,0-.2,0-.2,0-.6-.2-1.1-.6-1.4-1.2-.4-.7-.8-1.6-.4-2.4.3-.7,1-1.1,1.6-1.3,1-.3,2.1-.3,2.9.3.8.6,1.1,1.9.5,2.7-.6.8-1.8,1.1-1.8,2,0,.3.1.6.2.9.5,1,.9,1.9,1.5,2.9.4-.1.3-.1.7-.2-.2-.9-.3-1.9.2-2.7.4-.6,1.1-1,1.8-.9s1.4.4,1.9,1c.2.3.4.7.5,1.1,0,.6-.4,1.2-.8,1.5-.7.5-1.5.8-2.4.8-.2,0-.4,0-.6,0-.5.1-.8.6-1,1.1-.1.3-.3.9,0,1.1.2.2,1,.3,1.3.4,0,0,0,0,.1,0,0,0,.1,0,.2-.1.7-.8,1.6-1.7,2.8-1.3.6.2,1.1.8,1.3,1.5,0,.4,0,.8-.1,1.1-.5.8-2,1.1-2.8.8-.5-.2-1-.7-1.2-1.2,0,0,0-.1-.1-.2,0,0-.2,0-.2,0-2.1-.2-2.9.3-2.9.3-.8.5-1.3,1.2-1.5,1.5.5.3,1,.6,1.6.9,5.3,2.7,8.6,2.5,10.3,2,0,0-4.2-6.4-1.9-12.1,0,0,.7-1.6,1-.2.3,1.4-.3,4.1.1,5.5.4,1.4,1.5,4.9,5,7.1s4.3,3.7,9.8,6.3c0,0,0,0,.1,0,.3-1.1.9-3.9-1-7.5,0,0-.1-.2-.3-.6-.6-1.1-.7-1.2-1-1.3-.2,0-.4,0-.6.2,0,0-.4.3-.5.6,0,0,0,0,0,0,0,0,0,0,0,0,0,.2-.1.4-.2.6-.2.4-.6.7-.9.9-.2.2-.5.3-.9.4-.6,0-1.1-.5-1.2-1.1,0-.6.3-1.2.8-1.5.4-.2.9-.3,1.4-.2,0,0,.2.1.4.2.2,0,.4,0,.4,0,.1,0,.2-.2.4-.3.1-.1.2-.3.4-.5-.8-.7-1.5-1.1-2.1-1.4,0,0-.2-.1-.5-.2-.9-.4-1.7-.6-2.3-.8,0,0,0,0,0,0-.3.2-.7.5-1.1.5s-.6-.1-.8-.2c-.3-.2-.6-.4-.8-.8s-.2-.8,0-1.1c.1-.2.2-.3.4-.4.5-.3,1.1-.2,1.6,0,.2.1.7.6,1,1,.3,0,.6.2,1,.3,0,0,0,0,0,0,.1-.5,0-.9,0-1.1-.2-1.1-.4-1.7-.6-1.9-.6-.7-1.1-.4-1.5-1-.3-.5-.3-1.3.1-1.9.4-.6,1.1-.6,1.3-.6s.8,0,1.3.4c.4.4.6.9.6,1.4,0,.8-.6.8-.8,1.6-.1.6.1.6.2,1.8,0,.4,0,1.3-.1,1.7,0,0,.1,0,.2,0,.5.2,1,.4,1.5.7.1-.2.2-.4.4-.7.1-.4.3-1,.2-1.6-.1-.9-.6-.9-.6-1.6,0-.5.3-1.2.8-1.4.4-.2.9,0,1,0,.1,0,.8.2,1.1.9.2.4.1.9,0,1.3-.4.6-.9.3-1.4.9-.3.4-.1.6-.5,1.5,0,0-.3.6-.5,1,0,0,.1,0,.2,0,.4.2.8.5,1.2.8.1,0,.3.2.4.3q0,0,0,0c0,0,.1,0,.2,0,0,0,.2-.2.3-.3.1-.1.1-.2.2-.2,0,0,0-.1,0-.2,0-.2.1-.4.2-.6.2-.4.5-.7.9-1,.2-.2.5-.4.9-.4.6,0,1.2.4,1.3,1,.1.6-.2,1.2-.7,1.5-.4.3-.9.3-1.4.2-.1,0-.3,0-.4-.1,0,0-.4,0-.4,0,0,0-.2.2-.3.4,0,.1-.2.2-.2.3.7.6,1.3,1.2,1.9,1.9,0,0,.1.2.2.3.2.3.4.5.6.8,2,3,2.4,6.4,2.3,8.8.4.2.7.5,1,.7,0,0,1.2-22.7,1.2-24.1,0-1.4.4-4,0-4.8-.3-.6-1.3-3-3.9-5.1-.1.3-.2.4-.3.7-.6,1.3,0,3,.8,4.1,0,0,.1.1.2.2,0,0,.1,0,.2,0,.6,0,1.2.2,1.6.5.7.6,1.1,2.1.6,2.9-.2.3-.6.5-.9.6-.7.2-1.4,0-1.9-.5-.9-.9-.5-2.1-.1-3.1,0,0,0-.1,0-.2,0,0,0,0,0-.1-.2-.2-.6-.9-.9-1-.3,0-.8.4-.9.6-.3.4-.6.9-.5,1.4,0,.2.2.4.3.6.4.8.5,1.7.4,2.5-.1.6-.4,1.2-1,1.4-.4.2-.8.2-1.2,0-.7-.2-1.4-.6-1.7-1.2-.4-.6-.4-1.4,0-2.1.5-.8,1.4-1.1,2.3-1.4,0-.4,0-.3,0-.8-1.1,0-2.2,0-3.3,0-.3,0-.7,0-.9.2-.8.5-.6,1.7-1,2.5-.5.9-1.7,1.2-2.6.7-.9-.4-1.4-1.4-1.6-2.4-.1-.7,0-1.5.4-2,.6-.7,1.4-.8,2.3-.7.6,0,1.2.3,1.6.7,0,0,.1.1.2.2,0,0,.1,0,.2,0,.6,0,1.3,0,1.9,0,1,0,2.1,0,3.1,0,.7,0,1.4-.9,1.6-1.7.1-.5,0-.8,0-1.9,0-.6.1-1.1.2-1.4-.6-.4-1.2-.7-1.9-1.1-.9-.4-1.7-.7-2.4-1-.2.5-.9,1-1,1.2-.1.1-1.3.9-1.5,1.1.1,0,.6,1.8,0,2.5-.3.5-1,.7-1.6.6-.6,0-1.1-.3-1.6-.7-.2-.1-.3-.3-.4-.5-.1-.2-.1-.4-.1-.7,0-.7.5-1.3,1.1-1.7.6-.3,1.4-.3,2,0,.1,0,1.5-1.1,1.7-1.2,0,0,0,0,0,0,.2-.2.4-.4.6-.7-2.7-.8-5.2-.7-6.6-.6-.4.5-.8,1.1-1.4,1.3-.4.2-1,.2-1.4.1-.6,0-1.2-.3-1.7-.7s-.8-1-.7-1.7c0-.3.2-.6.4-.8.6-.7,1.6-1,2.5-.8.6,0,2.1.8,2.6,1.5.5,0,1.1-.1,1.7-.1-.2-.4-.3-1-.3-1.2,0-.1,0-1.2,0-1.5,0,0,0,0,0,0-.4,0-1.3-.7-1.5-1.3-.1-.5,0-1,.4-1.4.4-.4.8-.6,1.3-.7.2,0,.4,0,.5,0,.2,0,.4.2.5.3.4.4.6,1.1.6,1.7-.1.6-.5,1.1-1.1,1.4-.1,0,0,1.6,0,1.8h0c0,.5.1.8.3,1.1,1.2,0,2.6.2,4.2.7,0-.7-.1-1.3-.3-2,0,0,0,0,0-.1,0,0-.1,0-.2,0-.9-.3-1.6-1-1.8-1.9,0-.2,0-.5,0-.7,0-.4.4-.8.7-1,.4-.2.8-.4,1.2-.5.1,0,.3,0,.4,0,.3,0,.5.2.7.3.4.4.8.9.8,1.4,0,.6-.3,1.2-.8,1.6-.2.2-.4.3-.5.5,0,.1,0,.3,0,.4,0,.4.1.7.3,1,1.1-.5,1.8-1.7,2.2-2.9,0-.2.1-.4,0-.6,0,0-.1-.1-.2-.2-.5-.5-.6-1.3-.3-1.9.3-.6.9-1.1,1.5-1.3.3,0,.6,0,.9,0,.5.2.9.6,1.1,1.1.2.4.2.9,0,1.3-.1.3-.4.6-.6.8-.2.2-.4.4-.7.5-.3.1-.6.2-.9,0-.3.8-.6,1.6-1,2.3-.1.2-.4.7-.6.8-.3.3-.6.4-1,.6-.1,0-.2.1-.3.2,0,.2,0,.3.1.5.8.2,1.6.6,2.5,1,1.2.5,2.4,1.2,3.5,2,.6-.4,1.4-1.6.6-5.2h0c0,0,0-.2,0-.2,0-.8,0-1.6.6-2.1.3-.4.8-.6,1-1.1,0-.1.1-.3.2-.4.2-.3.7-.2,1-.3.5-.1.7-.6,1.2-.8.5-.2,1,0,1.5,0,.4,0,.8,0,1,.3.1.2,0,.4.1.6,0,.3.5.6.5.9,0,.3-.2.7-.2,1,0,.3.2.7,0,1,0,.2-.3.3-.4.5-.1.3,0,.6-.1.9-.1.3-.4.4-.5.7-.2.3-.2.7-.5,1-.3.2-.6.2-1,.3,0,0-.2,0-.3.1-.1,0-.2.2-.4.2-.1,0-.3.2-.5.2-.9.5-2.1,1.5-2.9,3.2,2.2,1.5,4.2,2.9,5.7,3.1,1.5,0,2.6-.4,3.8-1.8.6-.8,1.3-1.5,1.9-2.1-.2-.2-.4-.3-.6-.5-.2.3-.7.5-1.1.6-.4,0-.9,0-1.2-.3-.3-.2-.6-.4-.8-.7-.4-.6-.5-1.5-.1-2.1.4-.7,1.1-1.1,1.8-1.1.5,0,1.1.1,1.4.5.4.6.2,1.4.4,2.1.1.3.5.7.7,1,1.9-2,3.8-3.4,6.1-4.4,0-.2.1-.3,0-.5,0-.1-.2-.2-.3-.2-.5-.2-.7-.3-1.1-.7-.5-.4-.7-.8-.8-.8-1.1-1.4-.9-1.7-1.4-1.9-.6-.3-.8,0-1.4-.3-.1,0-.5-.3-.7-.7-.2-.4-.2-.8,0-1.3.1-.5.3-.9.8-1.2.3-.1.7-.3,1.1-.2.7,0,1.4.5,1.7,1.1s.3,1.4,0,2c0,0-.1.2-.1.2,0,.2,0,.4.1.6.6,1.1,1.4,2.2,2.6,2.6.1-.3.2-.7.2-1.1,0-.1,0-.3,0-.4-.1-.2-.3-.3-.5-.5-.5-.3-1-.9-1-1.5,0-.6.3-1.1.6-1.5.2-.2.4-.3.6-.3.1,0,.4,0,.6,0,.4,0,.7.1,1.1.3.4.2.7.5.8.9,0,.2,0,.5,0,.7-.1.9-.7,1.7-1.6,2.1,0,0-.1,0-.1,0,0,0,0,0,0,.1-.1.7-.2,1.3,0,2,1.2-.5,2.5-.8,4-1.1.2-.4.3-.8.2-1.2h0c0-.7-.1-1.5-.4-2-.4-.6-.8-.3-1.1-.8-.3-.6-.2-1.5.3-2,.4-.3.8-.4,1-.4s.9,0,1.4.5c.4.4.4,1.1.3,1.5-.3.7-.8.6-1.1,1.2-.2.5.1.8.2,1.7,0,.6-.1,1.1-.2,1.4.5,0,1.3.2,2-.2,1.1-.5,1.1-1.4,2.1-1.8.7-.3,1.9-.3,2.6.5.6.7.5,1.8,0,2.5-.5.8-1.4.9-1.6.9-1.2.1-1.6-.6-3.1-1-1.1-.3-2,0-3,0-1.5.3-2.7.8-3.4,1.3.2.2.4.4.6.6,0,0,0,0,0,0,.2.1,1.7,1.1,1.8,1,.6-.4,1.4-.5,2-.3.7.2,1.2.8,1.3,1.5,0,.2,0,.5,0,.7,0,.2-.2.4-.4.5-.4.4-.9.8-1.4.9-.6.1-1.2,0-1.6-.4-.6-.6-.4-1.7,0-2.4,0,.2-1.7-.8-1.9-.9-.2-.1-.7-.6-1-1.1-.3.1-.5.2-.8.4-.7.4-1.3.7-1.7,1-.5.3-1.1.7-1.7,1.2.1.2.3.6.4,1.1.3,1.1,0,1.6.3,2.2.3.8,1.1,1.5,1.8,1.5,1,0,2.1-.3,3.1-.4.6,0,1.3-.1,1.9-.2,0,0,.1,0,.2,0,0,0,.1-.1.2-.2.4-.5.9-.8,1.5-.9.8-.2,1.7-.2,2.4.4.5.5.7,1.3.7,1.9,0,1-.4,2.1-1.3,2.6-.8.6-2.1.5-2.7-.4-.5-.8-.5-2-1.3-2.4-.3-.1-.6,0-.9,0-1.1.1-2.2.3-3.3.4v.8c.9.2,1.9.3,2.5,1.1.4.6.5,1.4.3,2.1-.3.7-.9,1.2-1.5,1.4-.4.1-.8.2-1.1,0-.6-.2-1-.7-1.2-1.3-.3-.8-.3-1.7,0-2.5,0-.2.2-.4.2-.6,0-.5-.3-1-.7-1.3-.2-.2-.7-.6-1-.5-.3.1-.6.9-.8,1.2,0,0,0,0,0,.1,0,0,0,.1,0,.2.5.9,1,2.1.3,3.1-.4.5-1.1.8-1.8.7-.4,0-.8-.2-1-.5-.6-.7-.4-2.2.2-2.9.4-.4,1-.7,1.6-.8,0,0,.2,0,.2,0,0,0,.1-.1.1-.2,1.2-2.6.5-3.9.5-3.9-.1-.2-.2-.7-.6-.9-2,2-3.5,4.5-3.6,6.6,0,0,.2,12.3.4,15.3s.9,15.4.9,15.4c0,0,.5-.3,1.3-.8-.2-2.4,0-6.4,2.3-9.8.2-.3.4-.6.6-.8,0,0,.1-.2.2-.3.6-.7,1.2-1.3,1.9-1.8,0,0,0-.2,0-.2,0,0-.1-.3-.3-.4-.1,0-.2,0-.5.1-.1,0-.3.1-.4.1-.5,0-1,0-1.4-.2-.5-.3-.8-.9-.7-1.6.1-.6.7-1.1,1.3-1,.3,0,.6.2.9.4.3.3.7.6.9,1,.1.2.2.4.2.6,0,0,0,.2,0,.2,0,0,.1.2.2.2,0,0,.1.1.3.2.1,0,.2,0,.2,0,0,0,0,0,0,0l.4-.3c.4-.3.8-.5,1.2-.8.2,0,.3-.2.5-.3,0,0,0,0,0,0-.2-.3-.3-.6-.4-.8s-.4-1.3-.3-1.6c0,0-.2,0-.5,0-.4,0-.9-.2-1.2-.8-.2-.4-.1-.9.1-1.4.1-.2.3-.6.8-.9.3-.2.5-.2.7-.2s.5,0,.6.2c.5.3.8.9.8,1.4,0,.6-.3,1.2-.7,1.5,0,0,.3,1.5.3,1.7,0,0,0,0,0,0,0,.2.1.4.2.5.4-.2.7-.3,1.1-.5.1,0,.3-.1.4-.2.5-.2.9-.3,1.3-.4.3-.4.8-.9,1-1,.5-.3,1.1-.3,1.6,0,.2,0,.3.2.4.4.2.3.1.8,0,1.1-.2.3-.5.6-.8.8-.3.1-.5.3-.8.2-.4,0-.8-.2-1.1-.5,0,0,0,0,0,0-.6.1-1.4.4-2.3.8.2.2.4.3.7.4,0,0,0,0,0,0,.2,0,1.7.6,1.7.5.4-.4.8-.7,1.4-.6s1.1.5,1.3,1c0,.2.1.4.1.6,0,.2-.1.3-.2.5-.2.4-.6.8-1,1-.4.2-1,.2-1.4,0-.6-.4-.8-1.3-.5-1.9,0,0-1.4-.3-1.5-.4-.4-.2-1-.5-1.3-.8-.7.4-1.6.9-2.2,1.5.1.2.3.5.8.7.1,0,.3.1.6,0,.2,0,.3-.1.4-.2.5-.1,1,0,1.4.2.5.3.9.9.8,1.5,0,.6-.6,1.1-1.2,1.1-.3,0-.6-.2-.9-.4-.3-.3-.7-.6-.9-.9,0,0,0,0-.2-.6,0-.2-.1-.3-.2-.5-.1-.2-.2-.2-.3-.3-.1,0-.3-.2-.5-.3-.3.3-.7.8-1.1,1.3,0,0-.2.3-.3.6-2.1,4-1,7.4-.7,8.1,3.6-2.2,8-5.3,9.3-7,2.1-2.8,5.7-5.5,5.2-11.1-.6,0-1.1,0-1.7,0-.8-.1-1.5-.5-2-1.2-.3-.4-.4-1-.8-1.3-.1-.1-.3-.2-.4-.3-.2-.3,0-.7,0-1.1,0-.5-.4-.9-.5-1.4,0-.5.2-1,.4-1.6.1-.4.2-.8.6-.9.2,0,.4,0,.6,0,.4,0,.7-.3,1.1-.2.4,0,.6.4.9.5.3.1.7,0,1,.2.2.1.2.4.4.6.2.2.6.2.8.4.2.2.3.5.5.7.2.3.7.5.8.8.2.4,0,.9,0,1.4,0,.2.1.3.1.4,0,.3,0,.7,0,1,0,.4-.3.8-.6,1.2.4,2.3.6,6.6-1.9,10.8,0,0,6.8.3,12.7-3.9-.6-.6-1.3-1-1.7-1.2,0,0-1.3-.6-3.3-.5,0,0-.1,0-.2,0,0,0,0,.1-.1.2-.2.5-.7,1-1.2,1.2-.8.3-2.3,0-2.8-.8-.2-.3-.2-.8-.1-1.1.2-.7.6-1.3,1.3-1.5,1.2-.3,2.1.6,2.8,1.3,0,0,0,0,.2.1h.1c.3,0,1.1-.1,1.4-.4.2-.2,0-.8,0-1.1-.2-.5-.5-1-1-1.1-.2,0-.4,0-.6,0-.9,0-1.7-.3-2.4-.8-.5-.4-.8-.9-.8-1.6,0-.4.2-.8.5-1.1.5-.6,1.2-.9,1.9-.9.7,0,1.5.3,1.8,1,.5.8.3,1.8.2,2.7.4.2.3.1.7.3.5-.9,1.1-1.9,1.5-2.9.1-.3.3-.6.3-.9,0-.9-1.2-1.3-1.8-2.1-.6-.8-.2-2.1.6-2.7.8-.6,1.9-.6,2.9-.3.6.2,1.3.7,1.6,1.3.4.8,0,1.6-.4,2.3-.3.5-.8,1-1.4,1.1,0,0-.2,0-.2,0,0,0,0,0-.1.2-.3.6-.5,1.2-.8,1.7-.8,1.5-1.4,1.7-1.4,2.8,0,1,.7,1.8,1.1,2.2,1,1,2.1,1.3,2.8,1.4,0,0,.2-.1.3-.2.7-.6,1.2-1.2,1.6-1.7,0-.2,0-.4-.1-.5,0,0-.1-.5-.3-1,0-.1-.1-.2-.2-.4,0-.1-.2-.1-.3-.2-.2-.2-.4-.4-.6-.7-.4-.5-.5-1.1-.7-1.8-.1-.4-.1-.9,0-1.3.3-.8,1.3-1.2,2.1-1,.8.2,1.4,1.1,1.5,1.9,0,.7-.2,1.4-.6,1.9-.1.2-.3.3-.5.5,0,0-.5.5-.5.5,0,0,.1.2.2.4.1.2.3.6.4.9.4-.6,2-3.4,2.6-5.8.3-1.1.3-1.8,0-2.4-.2-.4-.5-.9-.7-1.2-.5-.7-.6-.7-.9-1.1-.5-.7-.7-1.9-.1-2.9.4-.7.9-.9,1.1-1,.7-.4,1.6-.4,2.3,0,.8.4,1.1,1.3,1.1,2.2,0,.7-.3,1.3-.6,2-.2.4-.4.8-.6,1.2-.3.7-.3,1.2-.5,1.9,0,0,0,0,0,0,0,.4-.2.9-.3,1.4,0,.3-.1.7-.2.9.6.5,1.4.8,2.1,1.1,0,0,0,0,.1,0,0,0,.1,0,.2,0,.8-.6,1.9-.7,2.8-.4.2,0,.5.2.7.4.3.3.5.8.5,1.3s-.1.9-.3,1.3c0,.1-.1.3-.2.4-.2.2-.5.3-.7.4-.6.1-1.3.1-1.8-.2-.6-.4-.8-1.1-.9-1.7,0-.3,0-.5-.2-.7,0-.1-.2-.2-.3-.3-.3-.2-.7-.3-1.1-.4-.2,1.3.3,2.7,1.1,3.8.1.2.3.4.5.4.1,0,.2,0,.3,0,.7,0,1.5.3,1.9.9s.4,1.5.1,2.1c-.1.3-.3.6-.6.8-.5.3-1.1.4-1.7.2-.4-.1-.9-.3-1.2-.7-.2-.3-.3-.7-.3-1,0-.3,0-.7,0-1s.2-.6.5-.8c-.5-.8-.9-1.6-1.3-2.4-.1-.3-.2-.7-.2-1,0-.5,0-.8,0-1.2,0-.1,0-.3,0-.4,0-.1-.2-.2-.3-.2-.7,1.9-1.8,4.2-3.6,6.4-.3.3-.5.6-.8.9,0,.1.2.5.5.7.4.2.8.2,1,.1.3,0,.5-.2.7-.2.7-.2,1.5-.1,2.2.3.8.5,1.3,1.4,1.2,2.3-.1.9-1,1.7-1.9,1.6-.6,0-1.1-.4-1.3-.6-.7-.6-.7-1-1.6-2.4-.1-.2-.4-.6-.9-.9-.2-.1-.3-.2-.4-.3-1.2,1.2-2.7,2.4-4.2,3.4,0,0,0,0,0,.1,0,.1.2.2.3.2.1,0,.3,0,.6,0,.3,0,.5-.2.6-.2.6-.1,1.2,0,1.8.2.7.4,1.1,1.2,1,1.9-.1.8-.9,1.3-1.6,1.3-.9,0-2-.8-2.2-1.7-.1-.4-.1-.9-.6-1.3-.1,0-.2-.2-.3-.2-4.5,2.9-9.7,4.5-12.9,3.9,0,0-7.5,5.2-9.4,7.4-1.9,2.2-5.8,7.4-5.8,7.4,0,0,.7,25.9,1.3,26.2s6.3-3.2,11.6-3.8c.2,0,.4,0,.6,0,0-1.4.2-3.2.6-5.2,0,0-.1,0-.2,0-.9.1-1.6.6-2.3,1.2,0,0-.2.1-.2.2,0,0,0,.2,0,.3,0,.7-.2,1.5-.7,2-.8.8-2.6,1.4-3.6.7-.4-.3-.6-.7-.8-1.2-.2-.8,0-1.8.6-2.4,1.1-1.1,2.6-.6,3.8-.1,0,0,.2,0,.2,0,0,0,.1,0,.1,0,.3-.2,1.2-.8,1.3-1.2.1-.4-.5-.9-.7-1.2-.5-.4-1.1-.8-1.7-.6-.2,0-.5.2-.7.3-.9.5-2.1.7-3.1.4-.7-.2-1.5-.6-1.8-1.2-.2-.4-.2-1,0-1.4.2-.9.8-1.7,1.5-2.1.8-.4,1.8-.5,2.6,0,1,.6,1.4,1.8,1.7,2.8.3,0,.5,0,.8,0,.2-1.8.2-3.2.2-4.2,0-.5,0-.8-.2-1.2-.6-1-2.1-.7-3.1-1.2-1.1-.6-1.4-2.2-.9-3.3s1.8-1.8,3-2c.9-.1,1.8,0,2.5.6.9.7,1,1.8.9,2.8,0,.8-.3,1.5-.9,2,0,0-.2.1-.2.2,0,0,0,.2,0,.2,0,.8,0,1.6,0,2.4,0,1.3,0,2.6,0,3.9,0,1.1,1,1.9,2,1.9.9-4,2.7-8.9,6.4-13.5,0,0,0-.1.1-.2-.3-.5-.5-1.1-1-1.3-.2-.1-.5-.2-.8-.3-.6-.2-1.2-.6-1.7-1.1-.3-.4-.5-.8-.6-1.3,0-.9.7-1.8,1.6-1.9.9-.2,1.8.3,2.3,1.1.5.8.5,1.8.1,2.6-.1.3-.3.6-.2.9s.2.2.3.4c0,0,.3.2.5.4,1.5-1.8,3-3.2,4.5-4.3,0-.4.3-.9.2-1.1,0-.1-.2-.2-.4-.3-.5-.2-.9-.3-1.2-.7-.1,0-.3-.2-.7-.8-1.1-1.6-.8-2.3-1.5-2.7-.6-.4-1.1,0-1.8-.5-.1,0-.5-.4-.8-.9-.2-.5-.2-1,0-1.5.2-.6.6-1.2,1.2-1.4.3-.1.7-.2,1.1-.1,0,0,1.5.2,1.9,1.3.3.8,0,1.7-.2,2.1,0,0-.1.2-.2.4,0,0,0,.3,0,.7.6,1.4,1.5,2.7,2.8,3.2.2-.4.3-.8.3-1.2,0-.2,0-.3,0-.4-.1-.3-.4-.4-.6-.6-.6-.4-1.1-1.1-1.1-1.8,0-.7.4-1.3.9-1.7.2-.2.5-.4.8-.5.2,0,.6,0,.8,0,.5.1.7.3,1.1.6.4.3.8.7.9,1.2,0,.3,0,.6,0,.8-.2,1-1,2-1.9,2.3,0,0-.1,0-.2.1,0,0,0,0,0,.1-.2.8-.3,1.7-.2,2.5,1.9-1.3,3.8-2.2,5.4-2.8.2-.5.6-1.1.6-1.3,0-.2.1-.3.1-.5,0-.4-.4-.6-.7-.8-.9-.7-1.4-1.8-1.3-2.9s.9-2.2,1.9-2.5c1.1-.3,2.4.2,2.8,1.2.2.5.2,1.2,0,1.7-.2.8-.6,1.6-1.2,2.1-.3.2-.6.5-.8.8-.3.5-.3,1.3-.4,1.9.2,0,.5-.2.8-.3.2,0,.5-.2.7-.3.5-.2.6-.2,1.1-.3.1,0,.4-.1.6-.3.5-.3.8-.7,1-.9.6-.5,1.1-.9,1.8-1.2.8-.3,1.9-.2,2.5.5.5.7.8,1.5.6,2.4-.1.6-.4,1.1-.7,1.5-1,1.1-2.5,1-2.8,1-.5,0-1.3-.1-1.8-.7-.2-.2-.3-.4-.6-.5-.4-.2-.8,0-1,0-1.8.6-1.4.2-3.4.9-.3.1-.8.3-1.4.6-1,.5-2.7,1.3-4.8,2.8.3.3.6.5.7.6.1,0,.3.2.4.2.3,0,.6-.2.8-.4.8-.6,1.8-.8,2.7-.5.9.3,1.6,1.2,1.6,2.1,0,.9-.7,1.9-1.6,2-.5,0-1,0-1.4-.3-.6-.3-1.2-.9-1.5-1.5-.1-.3-.3-.6-.5-.8-.5-.5-1.4-.5-2-.9-.9.9-1.9,1.8-2.7,2.9.4.2,1,.6,1.6,1.3.9,1,1,1.6,1.7,2.1.9.6,1.9.4,2.2.4,1.5-.2,1.6-.8,3.5-1.8.7-.4,1.4-.7,2.1-1,0,0,.1,0,.2-.1,0,0,0-.2.1-.3.2-.7.8-1.3,1.4-1.7.9-.6,1.9-1,2.9-.5.8.4,1.4,1.2,1.6,2,.4,1.2.4,2.6-.3,3.6-.7,1-2.3,1.4-3.3.7-.9-.7-1.4-2.1-2.6-2.2-.4,0-.8.2-1.1.3-1.2.6-2.4,1.2-3.6,1.9.2.5.1.4.3.9,1.1-.2,2.3-.4,3.3.2.8.5,1.2,1.4,1.2,2.3s-.5,1.8-1.2,2.3c-.4.3-.8.6-1.3.6-.8,0-1.4-.4-1.9-1-.7-.8-1.1-1.9-1.1-3,0-.3,0-.5,0-.8-.1-.6-.8-1-1.4-1.2-.3-.1-1.1-.4-1.4-.1-.3.3-.4,1.3-.4,1.7,0,0,0,.1,0,.2,0,0,0,.1.1.2,1,.9,2.1,2,1.6,3.4-.2.8-1,1.4-1.8,1.6-.5.1-1,.1-1.4-.1-1.1-.6-1.4-2.4-1-3.5.3-.7.8-1.2,1.5-1.5,0,0,.2,0,.2-.1,0,0,0-.2.1-.3.1-.8.2-1.7,0-2.5-.2-.6-.4-1.5-1.2-2.2-.6-.5-1.2-.6-1.6-.7-.2.3-.4.6-.6,1-4,6.5-2.9,13.6-1.9,17.5,4.9-.7,10.3-1.8,13.7-4.2,5.2-3.5,8.7-5.8,10.8-14.2,2.1-8.4,1.2,2.4,1.2,2.4,0,0,5.2-3.1,10.9-2.4,0-.1.2-.4.3-.6,0,0,0-.1,0-.2,0-.1.1-.3.1-.4,0-.1,0-.3,0-.4s0-.2-.1-.3c-.1-.3-.2-.5-.3-.8-.1-.6,0-1.2.1-1.8,0-.4.3-.9.6-1.2.6-.6,1.7-.6,2.3,0s.8,1.5.6,2.3c-.2.6-.7,1.1-1.4,1.5-.1,0-.3,0-.6.2-.1,0-.4.3-.6.6-.3.6,0,1.3,0,1.4,0,0,0,0,.1,0,3.5.7,6.5,2.1,8.4,3,.1-.2.2-.3.2-.4,0-.6-.9-.8-1.5-1.7,0,0-.1-.2-.2-.6-.2-1-.4-1.9-.5-2.9-.4,0-.7-.1-1-.3-.3-.2-.5-.5-.7-.8-.2-.3-.4-.7-.4-1.1,0-.5.2-1,.5-1.4.4-.5.9-.9,1.5-1,.4,0,.7,0,1.1.2.7.4,1.3,1.1,1.4,1.9s-.2,1.7-.9,2.1c0,0-.2.1-.3.2-.2.2-.2.5-.1.7.1,1.5.6,3,1.7,3.9.3-.3.5-.7.7-1.1,0-.1,0-.3,0-.4,0-.3-.2-.5-.4-.7-.4-.6-.7-1.3-.5-2,.2-.6.7-1.1,1.3-1.4.3-.1.6-.2.9-.2.2,0,.4,0,.5.1.4.2.9.5,1.2.9.3.4.5.9.5,1.4,0,.3-.1.6-.3.8-.5.9-1.5,1.6-2.6,1.6,0,0-.1,0-.2,0,0,0,0,0,0,.1-.5.8-.9,1.6-1,2.5.5.3,1.1.7,1.6.9.4.1.8.2,1.1.3.6.2,1.1.4,1.6.7.6.4,1.1,1.2.8,1.9-.2.7-.7,1.2-1.3,1.5-1.3.6-2.6,0-3.3-1.2-.5-.9-.4-1.8-.4-1.8,0-.2,0-.4,0-.6-.2-.5-.8-.7-1-.8-1-.6-2.7-1.4-5.4-2.7,0,.2,0,.6.2,1,0,.1.2.3.4.5.5.4.9,0,1.6.2.9.2,1.4,1,1.5,1.1.4.6.7,1.7,0,2.7-.5.8-1.7,1.1-2.5.7-.4-.2-.8-.6-1-1.1-.3-.6-.6-1.3-.7-2,0-.3,0-.7,0-1,0-.2,0-.2,0-.3,0-.3-.1-.6-.4-1,0-.1-.1-.2-.2-.3l-.6-.9c-.3,0-.6-.1-.9-.2-.7-.1-1.4-.2-2.1-.2-.1.4-.3,1.1-.7,1.8-.5.9-.9,1.1-1,1.6-.2.9.2,2,.9,2.4,1,.5,2.1.9,3.2,1.3.7.3,1.3.6,1.9.9,0,0,.1,0,.2,0s.2,0,.3,0c.6-.3,1.3-.2,2,0,.9.3,1.7.8,2,1.7.2.8,0,1.6-.4,2.2-.6,1-1.5,1.7-2.6,1.8s-2.3-.7-2.4-1.8c0-1,.7-2.2,0-3-.2-.3-.6-.4-.9-.6-1.1-.5-2.2-.9-3.3-1.3-.2.4-.2.3-.4.7.8.6,1.6,1.4,1.8,2.3.1.8-.2,1.6-.9,2.1s-1.5.7-2.2.6c-.4,0-.9-.2-1.1-.5-.5-.5-.5-1.2-.4-1.9.2-.9.7-1.8,1.4-2.4.2-.1.4-.3.5-.5.3-.5.2-1.1,0-1.6-.1-.3-.4-1-.7-1-.4,0-1.1.5-1.4.7,0,0,0,0-.1,0,0,0,0,.1,0,.2,0,1.1-.2,2.5-1.4,3.1-.7.3-1.5.1-2.1-.3-.3-.2-.6-.6-.7-1-.2-1.1.8-2.4,1.8-2.7.6-.2,1.3-.2,1.9.1,0,0,.1,0,.2,0,.1,0,.2,0,.2,0,2.3-1.7,2.8-3.5,2.8-3.5,0-.3.2-.7.2-1.3-1.2,0-3,.4-4.9,1.2-2.9,1.3-4.6,3.2-6.8,5.9-1.5,1.7-3.4,4.2-5.1,7.5,1-.2,2.1-.7,3.6-1.3,0,0,0,0,0,0,.1,0,.2-.1.4-.1,1-.4,2.2-.4,3.1,0,.9.5.8.6,1.8,1,.3.1.7.2,1,.5.3.3.2.5.4.9.4.8.9.6,1.5,1.4.4.6.5,1.4.6,2.1.1.5.3,1.1,0,1.5-.2.2-.6.2-.8.4-.5.2-.7.9-1.1,1.1-.4.2-1,0-1.4,0-.5,0-.9.5-1.3.4-.3,0-.6-.3-.9-.4-.4,0-.8.1-1.3,0-.4,0-.7-.4-1.1-.5-.5-.2-1.1,0-1.6-.4-.4-.3-.6-.8-.8-1.2,0,0-.1-.2-.2-.4-.1-.1-.3-.3-.5-.4-.2-.2-.3-.4-.4-.6-.8-.8-1.9-1.6-3.4-2.3-4.8,2.8-10.6,4.1-17.9,5.6-1.2.2-2.5.6-3.7,1.1.4,1.9,1.7,6.6,6.8,9.5.1-.8.1-1.6,0-2.4,0,0,0-.1,0-.1,0,0-.1,0-.2-.1-1-.5-1.6-1.4-1.8-2.5,0-.3,0-.6,0-.8.1-.5.5-.9,1-1.1.4-.2.7-.4,1.2-.5.2,0,.6,0,.7,0,.3,0,.5.3.7.5.4.5.8,1.1.7,1.8,0,.7-.6,1.3-1.2,1.7-.2.1-.5.3-.6.6,0,.1,0,.3,0,.4,0,.4,0,.9.2,1.2,1.4-.4,2.4-1.7,3.1-3,.1-.2.2-.5.1-.7,0-.1-.1-.2-.2-.3-.5-.7-.5-1.6,0-2.3.4-.7,1.2-1.1,2-1.2.4,0,.8,0,1.1.2.6.3.9.9,1.1,1.5.1.5.1,1-.1,1.5-.2.5-.6.8-.8.9-.2.1-.3.1-.5.2-.8.1-1,0-1.4,0-.7.2-.7,1.2-1.9,2.7-.2.3-.4.5-.7.7-.4.3-.9.5-.9.5-.4.1-.5.1-.6.3-.1.2-.1.6,0,.7.2.1.4.2.6.3,1.5.6,2.9.9,4.2,1.1.7-.7.9-1.4.9-1.8,0-.3,0-.3,0-.9,0-.9.1-1.3.3-1.8.2-.4.5-.7.9-.9.7-.4,1.7,0,2.2.6.4.7.4,1.7-.1,2.3s-1.3,1-2.1,1c-.2,0-.6,0-.8.1,0,0-.1.2-.2.6,0,.3-.1.6-.2.8,1.6,0,3-.1,4.3-.4.7-.8.9-1.5.9-2,0-.2,0-.3,0-.8,0-.9.1-1.4.3-1.8.2-.4.5-.7.9-.9.7-.4,1.7,0,2.2.6.4.7.4,1.7-.1,2.3s-1.3,1-2.1,1c-.2,0-.5,0-.8.1-.1.1-.2.2-.2.5-.1.3-.1.5-.2.7.4,0,1,0,1.7-.3.8-.3,1.2-.8,1.3-.9.2-.3.2-.3.5-.7.3-.3.6-.6,1-.9.5-.2,1.1-.3,1.6,0,.4.3.6.9.6,1.4s-.3,1-.7,1.3c-.6.4-1.4.4-2,.3-.4,0-.4-.1-.7-.1-.8,0-1.4.3-2,.6,0,0,.1.1.2.2.5.4,1.2.5,1.9.6.1,0,.3,0,.4,0,.2,0,.3-.1.4-.2.6-.4,1.3-.7,2-.7.7,0,1.5.4,1.7,1.1.1.4,0,.8,0,1.2-.1.4-.3.8-.6,1.1-.6.6-1.6.8-2.4.4-.8-.4-1.3-1.2-1.2-2.1-.6-.2-1.3-.4-1.9-.7-.4-.2-.8-.4-1.2-.7-.4,0-1,.2-1.8.3,0,0,0,.1,0,.2-.2.9-.2,1.8,0,2.7,0,0,0,.1,0,.1,0,0,.1,0,.2.1,1,.5,1.6,1.4,1.8,2.5,0,.2,0,.5,0,.8-.3.9-1.4,1.6-2.4,1.5-.2,0-.7,0-1.2-.5-.5-.4-.8-1.1-.7-1.8,0-.7.6-1.3,1.2-1.7.2-.1.5-.3.6-.6,0-.1,0-.3,0-.4,0-.4,0-.9-.2-1.2-1.4.4-2.4,1.7-3.1,3-.1.2-.2.5-.1.7,0,.1.1.2.2.3.5.7.5,1.6,0,2.3-.4.7-1.2,1.1-2,1.2-.4,0-.8,0-1.1-.2-.6-.3-.9-.9-1.1-1.5-.1-.5-.1-1,.1-1.5.2-.4.6-.7.8-.9.6-.4,1.1-.4,1.6-.6,1.2-.4.9-1.2,2.2-2.2,1.1-.8,2.1-.9,2.2-1.7,0-.2,0-.4,0-.6-1.7.2-4,.2-6.3-.2-.3.4-.4,1.1-.4,1.6,0,1,.2,1.4-.1,2.1,0,.2-.4.9-1.1,1.2s-1.6,0-1.9-.7c-.1-.2-.1-.4-.1-.6,0-.9.4-1.8,1.2-2.3.4-.2.8-.3,1.1-.6.3-.2.6-.4.8-.8-1.5-.3-3-.8-4.4-1.6-4.3-2.4-7.5-6.1-9.2-8.2-4.4,2.6-7.6,6.2-7.7,8.8,0,1.2.1,5.2.1,5.2,0,1.2.1,2.6.2,4"/>
      </g>
      <path class="st2" d="M158,21.1c-74.6,0-135.1,60.5-135.1,135.1s60.5,135.1,135.1,135.1,135.1-60.5,135.1-135.1S232.6,21.1,158,21.1ZM241.2,70.1c3.4,0,6.1,2.7,6.1,6.1s-2.7,6.1-6.1,6.1-6.1-2.7-6.1-6.1,2.7-6.1,6.1-6.1ZM74.2,71.8c3.4,0,6.1,2.7,6.1,6.1s-2.7,6.1-6.1,6.1-6.1-2.7-6.1-6.1,2.7-6.1,6.1-6.1ZM160,249.6c-51.6,0-93.4-41.8-93.4-93.4s41.8-93.4,93.4-93.4,93.4,41.8,93.4,93.4-41.8,93.4-93.4,93.4Z"/>
      <g>
        <path class="st1" d="M123.8,259.1l.9,1.9.7-.3c.3-.1.6-.3.9-.4.3-.1.6-.3.8-.4,0,0,0,0,.1,0,0,.2,0,.5,0,.8v15.3c0,.6,0,1,0,1.4,0,.2,0,.4-.2.5,0,0-.2.1-.4.2-.3,0-.8.1-1.4.1h-.8v2.2h7.1v-24.1h-1.5l-6.2,3.1h0Z"/>
        <path class="st1" d="M151.2,259.5c-.6-1-1.5-1.8-2.4-2.5-1-.7-2.2-1-3.6-1s-2.2.3-3.2.8c-.9.5-1.7,1.2-2.4,2-.6.8-1.2,1.7-1.5,2.8-.4,1-.6,2.1-.6,3.1s.1,1.8.4,2.6c.3.9.7,1.7,1.2,2.4.5.7,1.2,1.3,2,1.7h0c1,.5,2.1.8,3.4.6,2.3-.7,3.1-3.7,3.1-3.7h0c-.4.2-.8.4-1.2.6-1,.4-1.9.2-2.6-.3-.5-.4-.9-.9-1.2-1.5-.3-.6-.6-1.3-.7-2-.2-.7-.2-1.4-.2-2s0-1.2.2-1.8c.1-.6.4-1.1.7-1.6.3-.5.6-.8,1.1-1.1.4-.3.9-.4,1.5-.4s.7,0,1,.3c.3.2.6.5.8.9.2.4.5.8.6,1.3.2.5.3,1.1.4,1.6.1.5.2,1.1.2,1.6,0,.5,0,1,0,1.4,0,.7,0,1.3,0,1.7,0,.4,0,.8-.2,1.2,0,.3-.8,3-.8,3-.1.3-.2.6-.4.9-.6,1.2-1.3,2.3-2.1,3.3-.8,1-1.8,1.8-2.8,2.4-1,.6-2.1.9-3.3,1h-.8v2.2h1.5c1.9,0,3.6-.4,5.3-1.2,1.6-.8,3.1-1.9,4.3-3.3,1.2-1.4,2.2-2.9,2.9-4.7.7-1.8,1.1-3.6,1.1-5.5s-.1-2.2-.4-3.3c-.3-1.2-.8-2.2-1.4-3.2h0Z"/>
        <path class="st1" d="M190.4,259.5c-.6-1-1.5-1.8-2.4-2.5-1-.7-2.2-1-3.6-1s-2.2.3-3.2.8c-.9.5-1.7,1.2-2.4,2-.6.8-1.2,1.7-1.5,2.8-.4,1-.6,2.1-.6,3.1s.1,1.8.4,2.6c.3.9.7,1.7,1.2,2.4.5.7,1.2,1.3,2,1.7h0c1,.5,2.1.8,3.4.6,2.3-.7,3.1-3.7,3.1-3.7h0c-.4.2-.8.4-1.2.6-1,.4-1.9.2-2.6-.3-.5-.4-.9-.9-1.2-1.5-.3-.6-.6-1.3-.7-2-.2-.7-.2-1.4-.2-2s0-1.2.2-1.8c.1-.6.4-1.1.7-1.6.3-.5.6-.8,1.1-1.1.4-.3.9-.4,1.5-.4s.7,0,1,.3c.3.2.6.5.8.9.2.4.5.8.6,1.3.2.5.3,1.1.4,1.6.1.5.2,1.1.2,1.6,0,.5,0,1,0,1.4,0,.7,0,1.3,0,1.7,0,.4,0,.8-.2,1.2,0,.3-.8,3-.8,3-.1.3-.2.6-.4.9-.6,1.2-1.3,2.3-2.1,3.3-.8,1-1.8,1.8-2.8,2.4-1,.6-2.1.9-3.3,1h-.8v2.2h1.5c1.9,0,3.6-.4,5.3-1.2,1.6-.8,3.1-1.9,4.3-3.3,1.2-1.4,2.2-2.9,2.9-4.7.7-1.8,1.1-3.6,1.1-5.5s-.1-2.2-.4-3.3c-.3-1.2-.8-2.2-1.4-3.2h0Z"/>
        <path class="st1" d="M168.8,269.3c-.6-.7-1.3-1.3-2-1.8-.4-.4-.9-.7-1.3-1l-.5-.4s0,0,0,0c-.4-.4-.9-.7-1.4-1.1-.5-.4-.9-.8-1.3-1.2-.4-.4-.7-.8-.9-1.3-.2-.4-.3-.9-.3-1.4s0-.7.2-1c.2-.4.4-.7.7-.9s.6-.5.9-.6c.3-.1.7-.2,1-.2s.9,0,1.3.3c.4.2.8.5,1.1.8.3.3.6.7.8,1.1.2.4.3.9.3,1.3s0,.8-.1,1.1c0,.3-.2.5-.3.7l-.9,2.1s1.6.3,3.1-.7c0,0,.1,0,.2-.1.4-.4.7-.8.9-1.3.2-.5.4-1.1.4-1.8s-.2-1.4-.5-2.1c-.3-.7-.8-1.3-1.4-1.8-.6-.5-1.3-.9-2.1-1.2-1.5-.6-3.5-.7-5.3,0-.8.3-1.5.6-2.1,1.1-.6.5-1.2,1.1-1.5,1.9-.4.8-.6,1.6-.6,2.6s.1,1.6.4,2.3c.3.6.6,1.2,1.1,1.8.4.5.9,1,1.4,1.5.2.2.5.5.8.7-.3.2-.5.4-.8.6-.6.5-1.1,1-1.5,1.5-.5.6-.9,1.2-1.1,1.8-.3.7-.5,1.4-.5,2.2s.1,1,.3,1.7c.2.7.6,1.4,1.1,2.1.5.7,1.3,1.2,2.2,1.7.9.5,2.1.7,3.5.7s1.8-.1,2.7-.4c.9-.3,1.6-.7,2.3-1.3.7-.6,1.2-1.2,1.6-2.1.4-.8.6-1.8.6-2.8s-.2-1.8-.7-2.7c-.4-.8-1-1.5-1.6-2.2h0ZM166.9,276.7c-.2.4-.5.7-.8,1-.3.3-.7.5-1.1.7-.9.4-1.9.3-2.6-.1-.4-.2-.8-.6-1.1-1-.3-.4-.6-.9-.7-1.4s-.3-1.1-.3-1.6c0-.9.3-1.7.8-2.6h0c.5-.7,1-1.3,1.6-1.8.8.6,1.4,1.2,2,1.7.6.6,1.2,1.1,1.6,1.6.4.5.6.9.8,1.3.1.4.2.7.2,1.1s0,.8-.3,1.1h0Z"/>
        <path class="st1" d="M48.8,195.2l7.4-10.1-1.9-5.9-1.8.6.2.6c.1.6.2,1.1.2,1.5,0,.4-.1.9-.3,1.2-.2.4-.4.8-.6,1.2-.3.4-.6.9-1,1.4l-3.1,4.3c-.2-.3-.4-.5-.6-.7-.5-.5-1-.9-1.6-1.2-.6-.3-1.2-.5-1.9-.6-.7-.1-1.4,0-2.2.2-.5.1-1,.4-1.5.8-.6.4-1.1.9-1.5,1.7-.4.7-.6,1.6-.7,2.6,0,1,.1,2.2.6,3.6l2.8,8.5,1.9-.6-.2-.7c-.2-.7-.3-1.1-.3-1.3,0-.3,0-.4,0-.4,0-.1.3-.2.5-.4.4-.1.8-.3,1.3-.5l15.2-5-1.3-3.9-9.7,3.2h0ZM43.2,197c-.6.2-1,.2-1.2.2-.3,0-.5-.1-.6-.2-.1-.1-.2-.2-.3-.4,0-.2-.2-.4-.2-.6-.2-.4-.2-.9-.2-1.3,0-.4.2-.8.3-1.1.2-.4.5-.7.8-.9.3-.3.7-.5,1.2-.6.5-.2.9-.2,1.3-.2s.3,0,.4,0c.5,0,.9.2,1.2.5.4.3.7.6.9,1,.3.5.5.9.7,1.5l.2.7-4.6,1.5h0Z"/>
        <path class="st1" d="M53.3,171.2l-1.9.2v.7c0,.2,0,.5,0,.7,0,.2,0,.4,0,.6,0,.1,0,.2-.1.3,0,0,0,0-.2,0s-.3,0-.7-.1c-.4-.1-.7-.2-1-.3l-2.3-.7-.7-6.3,6-3.3-.5-4.1-19.7,10.6.2,1.5,21.7,6.7-.8-6.5h0ZM39.2,170.3l4.8-2.7.5,4.3-5.3-1.6h0Z"/>
        <path class="st1" d="M38.1,154.7l-.6-.2c-1.3-.4-1.9-.7-2.2-1-.6-.6-.9-1.6-.8-3.1l.4-5.7,15.5,12.9h1.5c0,.1,1.2-16.6,1.2-16.6l-6.4-1.6v1.9c-.1,0,.3.2.3.2.6.3,1.2.6,1.6.8.4.2.6.6.9,1,.2.4.4,1.1.5,1.8,0,.8,0,1.9,0,3.4l-.2,3.3-16.9-13.7-1.3,17.5,6.3,1.2.2-2.1h0Z"/>
        <path class="st1" d="M36.4,133.6c.7,1.1,1.6,2,2.7,2.8,1.1.8,2.4,1.4,3.9,1.8,1,.2,1.9.4,2.8.4s1,0,1.4-.1c1.4-.2,2.6-.6,3.7-1.2,1.1-.6,2.1-1.5,2.9-2.6.8-1.1,1.4-2.3,1.7-3.6h0c.3-1.3.4-2.7.2-4-.2-1.3-.7-2.5-1.4-3.6-.7-1.1-1.6-2-2.7-2.8-1.1-.8-2.4-1.4-3.9-1.8s-2.9-.4-4.3-.3c-1.4.2-2.6.6-3.7,1.2-1.1.6-2.1,1.5-2.9,2.5s-1.4,2.3-1.7,3.6c-.3,1.3-.4,2.7-.2,4,.2,1.3.7,2.5,1.4,3.6h0ZM37.6,126.6h0c.2-.8.5-1.5,1.1-2.2.5-.6,1.2-1.1,1.9-1.5.8-.4,1.7-.6,2.8-.7.2,0,.4,0,.6,0,.9,0,1.9.1,3,.4,1.3.3,2.4.8,3.3,1.3.9.6,1.6,1.2,2.2,1.9.5.7.9,1.4,1,2.2.2.8.1,1.6,0,2.4-.2.8-.6,1.5-1.1,2.1s-1.2,1.1-1.9,1.5c-.8.4-1.7.6-2.8.6-1.1,0-2.3,0-3.5-.4-1.3-.3-2.4-.8-3.3-1.3-.9-.6-1.6-1.2-2.2-1.9-.5-.7-.9-1.4-1-2.2-.2-.8-.1-1.6,0-2.4h0Z"/>
        <path class="st1" d="M111.3,39.4l.8,14.9-11-10.2-5.1,2.4.8,1.7.6-.2c.3-.1.6-.2.8-.1.3,0,.5.1.8.2.3.1.5.3.8.5.3.2.6.5.9.8l13.1,11.9,1.3-.6-1-22.5-2.7,1.2h0Z"/>
        <path class="st1" d="M134.5,47.2v.5c0,.7,0,1.2-.1,1.7,0,.4-.2.8-.4,1.1-.2.3-.4.5-.6.7-.3.2-.8.4-1.3.5l-2.1.6c-.8.2-1.3.2-1.6.2-.4,0-.6-.2-.8-.4-.2-.2-.3-.4-.4-.7-.1-.3-.2-.6-.3-.9l-1.1-4.2,4.4-1.2c.3,0,.6-.1.8-.1.1,0,.2,0,.2,0,0,0,.2.2.3.7l.2.7,1.9-.5-1.4-5.2-1.9.5.2.7c0,.3,0,.4,0,.4,0,0,0,0-.2.2-.2.1-.5.2-.8.3l-4.4,1.2-1.6-5.8,4-1.1c.6-.2,1.1-.3,1.5-.3.3,0,.6,0,.9,0,.2,0,.4.2.6.5.2.3.5.8.8,1.4l.3.5,1.9-.5-1.8-5.3-15.4,4.1.5,1.9.7-.2c.7-.2,1.1-.2,1.3-.2.3,0,.4,0,.4.1.1.1.2.3.3.5.1.4.3.8.4,1.4l4.1,15.5,12.9-3.4-.3-6.3-2.2.6h0Z"/>
        <path class="st1" d="M138.1,35.1c0,.4.1.9.2,1.4l1.6,16,4.1-.4-1-10.1,8.2,9.4,6.1-.6-.2-1.9h-.7c-.6,0-1.1,0-1.5-.2-.4-.1-.8-.3-1.2-.5-.4-.2-.7-.5-1-.9-.4-.4-.7-.8-1.1-1.2l-3.5-4c.3-.1.6-.3.9-.4.6-.3,1.1-.8,1.6-1.3.4-.5.8-1.1,1-1.7.2-.7.3-1.4.2-2.2,0-.5-.2-1-.4-1.6-.3-.7-.7-1.2-1.3-1.8-.6-.5-1.4-1-2.4-1.2s-2.2-.4-3.7-.2l-8.9.9.2,2h.7c.8-.1,1.2-.1,1.4,0,.3,0,.4.2.4.2.1.1.2.3.2.6h0ZM142.5,34.9c.1-.3.2-.4.3-.5.1-.1.3-.2.4-.2.2,0,.4,0,.6,0,.1,0,.3,0,.4,0,.3,0,.6,0,.9.1.4.1.7.3,1.1.6.3.3.5.6.7,1,.2.4.3.8.4,1.3,0,.7,0,1.2-.2,1.7-.2.5-.4.8-.8,1.1-.3.3-.7.5-1.2.7-.5.2-1,.3-1.6.3h-.7c0,0-.5-4.8-.5-4.8,0-.7,0-1,0-1.2h0Z"/>
        <path class="st1" d="M178.5,42.5c0-.8,0-1.6,0-2.4,0-.8-.3-1.6-.5-2.3-.3-.8-.6-1.5-1.1-2.2s-1-1.3-1.7-1.8c-.6-.5-1.2-.8-1.9-1.1-.7-.3-1.4-.5-2.1-.7-.7-.2-1.4-.3-2.1-.4s-1.4-.2-2-.2l-8-.8-.2,2h.7c.7.1,1.1.2,1.3.3.3,0,.3.2.4.3,0,.2.1.4.1.6,0,.4,0,.9-.1,1.4l-1.5,16,6.8.7c.5,0,1.1,0,1.6,0,1.2,0,2.3-.1,3.3-.4,1.4-.4,2.6-1,3.7-1.9,1-.9,1.8-1.9,2.4-3.1.6-1.2.9-2.5,1.1-3.8h0ZM173.9,42.1c-.1,1.1-.4,2.1-.7,3-.4.9-.9,1.7-1.5,2.3-.6.6-1.4,1.1-2.2,1.4-.9.3-1.9.4-3,.3-.5,0-.9-.1-1.4-.2-.3,0-.6-.1-.8-.2l1.1-11.9c0-.9.3-1.5.5-1.9.3-.4.6-.7.8-.8.3-.2.7-.2,1.1-.2,1.1.1,2.1.4,2.9.9.8.5,1.5,1.1,2,1.8.5.7.9,1.6,1.1,2.6.2,1,.3,2,.2,3.1h0Z"/>
        <path class="st1" d="M190.2,34.8l-14.3,17.7,6.3,1.7.5-1.8-.6-.2c-.2,0-.5-.2-.7-.3-.2,0-.3-.2-.5-.3,0,0-.1-.1-.2-.2,0,0,0,0,0-.2,0,0,.1-.3.4-.6.3-.3.5-.6.6-.8l1.5-1.9,6.2,1.7.8,6.8,3.9,1.1-2.5-22.2-1.4-.4h0ZM184.9,45.8l3.4-4.3.8,5.4-4.2-1.1h0Z"/>
        <path class="st1" d="M216.1,47.2c-.4-.6-.8-1.2-1.4-1.7-.5-.5-1.1-1-1.7-1.4-.6-.4-1.2-.8-1.9-1.1-.6-.3-1.2-.6-1.8-.9l-7.3-3.5-.9,1.8.6.3c.7.3,1,.6,1.2.7.1.1.2.2.2.4,0,.2,0,.4-.1.6-.1.4-.3.8-.6,1.3l-6.9,14.5,6.2,3c1.6.8,3.2,1.2,4.6,1.3.3,0,.5,0,.8,0,1.2,0,2.3-.2,3.3-.6,1.2-.5,2.4-1.2,3.3-2.1.9-.9,1.7-2,2.3-3.2.4-.7.6-1.5.8-2.3.2-.8.3-1.6.3-2.4,0-.8,0-1.6-.3-2.4-.2-.8-.5-1.6-.9-2.3h0ZM212.9,51.7c-.1,1-.4,2-.9,3-.5,1-1,1.8-1.7,2.5-.7.7-1.4,1.3-2.2,1.7-.8.4-1.7.6-2.6.6h0c-.9,0-1.9-.2-2.9-.7-.4-.2-.8-.4-1.2-.7-.2-.2-.5-.3-.7-.5l5.2-10.8c.4-.8.8-1.3,1.2-1.6s.8-.5,1.1-.5c.3,0,.7,0,1.1.1,1,.5,1.8,1.1,2.4,1.8s1,1.5,1.2,2.4c.2.9.3,1.8.1,2.8h0Z"/>
        <path class="st1" d="M275,112.2l-14.9.5,10.4-10.9-2.3-5.2-1.8.8.2.6c.1.3.1.6.1.8,0,.3-.1.5-.2.8-.1.3-.3.5-.5.8-.2.3-.5.6-.8.8l-12.1,12.9.6,1.4,22.5-.6-1.2-2.7h0Z"/>
        <rect class="st1" x="257.4" y="120.4" width="20.4" height="4.1" transform="translate(-24.2 83.8) rotate(-17)"/>
        <path class="st1" d="M277.2,124.9c.1.7.1,1.2.1,1.4,0,.2,0,.3-.1.4-.1.1-.3.2-.6.3-.4,0-.9.2-1.4.3l-15.8,2.9.8,4.1,10-1.8-8.7,9,1.1,6.1,1.9-.3v-.7c-.1-.6-.1-1.1,0-1.5s.2-.8.4-1.2c.2-.4.5-.8.8-1.1.3-.4.7-.8,1.1-1.2l3.7-3.8c.2.3.3.6.5.8.4.6.9,1.1,1.4,1.4.5.4,1.1.7,1.8.9.7.2,1.4.2,2.2,0,.5,0,1-.3,1.6-.6.6-.3,1.2-.8,1.7-1.4.5-.6.8-1.5,1-2.5.2-1,.2-2.2,0-3.7l-1.6-8.8-1.9.4v.7c.1,0,.1,0,.1,0ZM277.9,132c0,.2.1.4.1.6,0,.5,0,.9,0,1.3,0,.4-.2.8-.5,1.1-.2.3-.5.6-.9.8-.4.2-.8.4-1.3.5-.7.1-1.2.1-1.7,0-.5-.1-.9-.4-1.2-.7-.3-.3-.6-.7-.8-1.1-.2-.5-.4-1-.5-1.5v-.7c-.1,0,4.6-.9,4.6-.9.7-.1,1,0,1.2,0,.3,0,.5.2.5.3.1.1.2.3.2.4h0Z"/>
        <path class="st1" d="M276.4,147h.6c1.9.5,2.4.9,2.6,1.1.2.3.6,1,.6,2.8v.9s-17.7.4-17.7.4v4.3c0,0,17.8-.4,17.8-.4v.9c0,2-.3,2.6-.5,2.8-.1.2-.7.6-2.5,1.1h-.6c0,.1,0,2.2,0,2.2l6.3-.4-.4-17.5h-6.3c0-.1,0,1.9,0,1.9h0Z"/>
        <path class="st1" d="M280.8,166.2c-.1.7-.2,1.1-.3,1.3,0,.2-.2.3-.3.4-.1,0-.4.1-.6,0-.4,0-.9,0-1.4-.2l-8.4-1.3c-1-.1-1.9-.2-2.9-.1-1,0-1.9.4-2.8.9-.8.5-1.6,1.2-2.2,2.2-.6,1-1,2.3-1.2,3.9-.2,1.6-.2,2.9.1,4,.3,1.1.8,2,1.5,2.8.7.7,1.5,1.3,2.4,1.6.9.4,1.8.6,2.7.7l12.6,1.9.5-2.6-11.3-1.7c-.4,0-.8-.1-1.2-.2-.4,0-.9-.2-1.3-.3-.4-.1-.8-.3-1.2-.4-.3-.2-.6-.4-.9-.6-.6-.6-1-1.3-1.2-2.1-.2-.9-.2-1.7-.1-2.6,0-.4.2-.8.3-1.2.1-.4.3-.7.6-1,.2-.3.5-.5.8-.8.3-.2.7-.3,1.1-.4.2,0,.5,0,.8,0s.7,0,1.1,0c.4,0,.8,0,1.1.1.4,0,.7,0,1,.1l11.8,1.8,1-6.8-2-.3v.7c-.1,0-.1,0-.1,0Z"/>
        <path class="st1" d="M277.3,187.6c-.2.7-.4,1.1-.6,1.2s-.3.3-.3.3c-.2,0-.4,0-.6,0-.4-.1-.8-.2-1.4-.4l-15.1-5.3-2.2,6.5c-.6,1.7-.9,3.3-.8,4.8,0,1.5.4,2.8,1,4,.6,1.2,1.4,2.2,2.4,3.1,1,.8,2.2,1.5,3.5,1.9.8.3,1.6.4,2.4.6.5,0,.9,0,1.4,0s.7,0,1,0c.8,0,1.6-.3,2.4-.5.8-.3,1.5-.7,2.2-1.2.6-.4,1.1-1,1.5-1.6.5-.6.8-1.2,1.2-1.9.3-.6.6-1.3.9-2,.3-.7.5-1.3.7-1.9l2.6-7.6-1.9-.6-.2.7h0ZM274.1,195.2c-.4,1.1-.9,1.9-1.5,2.6-.6.7-1.4,1.2-2.2,1.5-.8.3-1.8.5-2.7.4-1,0-2-.2-3-.6-1-.4-1.9-.8-2.7-1.4-.8-.6-1.4-1.3-1.9-2-.5-.8-.8-1.6-.9-2.5s0-1.9.4-3c.1-.4.3-.9.5-1.3.1-.3.3-.5.4-.8l11.3,3.9c.8.3,1.4.6,1.8,1,.3.4.5.7.6,1s0,.7,0,1.1h0Z"/>
        <path class="st1" d="M47.9,97.9l.4-1.1.2-.4-1.5-.7-1.2,2.7-1,2.1,11.2,4.9-15,4.2h-.2c0,0,0,.2,0,.2h0l-1.1,2.4,18.7,8.2,1.3-2.9-9.1-4-2.8-1.2,16.4-4.6h.2c0,0,.7-1.7.7-1.7l-16.8-7.4s-.7-.2-.5-.8h0Z"/>
      </g>
    </g>
    <g>
      <rect class="st2" x="328.7" y="203.3" width="648.5" height="2.6"/>
      <g>
        <path class="st2" d="M368.3,92.3c0,2.1-.2,4.2-.7,6.3-.5,2.1-1.4,4-2.7,5.7-1.3,1.7-3.1,3.1-5.4,4.1-2.3,1.1-5.3,1.6-8.9,1.6s-6.7-.5-9.1-1.5c-2.3-1-4.1-2.3-5.5-3.9-1.3-1.6-2.2-3.5-2.7-5.6-.5-2.1-.7-4.3-.7-6.6v-20.8c0-1.4,0-2.7-.1-3.6,0-1-.3-1.8-.7-2.4-.4-.6-1.1-1-2-1.2-.9-.2-2.1-.3-3.8-.3v-1.3h13.1v27.2c0,.7,0,1.5,0,2.4,0,.9,0,1.8.1,2.8s.2,1.9.3,2.8c.1.9.3,1.6.5,2.2.4,1.2,1,2.2,1.7,3,.8.8,1.6,1.5,2.5,2.1,1,.6,2,1,3.1,1.2,1.1.2,2.2.4,3.4.4,2.3,0,4.5-.5,6.8-1.4,2.3-.9,4.1-2.3,5.4-4.3.6-.8,1-1.8,1.3-2.8.3-1.1.5-2.2.6-3.3.1-1.1.2-2.2.2-3.3,0-1.1,0-2.2,0-3.1v-26h3v29.4h0Z"/>
        <path class="st2" d="M429,62.9h6.5v46.1h-6.5v-46.1Z"/>
        <path class="st2" d="M468.9,110.1h-1.3l-16.4-38.5c-.4-.9-.8-1.8-1.2-2.6s-.9-1.6-1.4-2.3c-.5-.7-1.2-1.2-1.9-1.7-.7-.5-1.7-.7-2.7-.8v-1.3h10.8l15.3,36.7,14.7-36.7h3.4l-19.2,47.2h0Z"/>
        <path class="st2" d="M503.8,83.7h12.8c1,0,1.9,0,2.5-.2.7-.2,1.2-.5,1.5-.9.3-.4.5-1.1.5-1.9h1.2v9.6h-1.2c0-1.1-.2-1.9-.5-2.6-.3-.6-.8-1-1.5-1.2-.7-.2-1.5-.3-2.5-.3h-12.9v12.3c0,.7,0,1.5.1,2.4,0,.9.4,1.8.8,2.7.5.8,1.3,1.5,2.4,2.1,1.1.6,2.6.8,4.6.8h5.3c1.5,0,2.8-.2,3.9-.5,1-.3,2-.9,2.7-1.6.8-.7,1.4-1.7,1.9-2.8.5-1.1,1-2.5,1.5-4.2h2l-2.4,11.6h-29.2v-37.3c0-1.4,0-2.7-.1-3.6,0-1-.3-1.8-.7-2.4-.4-.6-1.1-1-1.9-1.2-.9-.2-2.1-.3-3.8-.3v-1.3h35.4l.6,10.1h-1.4c-.3-1.8-.7-3.1-1.2-4.1s-1-1.8-1.8-2.3c-.7-.5-1.7-.8-2.8-1-1.1-.2-2.5-.2-4.1-.2h-11.8v18.3h0Z"/>
        <path class="st2" d="M538.7,71.8c0-1.4,0-2.7-.1-3.6,0-1-.3-1.8-.7-2.4-.4-.6-1.1-1-1.9-1.2-.9-.2-2.1-.3-3.8-.3v-1.3h20c3.4,0,6.1.4,8.2,1.3,2.1.8,3.7,1.9,4.9,3.2,1.2,1.3,1.9,2.6,2.3,3.9.4,1.4.6,2.6.6,3.6,0,1.7-.3,3.2-1,4.5-.6,1.3-1.5,2.4-2.5,3.4-1,1-2.2,1.8-3.6,2.4-1.4.6-2.8,1.1-4.4,1.4l9,12.5c.8,1.2,1.7,2.3,2.4,3.3.8,1,1.7,1.9,2.6,2.6.9.7,2,1.3,3.1,1.8,1.2.5,2.5.8,4.1.9v1.3h-12.3l-16.9-23.7c1.4,0,2.9-.2,4.3-.5,1.4-.3,2.7-.9,3.7-1.7,1.1-.8,2-1.8,2.6-3.1.7-1.3,1-2.9,1-4.9s-.2-2.7-.7-3.9c-.4-1.2-1.1-2.2-1.9-3.1-.8-.9-1.8-1.6-3-2.1-1.2-.5-2.4-.7-3.8-.7s-1.1,0-1.7.1c-.7,0-1.3.3-1.8.7-.6.4-1.1,1-1.5,1.9-.4.9-.6,2.1-.6,3.7v37.3h-6.5v-37.3h0Z"/>
        <path class="st2" d="M582.1,94.3c.3,2.8,1,5,2,6.8,1.1,1.7,2.3,3,3.7,4s2.8,1.6,4.2,1.9c1.5.3,2.7.5,3.7.5s2.3-.2,3.4-.5c1.1-.3,2.1-.8,3-1.4.8-.6,1.5-1.4,2.1-2.4.5-1,.8-2.1.8-3.3s-.6-3.3-1.8-4.6c-1.2-1.3-2.7-2.6-4.5-3.7-1.8-1.1-3.8-2.3-5.8-3.3s-4-2.3-5.8-3.6c-1.8-1.3-3.3-2.8-4.5-4.5-1.2-1.7-1.8-3.7-1.8-6s.3-3.4,1-4.9c.7-1.5,1.7-2.8,2.9-3.9,1.2-1.1,2.7-1.9,4.3-2.5,1.6-.6,3.3-.9,5.1-.9s2.4.2,3.5.4c1,.3,2,.6,2.8.9.4.2.9.5,1.5.9.6.4,1.2.8,1.8,1.2.7.3,1.4.6,2.1.7.8,0,1.5-.1,2.4-.7l-.2,12.6h-1.3c-.1-1.8-.5-3.5-1.2-5.2-.6-1.6-1.5-3-2.6-4.2-1.1-1.2-2.5-2.1-4-2.8-1.5-.7-3.3-1.1-5.2-1.1s-2,.2-2.9.5c-1,.3-1.8.8-2.6,1.5-.8.7-1.3,1.4-1.8,2.3-.5.9-.7,1.8-.7,2.8,0,1.6.6,3.1,1.9,4.3,1.3,1.2,2.9,2.4,4.7,3.5,1.9,1.1,4,2.2,6.2,3.2,2.2,1.1,4.3,2.3,6.2,3.6,1.9,1.3,3.5,2.8,4.7,4.5,1.3,1.7,1.9,3.6,1.9,5.9s-.3,3.5-1.1,5.1c-.7,1.6-1.8,3-3.1,4.3-1.3,1.2-2.9,2.2-4.8,2.9-1.8.7-3.9,1.1-6.1,1.1s-3-.2-4.2-.4c-1.2-.3-2.2-.6-3.1-.9-.5-.2-.9-.4-1.3-.7-.4-.3-.9-.6-1.5-.9-.6-.3-1.3-.5-2.2-.7-.9-.2-2-.3-3.3-.3v-11.8h1.3Z"/>
        <path class="st2" d="M622.2,62.9h6.5v46.1h-6.5v-46.1Z"/>
        <path class="st2" d="M645,71.8c0-1.4,0-2.7-.1-3.6,0-1-.3-1.8-.7-2.4-.4-.6-1.1-1-1.9-1.2-.9-.2-2.2-.3-3.8-.3v-1.3h17.8c1.6,0,3.2,0,4.9,0,1.7,0,3.4.2,5.1.5,1.7.2,3.3.6,4.9,1.1,1.6.5,3.1,1.2,4.4,2.1,1.6,1.1,2.9,2.3,4.1,3.7,1.2,1.4,2.1,2.9,2.9,4.6.8,1.7,1.3,3.4,1.7,5.2.4,1.8.6,3.7.6,5.5,0,3.2-.5,6.1-1.5,8.9-1,2.8-2.6,5.3-4.7,7.4-2.1,2.1-4.7,3.8-7.8,5.1-3.1,1.2-6.8,1.8-10.9,1.8h-14.9v-37.3h0ZM651.5,105.6c1.2.3,2.4.5,3.6.7s2.4.2,3.6.2c3,0,5.6-.6,7.9-1.7,2.3-1.1,4.2-2.6,5.7-4.4s2.7-4.1,3.5-6.6c.8-2.5,1.2-5.1,1.2-7.9s-.4-5.5-1.2-8c-.8-2.5-2-4.7-3.5-6.5-1.6-1.9-3.5-3.3-5.8-4.4-2.3-1.1-5-1.6-8-1.6-1.4.2-2.6.6-3.5,1.2-.9.6-1.7,1.5-2.4,2.9-.7,1.3-1.1,3.2-1.1,5.7v30.5Z"/>
        <path class="st2" d="M734.9,71.8c0-1.4,0-2.7,0-3.6,0-1-.3-1.8-.7-2.4-.4-.6-1.1-1-2-1.2-.9-.2-2.1-.3-3.8-.3v-1.3h17.8c1.6,0,3.2,0,4.9,0,1.7,0,3.4.2,5,.5,1.7.2,3.3.6,4.9,1.1s3.1,1.2,4.4,2.1c1.6,1.1,3,2.3,4.1,3.7,1.2,1.4,2.1,2.9,2.9,4.6.8,1.7,1.3,3.4,1.7,5.2.4,1.8.6,3.7.6,5.5,0,3.2-.5,6.1-1.5,8.9-1,2.8-2.6,5.3-4.7,7.4-2.1,2.1-4.7,3.8-7.8,5.1-3.1,1.2-6.8,1.8-10.9,1.8h-14.9v-37.3h0ZM741.5,105.6c1.2.3,2.4.5,3.6.7,1.2.2,2.4.2,3.6.2,3,0,5.6-.6,7.9-1.7,2.3-1.1,4.2-2.6,5.7-4.4,1.5-1.9,2.7-4.1,3.5-6.6.8-2.5,1.2-5.1,1.2-7.9s-.4-5.5-1.2-8c-.8-2.5-2-4.7-3.5-6.5-1.6-1.9-3.5-3.3-5.8-4.4-2.3-1.1-5-1.6-8-1.6-1.4.2-2.6.6-3.5,1.2-.9.6-1.7,1.5-2.4,2.9-.7,1.3-1.1,3.2-1.1,5.7v30.5h0Z"/>
        <path class="st2" d="M413.4,62.8h0s-3,0-3,0v34.6h-.1l-.3-.3h0s-27.8-34.2-27.8-34.2h0s-3.4,0-3.4,0v46.2h2.6s.5,0,.5,0v-35.5h0v-.9h.1l30.3,37.1h.8s1.3,0,1.3,0v-39.1c0-1.3,0-2.3.1-3.2,0-.9.3-1.6.7-2.1.4-.5,1-.9,1.7-1.1.8-.2,1.4-.3,2.8-.3v-1.1h-6.2Z"/>
        <path class="st2" d="M709.5,61.9h-1.3l-20.8,47.2h11.5v-1.2c-.6,0-1.3-.1-1.9-.2-.6,0-1.2-.2-1.7-.4-.5-.2-.9-.5-1.3-.9-.3-.4-.5-.9-.5-1.5s.2-1.4.6-2.4c.3-.7.5-1.3.7-1.8h0l.3-.6,2.7-6.3h17.9l6.2,15.5h6.1l-18.6-47.2h0ZM698.9,91.1l8-18.6,7.9,18.6h-15.9Z"/>
      </g>
      <g>
        <path class="st2" d="M518.3,167.1c.4,3.6,1.2,6.6,2.6,8.8,1.4,2.2,3,4,4.8,5.2,1.8,1.2,3.6,2,5.5,2.4,1.9.4,3.5.6,4.9.6s3-.2,4.5-.6c1.5-.4,2.7-1,3.9-1.8,1.1-.8,2-1.9,2.7-3.1.7-1.2,1-2.7,1-4.3,0-2.3-.8-4.3-2.3-6-1.5-1.7-3.5-3.3-5.8-4.8-2.4-1.5-4.9-2.9-7.6-4.4s-5.2-3-7.6-4.7c-2.4-1.7-4.3-3.7-5.9-5.9-1.5-2.2-2.3-4.8-2.3-7.8s.5-4.4,1.4-6.4c.9-1.9,2.2-3.6,3.8-5,1.6-1.4,3.5-2.5,5.5-3.3,2.1-.8,4.3-1.2,6.7-1.2s3.1.2,4.5.5c1.4.4,2.6.8,3.7,1.2.6.2,1.2.7,1.9,1.2.7.5,1.5,1,2.4,1.5.9.5,1.8.8,2.8.9,1,.1,2-.2,3.1-.9l-.3,16.4h-1.6c-.2-2.4-.7-4.6-1.5-6.7-.8-2.1-2-4-3.4-5.5-1.5-1.6-3.2-2.8-5.2-3.7-2-.9-4.2-1.4-6.7-1.4s-2.5.2-3.8.7c-1.3.4-2.4,1.1-3.4,1.9-1,.9-1.8,1.9-2.4,3-.6,1.2-.9,2.4-.9,3.7,0,2.1.8,4,2.5,5.6,1.7,1.6,3.7,3.1,6.2,4.5,2.5,1.4,5.1,2.8,8,4.2,2.9,1.4,5.6,2.9,8,4.7,2.5,1.7,4.5,3.7,6.2,5.9,1.7,2.2,2.5,4.8,2.5,7.7s-.5,4.6-1.4,6.7c-.9,2.1-2.3,3.9-4,5.6-1.7,1.6-3.8,2.9-6.2,3.8-2.4.9-5,1.4-7.9,1.4s-3.9-.2-5.5-.5c-1.5-.4-2.9-.8-4.1-1.2-.6-.2-1.2-.6-1.7-.9s-1.2-.8-2-1.2c-.8-.4-1.7-.6-2.8-.9-1.1-.2-2.5-.4-4.3-.4v-15.4h1.6,0Z"/>
        <path class="st2" d="M578.5,153.3h16.7c1.3,0,2.4-.1,3.3-.3.9-.2,1.5-.6,1.9-1.2.4-.6.6-1.4.6-2.5h1.6v12.5h-1.6c0-1.4-.2-2.6-.6-3.3-.4-.8-1-1.3-1.9-1.6-.9-.3-2-.4-3.3-.4h-16.8v16.1c0,.9,0,2,.1,3.2,0,1.2.5,2.4,1.1,3.5.6,1.1,1.7,2,3.1,2.7,1.4.7,3.4,1.1,6,1.1h6.9c2,0,3.7-.2,5-.6,1.4-.4,2.5-1.1,3.5-2.1,1-1,1.8-2.2,2.5-3.7.7-1.5,1.3-3.3,1.9-5.4h2.6l-3.2,15.1h-38.1v-48.6c0-1.9,0-3.4-.1-4.7,0-1.3-.4-2.3-1-3.1-.5-.8-1.4-1.3-2.5-1.6-1.2-.3-2.8-.4-4.9-.4v-1.7h46.2l.8,13.2h-1.8c-.4-2.3-.9-4.1-1.5-5.4-.6-1.3-1.3-2.3-2.3-2.9-1-.7-2.2-1.1-3.6-1.3-1.4-.2-3.2-.3-5.3-.3h-15.3v23.8h0Z"/>
        <path class="st2" d="M625.5,137.8c0-1.9,0-3.4-.1-4.7,0-1.3-.4-2.3-1-3.1-.5-.8-1.4-1.3-2.5-1.6-1.2-.3-2.8-.4-4.9-.4v-1.7h27.8c4.2,0,7.8.4,10.8,1.3,3,.9,5.4,2.1,7.2,3.6,1.8,1.5,3.2,3.2,4,5.2.9,1.9,1.3,3.9,1.3,6.1,0,3.3-1,6.1-3.1,8.4-2,2.3-4.6,3.9-7.5,4.7v.2c1.8.2,3.4.8,5,1.5,1.6.7,3,1.7,4.3,2.9,1.3,1.2,2.3,2.6,3,4.2.8,1.6,1.1,3.4,1.1,5.3s-.3,2.9-.8,4.9c-.5,1.9-1.6,3.7-3.2,5.5-1.6,1.8-4,3.2-7.1,4.5-3,1.2-7.1,1.9-12.1,1.9h-22.3v-48.6h0ZM634,181.9c3.2.8,6.6,1.2,10.3,1.2s3.9-.2,5.8-.7c1.9-.5,3.7-1.2,5.3-2.2,1.6-1,2.9-2.3,3.9-3.9,1-1.6,1.5-3.5,1.5-5.7s-.6-4.9-1.7-6.7c-1.1-1.8-2.6-3.2-4.4-4.3-1.8-1.1-3.9-1.8-6.1-2.2-2.3-.4-4.5-.6-6.8-.5l-7.7.3v24.7c0,0,0,0,0,0ZM651.8,152.6c1.9-.9,3.4-1.9,4.5-3.2,1-1.3,1.7-2.6,2-3.9.3-1.4.5-2.5.5-3.4,0-2.4-.5-4.4-1.5-5.9-1-1.6-2.3-2.9-4-4-1.6-1-3.5-1.8-5.5-2.2-2-.4-4-.7-6-.7-1.6,0-2.9.5-3.9,1.3-1,.8-1.9,2.1-2.7,4.1-.8,1.9-1.2,4.7-1.2,8.5v10.8h10c3.3.1,5.9-.4,7.8-1.2h0Z"/>
        <path class="st2" d="M734.2,167.1c.4,3.6,1.2,6.6,2.6,8.8,1.4,2.2,3,4,4.8,5.2,1.8,1.2,3.6,2,5.5,2.4,1.9.4,3.5.6,4.9.6s3-.2,4.4-.6c1.5-.4,2.7-1,3.9-1.8,1.1-.8,2-1.9,2.7-3.1.7-1.2,1-2.7,1-4.3,0-2.3-.8-4.3-2.3-6-1.5-1.7-3.5-3.3-5.9-4.8-2.4-1.5-4.9-2.9-7.6-4.4s-5.2-3-7.6-4.7c-2.4-1.7-4.3-3.7-5.8-5.9-1.5-2.2-2.3-4.8-2.3-7.8s.5-4.4,1.4-6.4c.9-1.9,2.2-3.6,3.8-5,1.6-1.4,3.4-2.5,5.5-3.3,2.1-.8,4.3-1.2,6.7-1.2s3.1.2,4.5.5c1.3.4,2.6.8,3.7,1.2.5.2,1.2.7,1.9,1.2.7.5,1.5,1,2.4,1.5.9.5,1.8.8,2.8.9,1,.1,2-.2,3.1-.9l-.3,16.4h-1.6c-.2-2.4-.7-4.6-1.5-6.7-.8-2.1-2-4-3.4-5.5-1.5-1.6-3.2-2.8-5.2-3.7-2-.9-4.2-1.4-6.7-1.4s-2.5.2-3.8.7c-1.3.4-2.4,1.1-3.4,1.9-1,.9-1.8,1.9-2.4,3-.6,1.2-.9,2.4-.9,3.7,0,2.1.8,4,2.5,5.6,1.7,1.6,3.7,3.1,6.2,4.5s5.1,2.8,8,4.2c2.9,1.4,5.6,2.9,8,4.7,2.5,1.7,4.5,3.7,6.2,5.9,1.7,2.2,2.5,4.8,2.5,7.7s-.5,4.6-1.4,6.7c-1,2.1-2.3,3.9-4,5.6-1.7,1.6-3.8,2.9-6.2,3.8-2.4.9-5,1.4-8,1.4s-3.9-.2-5.5-.5-2.9-.8-4.1-1.2c-.6-.2-1.2-.6-1.7-.9-.5-.4-1.2-.8-2-1.2-.8-.4-1.7-.6-2.8-.9-1.1-.2-2.5-.4-4.3-.4v-15.4h1.7Z"/>
        <path class="st2" d="M798.6,130h-5.1c-5,0-8.4.7-10.3,2.2-1.7,1.3-3,4.4-4.1,9.4h-2.2l.5-15.4h51.2l.5,15.4h-2.2c-1.1-5-2.5-8.1-4.1-9.4-1.6-1.4-5.1-2.2-10.4-2.2h-5v56.3h-9.1v-56.3h0Z"/>
        <path class="st2" d="M841,126.2h8.5v60.2h-8.5v-60.2Z"/>
        <path class="st2" d="M968.1,126.2h0s-3.9,0-3.9,0v45h-.2l-.4-.5h0s-36.2-44.5-36.2-44.5h0c0,0-4.5,0-4.5,0v60.2h4v-47.3h.1l39.4,48.3h2.8v-50.9c0-1.7,0-3.1.1-4.2,0-1.1.4-2.1.8-2.7.5-.7,1.2-1.2,2.2-1.4,1-.3,1.8-.4,3.7-.4v-1.4h-8.1Z"/>
        <path class="st2" d="M398,124.9h-1.6l-27.1,61.5h15v-1.6c-.8,0-1.7-.1-2.5-.3-.8-.1-1.6-.3-2.2-.6-.7-.3-1.2-.6-1.6-1.1-.4-.5-.6-1.1-.6-2s.3-1.9.8-3.1c.4-.9.7-1.7,1-2.4h0l.3-.8,3.5-8.3h23.4l8.1,20.2h8l-24.3-61.5h0ZM384.2,162.9l10.5-24.3,10.3,24.3h-20.8Z"/>
        <path class="st2" d="M478,126.2h-3.9v45h-.2l-.4-.5h0s-36.2-44.5-36.2-44.5h0s-4.5,0-4.5,0v60.2h3.9v-47.3h.2l39.4,48.4h2.8v-50.9c0-1.7,0-3.1.1-4.2s.4-2.1.9-2.7c.5-.7,1.2-1.2,2.2-1.4,1-.3,1.8-.4,3.7-.4v-1.5h-8Z"/>
        <path class="st2" d="M704.4,124.7h-1.6l-27.1,61.5h15v-1.6c-.8,0-1.7-.1-2.5-.3-.8-.1-1.6-.3-2.2-.6-.7-.2-1.2-.6-1.6-1.1-.4-.5-.6-1.2-.6-2s.2-1.9.8-3.1c.4-.9.7-1.7,1-2.4h0l.3-.8,3.5-8.3h23.3l8.1,20.2h8l-24.2-61.5h0ZM690.7,162.8l10.5-24.2,10.2,24.2h-20.7Z"/>
        <path class="st2" d="M327.8,167.1c.4,3.6,1.2,6.6,2.6,8.8,1.4,2.2,3,4,4.8,5.2,1.8,1.2,3.6,2,5.5,2.4,1.9.4,3.5.6,4.9.6s3-.2,4.5-.6c1.5-.4,2.7-1,3.9-1.8s2-1.9,2.7-3.1c.7-1.2,1-2.7,1-4.3,0-2.3-.8-4.3-2.3-6-1.5-1.7-3.5-3.3-5.9-4.8-2.4-1.5-4.9-2.9-7.6-4.4s-5.2-3-7.6-4.7c-2.4-1.7-4.3-3.7-5.9-5.9-1.5-2.2-2.3-4.8-2.3-7.8s.5-4.4,1.4-6.4c.9-1.9,2.2-3.6,3.8-5,1.6-1.4,3.5-2.5,5.5-3.3,2.1-.8,4.3-1.2,6.7-1.2s3.1.2,4.5.5c1.4.4,2.6.8,3.7,1.2.5.2,1.2.6,1.9,1.2.7.5,1.5,1,2.4,1.5.9.5,1.8.8,2.8.9,1,.1,2-.2,3.1-.9l-.3,16.4h-1.6c-.2-2.4-.7-4.6-1.5-6.7-.8-2.1-2-4-3.4-5.5-1.4-1.6-3.2-2.8-5.2-3.7-2-.9-4.2-1.4-6.7-1.4s-2.5.2-3.8.7c-1.3.4-2.4,1.1-3.4,1.9-1,.9-1.8,1.9-2.4,3-.6,1.2-.9,2.4-.9,3.7,0,2.1.8,4,2.5,5.6,1.7,1.6,3.7,3.1,6.2,4.5s5.1,2.8,8,4.2c2.9,1.4,5.6,2.9,8,4.7,2.5,1.7,4.5,3.7,6.2,5.9,1.7,2.2,2.5,4.8,2.5,7.7s-.5,4.6-1.4,6.7c-1,2.1-2.3,3.9-4,5.6-1.7,1.6-3.8,2.9-6.2,3.8-2.4.9-5,1.4-7.9,1.4s-4-.2-5.5-.5c-1.5-.4-2.9-.8-4.1-1.2-.6-.2-1.2-.6-1.7-.9-.5-.4-1.2-.8-2-1.2-.8-.4-1.7-.6-2.8-.9-1.1-.2-2.5-.4-4.3-.4v-15.4h1.7Z"/>
        <path class="st2" d="M897.2,166.1h-23.4l-3.5,8.5c-.3.8-.7,1.8-1.2,3-.5,1.2-.8,2.2-.8,3.1s.2,1.5.6,2c.4.5,1,.9,1.6,1.1.7.3,1.4.5,2.2.6s1.7.2,2.5.3v1.6h-15l27.1-61.6h1.6l24.3,61.6h-8l-8.1-20.2h0ZM885.7,138.5l-10.5,24.3h20.7l-10.3-24.3h0Z"/>
      </g>
    </g>
  </g>
</svg>