<?xml version="1.0" encoding="UTF-8"?>
<svg id="Capa_1" xmlns="http://www.w3.org/2000/svg" version="1.1" viewBox="0 0 987.17 313.31">
  <!-- Generator: Adobe Illustrator 29.0.0, SVG Export Plug-In . SVG Version: 2.1.0 Build 186)  -->
  <g>
    <rect x="330.43" y="216.04" width="6.75" height="59.92" fill="#fff"/>
    <rect x="347.04" y="231.14" width="6.55" height="44.82" fill="#fff"/>
    <path d="M387.06,258.93c0,7.04-3.92,11.25-10.48,11.25-5.98,0-9.13-3.4-9.13-9.84v-20.11h-6.55v20.56c0,9.7,5.7,15.5,15.24,15.5,4.51,0,8.42-1.6,11.12-4.47v4.15h6.36v-35.74h-6.55v18.7Z" fill="#fff"/>
    <path d="M445.66,239.97c-5.63,0-10.36,2.21-13.24,6.12-2.39-3.96-6.62-6.12-12.09-6.12-4.71,0-8.65,1.55-11.38,4.43v-4.17h-6.36v35.74h6.55v-18.7c0-7,3.85-11.19,10.29-11.19,5.72,0,8.75,3.38,8.75,9.78v20.11h6.55v-18.7c0-7,3.85-11.19,10.29-11.19,5.68,0,8.69,3.38,8.69,9.78v20.11h6.55v-20.56c0-9.81-5.32-15.43-14.6-15.43Z" fill="#fff"/>
    <path d="M472.14,226.37c-2.39,0-4.34,1.89-4.34,4.21s1.94,4.27,4.34,4.27,4.34-1.9,4.34-4.34c0-2.28-1.94-4.14-4.34-4.14Z" fill="#fff"/>
    <rect x="468.83" y="240.22" width="6.55" height="35.74" fill="#fff"/>
    <path d="M503.76,239.97c-4.93,0-9.02,1.58-11.83,4.51v-4.26h-6.36v35.74h6.55v-18.7c0-7,4.04-11.19,10.8-11.19,5.98,0,9.13,3.38,9.13,9.78v20.11h6.56v-20.56c0-9.66-5.55-15.43-14.85-15.43Z" fill="#fff"/>
    <path d="M541.27,239.97c-5.55,0-10.79,1.75-14.37,4.79l-.65.55,3.11,5.15.9-.79c2.64-2.33,6.59-3.73,10.56-3.73,5.68,0,8.56,2.66,8.56,7.92v1.05h-9.71c-12.2,0-14.02,6.61-14.02,10.56,0,6.57,5.23,10.81,13.32,10.81,4.44,0,8.11-1.3,10.61-3.72v3.39h6.36v-21.91c0-9.08-5.21-14.08-14.66-14.08ZM549.38,260.31v4.32c-1.68,3.97-5.04,6.06-9.71,6.06s-7.53-1.95-7.53-5.35c0-2.16.79-5.03,7.66-5.03h9.58Z" fill="#fff"/>
    <path d="M598.74,239.97c-10.13,0-17.48,7.62-17.48,18.13s7.69,18.19,18.7,18.19c5.71,0,10.61-2.09,13.79-5.87l.55-.65-3.88-4.46-.75.87c-2.32,2.67-5.63,4.08-9.57,4.08-6.49,0-11.25-3.87-12.16-9.74h28.1v-1c0-.25.02-.5.03-.74.02-.25.03-.47.03-.67,0-10.67-7.14-18.13-17.36-18.13ZM598.74,245.88c5.68,0,9.92,3.66,10.86,9.22h-21.66c.93-5.56,5.15-9.22,10.8-9.22Z" fill="#fff"/>
    <rect x="621.59" y="233.04" width="6.55" height="42.92" fill="#fff"/>
    <path d="M669.35,231.9c1.72,0,3.27.51,4.36,1.43l1.01.86,2.4-5.3-.58-.49c-1.77-1.5-4.46-2.35-7.38-2.35-6.91,0-11.2,4.22-11.2,11.01v3.17h-6.03v5.85h6.03v29.89h6.55v-29.89h10.26v-5.85h-10.39v-2.98c0-3.6,1.62-5.35,4.97-5.35Z" fill="#fff"/>
    <path d="M705.54,258.93c0,7.04-3.92,11.25-10.48,11.25-5.98,0-9.13-3.4-9.13-9.84v-20.11h-6.55v20.56c0,9.7,5.7,15.5,15.24,15.5,4.51,0,8.42-1.6,11.12-4.47v4.15h6.36v-35.74h-6.55v18.7Z" fill="#fff"/>
    <path d="M740.12,268.9c-1.04.94-2.62,1.47-4.33,1.47-3.21,0-4.84-1.74-4.84-5.16v-19.14h10.26v-5.85h-10.26v-7.38h-6.55v7.38h-6.03v5.85h6.03v19.4c0,6.77,4.07,10.81,10.88,10.81,3.08,0,5.92-.96,7.79-2.63l.57-.5-2.52-5.14-.98.89Z" fill="#fff"/>
    <path d="M772.43,258.93c0,7.04-3.92,11.25-10.48,11.25-5.98,0-9.13-3.4-9.13-9.84v-20.11h-6.55v20.56c0,9.7,5.7,15.5,15.24,15.5,4.51,0,8.42-1.6,11.12-4.47v4.15h6.36v-35.74h-6.55v18.7Z" fill="#fff"/>
    <path d="M806.95,246.39v-6.43h-1c-5.09,0-9.04,1.54-11.64,4.5v-4.25h-6.36v35.74h6.55v-18.19c0-7.27,3.77-11.44,10.35-11.44.13,0,.27.01.41.03.22.02.45.04.68.04h1Z" fill="#fff"/>
    <path d="M824.1,239.97c-10.54,0-18.19,7.62-18.19,18.13s7.65,18.19,18.19,18.19,18.13-7.65,18.13-18.19-7.62-18.13-18.13-18.13ZM824.1,270.24c-6.81,0-11.57-5-11.57-12.15s4.76-12.15,11.57-12.15,11.51,5,11.51,12.15-4.73,12.15-11.51,12.15Z" fill="#fff"/>
  </g>
  <g>
    <g>
      <path d="M158.02,7.27C75.77,7.27,9.1,73.94,9.1,156.19s66.67,148.92,148.92,148.92,148.92-66.67,148.92-148.92S240.27,7.27,158.02,7.27ZM158.02,297.95c-78.29,0-141.76-63.47-141.76-141.76S79.73,14.43,158.02,14.43s141.76,63.47,141.76,141.76-63.47,141.76-141.76,141.76Z" fill="#102b42"/>
      <circle cx="158.02" cy="156.19" r="141.76" fill="#c6b27e"/>
      <g>
        <g>
          <g>
            <polygon points="124.9 218.28 131.15 218.28 128.03 228.01 124.9 218.28" fill="#102b42"/>
            <polygon points="131.15 237.73 124.9 237.73 128.03 228.01 131.15 237.73" fill="#102b42"/>
            <polygon points="118.3 231.28 118.3 225.03 128.03 228.15 118.3 231.28" fill="#102b42"/>
            <polygon points="137.75 225.03 137.75 231.28 128.03 228.15 137.75 225.03" fill="#102b42"/>
          </g>
          <g>
            <polygon points="152.95 217.95 159.21 217.95 156.08 227.67 152.95 217.95" fill="#102b42"/>
            <polygon points="159.21 237.39 152.95 237.39 156.08 227.67 159.21 237.39" fill="#102b42"/>
            <polygon points="146.36 230.94 146.36 224.69 156.08 227.82 146.36 230.94" fill="#102b42"/>
            <polygon points="165.8 224.69 165.8 230.94 156.08 227.82 165.8 224.69" fill="#102b42"/>
          </g>
          <g>
            <polygon points="180.83 218.41 187.08 218.41 183.96 228.13 180.83 218.41" fill="#102b42"/>
            <polygon points="187.08 237.86 180.83 237.86 183.96 228.13 187.08 237.86" fill="#102b42"/>
            <polygon points="174.23 231.4 174.23 225.15 183.96 228.28 174.23 231.4" fill="#102b42"/>
            <polygon points="193.68 225.15 193.68 231.4 183.96 228.28 193.68 225.15" fill="#102b42"/>
          </g>
        </g>
        <path d="M163.99,179.47c0,.11.05.19.05.27.14,2.35.19,4.86.38,7.13.16,1.86.4,3.62.92,5.21.67,2.03,1.57,3.76,2.86,5.27,1.3,1.49,2.81,2.67,4.46,3.73l17.83,11.97c.17.42-.11.55-.11.55h-8.54c-.72,0-.92-.34-.92-.34-1.37-.76-5.53-4.15-8.34-5.78,0,0-11.37-8.2-11.65,6.06l-8.03.08-.03-.15s-.64-14.53-12.93-6.28l-9.01,5.58-1.55.93h-9.15s-.26-.94.53-1.5c0,0,13.12-6.69,15.71-8.77.62-.54,4.95-4.02,5.54-4.61,1.11-1.11,2.13-2.4,3.02-3.76.43-.67.81-1.43,1.19-2.19.38-.76.76-1.51,1.05-2.35.76-2.05,1.33-4.3,1.46-7.02,0-.51.05-1.02.11-1.59.03-.54.03-1.3.08-1.84.03-.42.05-.86.07-1.31h0c.05-2.18.07-4.32.07-6.4.01-1.1.04-2.08.09-2.92.12-2.09-2.71-3.93-2.71-3.93l-4.19-2.79s-4.72,5.83-10.57,8.36c.18.24.48.42.77.52.39.15.81.21,1.19.37.83.35,1.44,1.19,1.52,2.09.02.21,0,.42-.05.62-.21.73-1.09,1.14-1.83.96-.03,0-.06-.02-.09-.03-1.64-.8-1.42-1.93-1.57-2.99-.07-.48-.23-.97-.6-1.28-1.36.52-2.78.85-4.2.87-.7,0-1.39,0-2.03-.02-.03.15-.05.38.04.64.28.77,1.3.65,2.5,1.4,1.28.8,1.02,1.49,2.05,1.8.74.22,1.14-.06,2.04.35.28.13.66.32.95.72.3.41.38.95.33,1.46-.06.63-.31,1.27-.83,1.63-.3.22-.67.32-1.04.35-.81.06-1.65-.26-2.16-.89-.51-.63-.64-1.56-.28-2.28.05-.1.11-.19.13-.29.05-.25-.09-.49-.24-.7-.85-1.2-2.04-2.29-3.5-2.51-.09.42-.1.85-.01,1.27.03.15.07.3.16.42.16.23.44.33.7.45.66.3,1.28.81,1.45,1.51.16.65-.09,1.33-.44,1.89-.16.26-.3.4-.58.5-.16.06-.53.17-.69.17-.5,0-.86-.02-1.33-.18-.08-.03-.83-.31-1.13-.92-.38-.75.09-1.67.17-1.82.38-.71,1-.95,1.17-1.88,0-.05.02-.09.02-.14.02-.9-.07-1.8-.41-2.64-.05-.12-.11-.24-.14-.36-.58-.03-1.12-.08-1.6-.13-.28.48-.82.87-1.25,1.14-.57.37-1.17.7-1.78.98.2.83-.16,1.77-.87,2.24s-1.72.45-2.4-.06c-.33-.25-.58-.59-.77-.96-.19-.38-.32-.81-.25-1.22.12-.71.81-1.24,1.52-1.35.72-.12,1.45.1,2.11.39.16.07.31.14.48.15.15,0,.29-.03.44-.08.61-.18,1.28-.4,1.76-.84.15-.14.25-.31.34-.47-.61-.07-1.1-.15-1.46-.2-.17,0-.33.02-.49.05-.32.06-.63.18-.94.29-.67.22-1.43.32-2.07,0-.45-.23-.79-.67-.9-1.17-.1-.5.03-1.04.35-1.43.36-.44,1.03-.48,1.53-.3.41.15.77.42,1.11.7.2.16.41.4.63.58.07.06.14.1.22.14.24.12.57.14.83.22.06.02.17.05.3.1.47.08,1.08.17,1.78.23-.13-.31-.23-.62-.28-.71-.07-.12-.14-.23-.25-.31-.22-.15-.52-.08-.79-.03-.81.13-1.69-.1-2.28-.68-.58-.58-.81-1.52-.48-2.27.33-.75,1.26-1.21,2.04-.95.41.14.75.44,1,.79.36.5.58,1.11.6,1.73.01.27,0,.54.07.79.2.67.62.93,1.23,1.66.03.03.05.04.06.06,1.29.07,2.8.04,4.37-.21-.18-.37-.31-.82-.38-.94-.07-.12-.14-.24-.25-.31-.22-.15-.52-.08-.79-.03-.81.13-1.69-.1-2.28-.68-.58-.58-.81-1.52-.48-2.27.33-.75,1.26-1.21,2.04-.96.41.14.75.44,1,.79.36.5.57,1.11.6,1.73,0,.27,0,.54.07.79l1.32,1.71c.1-.02.23-.05.39-.09.15-.04.3-.07.46-.12,1.44-.39,2.69-1.16,3.78-2.09.02-.17.04-.32-.07-.45-.1-.12-.26-.15-.41-.17-.51-.08-.99-.12-1.44-.38-.28-.16-.57-.39-.8-.62-.68-.71-1.33-1.45-1.95-2.22-.29.2-.66.25-1.01.2-.35-.05-.68-.19-.99-.35-.36-.18-.71-.4-.95-.72-.3-.41-.38-.95-.33-1.46.06-.63.31-1.27.82-1.63.3-.22.67-.32,1.04-.35.81-.06,1.65.26,2.16.89.51.63.65,1.56.28,2.28-.05.09-.11.19-.13.29-.06.25.09.5.24.7.85,1.2,2.04,2.29,3.5,2.51.09-.42.1-.85.01-1.27-.03-.15-.07-.3-.16-.42-.16-.23-.44-.33-.7-.45-.66-.3-1.27-.81-1.45-1.51-.15-.63-.02-1.37.44-1.89.73-.83,1.84-.67,2.08-.63.23.03,1.06.16,1.53.86.27.4.29.82.3,1.02.07,1.42-1.21,2.62-1.38,2.73-.06.04-.12.08-.15.15-.02.04-.02.09-.02.14-.01.71.04,1.42.23,2.1,2.98-2.95,4.46-6.99,4.46-6.99,0,0-2.48-1.51-12.41-3.67-9.94-2.16-15.36-10.85-15.36-10.85-.68-1.13-1.59-2.41-2.82-3.69-2.82-2.93-5.9-4.42-7.9-5.17.01.58.1,1.04.16,1.33,0,0,.43,1.9,2.46,3.7.03.03.12.1.23.11.08,0,.16-.03.24-.06.6-.23,1.3-.21,1.89.06.91.42,1.81,1.82,1.5,2.85-.12.41-.45.73-.81.94-.65.38-1.49.47-2.15.11-1.17-.65-1.14-2.05-1.07-3.2,0-.07,0-.15-.03-.21-.02-.04-.07-.07-.11-.1-.29-.2-.96-.79-1.32-.79-.37,0-.69.63-.82.92-.23.52-.4,1.14-.11,1.63.12.2.3.34.46.51.67.67,1.1,1.58,1.17,2.53.05.66-.1,1.39-.61,1.82-.33.28-.77.4-1.2.43-.35.02-1.41.05-2.19-.77-.7-.74-.95-1.94-.52-2.72.45-.82,1.46-.82,1.72-1.74.09-.33.05-.62,0-.81-1.16.29-2.53.79-3.66,1.17-.33.11-.68.23-.92.49-.7.75-.07,1.98-.26,2.98-.2,1.09-1.46,1.78-2.56,1.59-1.1-.19-1.98-1.07-2.45-2.07-.32-.69-.47-1.55-.18-2.28.37-.9,1.27-1.28,2.17-1.48.65-.15,1.37-.11,1.95.22.08.04.16.09.25.1.07,0,.14-.02.21-.04.68-.22,1.33-.47,2.01-.67,1.1-.33,2.25-.6,3.32-1.02.72-.28,1.15-1.37,1.1-2.27-.03-.56-.28-.76-.55-1.78-.17-.65-.31-1.21-.34-1.56-.69-.03-1.39-.02-2.23.04-.53.04-1.03.1-1.49.18-.07.08-.58.7-.82,1.19-.07.15-.1.29-.14.46-.03.14.01.23.02.38.02.33.02.66-.05.99-.15.68-.49,1.3-.85,1.89-.26.43-.63.81-1.09,1-.88.37-1.99-.09-2.44-.93-.54-1.01-.11-2.11.35-2.67.5-.6,1.17-.8,1.26-.82,1.05-.29,2,.25,2.29-.19.01-.02.07-.17.16-.47.06-.19.13-.41.2-.63-.85.02-2.18.16-3.67.8-1.05.46-1.85,1.02-2.4,1.49-.08.08-.15.16-.21.25-.06.08-.11.17-.12.27,0,.11.06.21.1.31.25.58-.07,1.24-.39,1.79-.68,1.16-1.93,1.77-3.26,1.21-.63-.26-1.13-.82-1.32-1.48-.21-.73.26-1.5.84-1.93.48-.35,1.05-.54,1.62-.7.33-.1.76-.14,1.12-.26.55-.17,1.05-.61,1.56-.87-.1-1.87-.64-2.56-1.13-2.83-.37-.21-.7-.17-1.25-.56-.27-.19-.82-.57-1.04-1.28-.22-.71-.05-1.54.46-2.13.6-.7,1.67-1.05,2.56-.65.88.39,1.14,1.31,1.2,1.53.03.11.23.97-.23,1.72-.28.46-.55.46-.71.83-.14.34-.13.87.41,1.71,1.23-.81,1.84-2.29,2.1-3.74.04-.25.07-.53-.08-.73-.06-.08-.16-.14-.24-.21-.64-.5-.91-1.39-.71-2.18.2-.78.82-1.43,1.58-1.71.35-.13.73-.19,1.09-.13.62.12,1.12.59,1.43,1.13.26.44.41.96.31,1.46-.1.48-.34.8-.56,1.05-.67.79-1.13.67-1.7,1.24-.09.09-.08.1-.94,2.25,0,0-.59,1.47-1.35,2.04-.02.01-.02.02-.04.03-.26.2-.39.3-.43.42-.01.04-.05.19.13.43,0,0,.01,0,.02,0,.16-.09.36-.17.55-.25.03-.02.07-.03.11-.05.06-.03.12-.05.17-.08.06-.03.11-.05.15-.05,2.1-.89,4.77-1.71,7.74-1.92.06-.1.3-.55.15-1.07-.12-.43-.44-.67-.57-.77-.24-.18-.44-.2-.58-.3-.57-.37-1.03-.91-1.2-1.58-.21-.82.09-1.76.78-2.25.69-.48,1.75-.4,2.3.24.29.34.42.78.46,1.22.05.61.07,1.24-.08,1.83-.07.29-.2.55-.35.8-.07.11-.14.16-.17.29-.03.12-.07.24-.07.42,0,.45.14.99.18,1.13.1,0,.21,0,.31,0,2.61-.03,5.47.98,8.1,2.32,0,0-.09-2.82-1.65-4.58-.86-.31-1.68-.73-2.35-1.33-.79-.71-1.37-1.7-1.4-2.77-.02-.69.18-1.41-.02-2.07-.07-.21-.17-.41-.17-.63,0-.5.5-.83.75-1.27.34-.6.17-1.37.43-2.01.27-.67.94-1.06,1.44-1.57.35-.36.78-.83,1.25-.67.27.1.43.37.67.54.42.28,1.03.16,1.42.48.37.3.4.86.7,1.24.29.36.83.52.99.95.11.29.02.63.1.93.11.4.5.67.65,1.06.15.38.03.81.09,1.21.08.53.44,1.01.39,1.54-.05.64-.66,1.08-.86,1.69-.07.2-.08.42-.14.62-.12.44-.4.82-.68,1.19h0c-.07,1.96.18,6.17,3.11,10.85,3.98,6.38,15.3,10.23,22.54,10.48,1.5-3.48,1.33-10.27-2.13-16-.25.15-.51.28-.74.46-.69.52-1,1.36-1.25,2.16-.26.82-.16,1.71-.02,2.54.01.1.03.2.1.28.06.07.15.11.24.14.67.29,1.22.85,1.48,1.53.4,1.05.02,2.89-1.03,3.48-.42.23-.93.24-1.4.12-.82-.2-1.57-.8-1.81-1.61-.43-1.45.69-2.55,1.65-3.42.06-.05.13-.11.15-.19.01-.05,0-.11,0-.16-.08-.39-.15-1.39-.44-1.67-.3-.29-1.05-.03-1.38.1-.59.23-1.22.61-1.37,1.23-.06.25-.03.51-.03.77.02,1.07-.36,2.14-1.05,2.96-.48.57-1.18,1.04-1.93.99-.49-.03-.93-.28-1.3-.6-.68-.58-1.14-1.44-1.16-2.34-.02-.9.42-1.81,1.19-2.28.97-.58,2.19-.39,3.3-.18.19-.51.14-.38.33-.89-1.17-.68-2.35-1.31-3.57-1.9-.36-.17-.74-.35-1.13-.33-1.16.05-1.61,1.54-2.56,2.2-1.02.72-2.57.28-3.31-.73-.73-1.01-.75-2.42-.34-3.6.28-.81.84-1.63,1.65-1.98,1-.43,2.03-.03,2.92.52.64.4,1.19.99,1.4,1.71.03.1.05.2.12.28.05.06.13.1.2.13.72.36,1.44.67,2.15,1.04,1.15.59,2.29,1.29,3.48,1.8.8.34,1.81.14,2.39-.51.35-.39,1.06-1.85,1.41-2.27.23-.28.7-.65,1.05-.75-.47-.66-.97-1.27-1.49-1.83-1.26-.25-2,0-2.44.28-.28.18-.29.21-.72.58-.54.48-1.22.79-1.93.88-.5.07-1.02.03-1.47-.2-.84-.45-1.19-1.59-.83-2.47.36-.88,1.33-1.45,2.28-1.42.95.02,1.85.58,2.39,1.36.13.18.31.56.66.63.19.04.37-.02.68-.12.27-.09.49-.19.63-.26-4.09-3.9-9.27-5.24-10.17-5.45-.3-.07-.56-.06-.56-.06-.41.05-.67.3-.9.48,0,0-.5.39-1.37.67-1.01.32-2.36-.08-3.18-.99-.23-.26-.58-.75-.73-1.46-.17-.82.05-1.71.58-2.36.59-.72,1.7-.79,2.53-.5.59.21,1.33.59,1.83,1.15.21.24.64.79,1.41,1.1.03,0,.05.02.06.02.44.13,1.81.57,3.73,1.51.07-.78-.04-1.56-.23-2.33-.01-.05-.02-.1-.05-.14-.04-.06-.12-.08-.18-.11-.99-.39-1.75-1.31-1.95-2.35-.04-.19-.09-.48,0-.84.23-.94,1.27-1.67,2.3-1.65.16,0,.71.02,1.24.41.54.4.86,1.08.85,1.75-.01.72-.5,1.35-1.07,1.79-.22.17-.47.33-.58.59-.06.14-.06.3-.06.45.01.42.11.85.3,1.23,1.37-.54,2.28-1.85,2.84-3.21.1-.24.18-.51.08-.74-.05-.1-.12-.17-.19-.25-.52-.62-.59-1.55-.24-2.28.35-.72,1.1-1.23,1.9-1.35.37-.06.75-.04,1.09.11.58.24.97.81,1.16,1.4.16.48.2,1.02,0,1.49-.21.47-.54.74-.77.91-.73.55-1.54.6-1.91.6-.41.85-.9,1.52-1.39,2.32-.18.3-.55.73-.81.96-.43.39-.65.58-1.15.78-.14.05-.29.12-.36.26-.11.21.05.45.13.68,1.38.73,2.97,1.7,4.67,2.95.17-.08.46-.25.71-.56.08-.1.26-.32.35-.63.13-.44.03-.83,0-.99-.06-.24-.51-1.84-.08-2.71.42-.84,1.36-1.42,2.29-1.33.93.1,1.76.93,1.76,1.87,0,.49-.21.97-.5,1.37-.41.57-1,1.02-1.66,1.27-.53.2-.56.19-.83.35-.43.26-.92.8-1.17,2,1.1.81,2.29,1.82,3.49,3.07.54.57,1.03,1.13,1.47,1.67.08-.12.18-.3.26-.53.05-.16.11-.32.1-.49-.02-.35-.3-.59-.39-.68-.51-.52-1.02-1.63-.91-2.44.12-.89.8-1.71,1.67-1.92.88-.2,1.89.3,2.18,1.15.15.45.11.95-.03,1.4-.2.65-.59,1.24-1.11,1.67-.4.33-.45.34-.65.58-.35.41-.6,1.04-.53,2.06.91,1.42,1.91,3.24,2.77,5.42.82,2.07,1.32,3.97,1.63,5.56.97-.06,1.81-.92,1.89-1.93.1-1.29,0-2.62.01-3.91,0-.81.05-1.59.07-2.39,0-.08,0-.17-.02-.24-.04-.1-.12-.17-.19-.24-.54-.52-.82-1.28-.87-2.04-.08-1.04.03-2.14.88-2.83.68-.55,1.67-.67,2.51-.55,1.24.18,2.47.84,3.03,1.97.56,1.12.23,2.7-.88,3.28-1.02.53-2.55.25-3.13,1.25-.2.34-.22.76-.23,1.16-.04,1.35-.02,2.69.04,4.04.54.07.41.05.94.12.33-1.08.72-2.26,1.69-2.84.77-.47,1.78-.44,2.57,0,.79.43,1.33,1.24,1.54,2.11.11.47.13.99-.07,1.43-.3.68-1.03,1.09-1.77,1.25-1.04.23-2.17.07-3.11-.44-.23-.12-.45-.27-.7-.33-.62-.15-1.24.23-1.72.65-.27.23-.84.78-.72,1.18.12.38.98.91,1.28,1.16.04.03.09.07.14.08.08.02.16,0,.24-.04,1.22-.45,2.72-.94,3.8.11.61.59.79,1.53.59,2.35-.11.47-.35.92-.75,1.18-1.01.66-2.82.15-3.56-.69-.48-.55-.73-1.29-.68-2.02,0-.09.02-.19-.02-.28-.04-.09-.12-.16-.2-.22-.7-.52-1.46-1.04-2.35-1.17h0c.33,1.74.53,3.27.65,4.38,5.42,1.23,10.13,3.59,10.13,3.59,0,0,1.9-23.69,1.6-29.62,0,0-4.14-5.09-6.76-6.95-2.63-1.86-7.13-5.3-7.13-5.3,0,0-6.93.63-13.13-2.63-.12.09-.25.17-.38.25-.12.07-.24.15-.35.23-.1.08-.16.2-.23.31-.07.1-.05.18-.09.29-.08.26-.17.5-.31.73-.08.13-.48.89-1.16,1.2-.91.4-2.41.03-2.69-.91-.21-.73.38-1.57,1-1.92.55-.31,1.19-.34,1.79-.19.19.05.37.14.56.2.07.02.58.24.62.21.05-.05.14-.16.25-.31.1-.13.21-.29.33-.44-1.48-.85-2.9-1.94-4.16-3.33-.19.18-.41.31-.63.44-.14.09-.29.17-.42.28-.12.1-.19.25-.28.37-.08.12-.06.21-.1.35-.09.31-.2.61-.37.88-.36.57-.87,1.02-1.4,1.44-.38.3-.83.53-1.32.55-.92.04-1.78-.74-1.91-1.65-.14-.91.39-1.86,1.2-2.31.66-.37,1.43-.41,2.16-.23.23.06.44.17.67.24.08.03.69.29.74.25.06-.06.17-.2.31-.37.21-.28.49-.65.76-.93-2.49-2.91-3.87-5.33-4.63-7.19-.08.03-.15.07-.19.15-.07.12-.06.27-.03.41.08.47.12,1.05.03,1.52-.06.29-.11.46-.25.72-.42.8-.88,1.58-1.37,2.34.26.2.41.51.47.83.08.44.02.78-.02.97-.04.17-.37,1.42-1.52,1.75-.12.03-.96.26-1.66-.25-.28-.2-.48-.5-.61-.81-.29-.69-.25-1.51.15-2.14.4-.63,1.17-1.01,1.91-.9.1.01.19.04.29.03.23-.02.4-.22.54-.41.81-1.09,1.41-2.44,1.18-3.78-.39.04-.77.16-1.11.35-.12.07-.24.15-.32.26-.15.21-.16.48-.19.74-.07.66-.34,1.35-.9,1.7-.52.33-1.21.39-1.78.16-.53-.21-.81-.61-.91-.78-.33-.54-.27-1.07-.27-1.34,0-.46.15-.94.48-1.26.18-.18.42-.31.66-.4.92-.34,2-.18,2.78.41.05.04.11.08.17.09.04,0,.09,0,.13-.02.75-.24,1.48-.55,2.09-1.05-.33-.95-.5-1.71-.57-2.29-.19-.68-.04-1.34-.32-2.03-.17-.4-.43-.82-.59-1.19-.27-.63-.52-1.28-.56-1.97-.05-.83.3-1.81,1.11-2.16.72-.32,1.59-.28,2.29.09.5.27.88.63,1.13,1.04.74,1.21.26,2.54.17,2.77-.07.18-.24.65-.66,1.1-.42.46-.72.49-.98.78-.46.5-.4,1.34-.2,2.26.53,2.48,2.05,5.58,2.46,6.41.13-.24.29-.51.42-.74.1-.18.18-.33.21-.4.02-.05-.44-.48-.49-.54-.15-.17-.32-.31-.46-.49-.42-.56-.68-1.24-.6-1.95.09-.86.71-1.67,1.54-1.89.84-.22,1.83.22,2.13,1.03.16.43.14.9.02,1.34-.16.61-.36,1.22-.72,1.74-.17.25-.39.46-.62.65-.1.08-.19.11-.26.22-.11.17-.19.3-.22.38-.32.87-.34.8-.35.93,0,.13-.03.51.8,1.38.37.39.97.93,1.83,1.42.73-.54,1.29-1.05,1.68-1.46,1.39-1.4,1.47-2.08,1.48-2.39,0-1.07-.64-1.29-1.4-2.83-.29-.58-.53-1.17-.81-1.75-.03-.06-.06-.12-.1-.16-.06-.06-.15-.08-.22-.1-.58-.18-1.05-.63-1.36-1.16-.43-.72-.75-1.56-.38-2.36.29-.65.96-1.09,1.61-1.3.96-.32,2.09-.28,2.9.33.81.61,1.14,1.86.54,2.68-.55.75-1.75,1.1-1.81,2.03-.02.32.12.63.25.92.46.99.95,1.95,1.48,2.9.41-.14.31-.11.72-.25-.15-.89-.29-1.89.19-2.66.38-.61,1.13-.96,1.85-.93.72.03,1.41.41,1.87.97.25.3.45.67.47,1.06.03.6-.36,1.16-.83,1.54-.67.54-1.54.83-2.4.8-.21,0-.42-.03-.62.01-.5.11-.81.61-1.01,1.09-.11.27-.33.87-.1,1.11.22.24,1.03.31,1.34.38.04,0,.09.02.13,0,.06-.01.11-.07.16-.12.72-.76,1.62-1.65,2.78-1.28.65.21,1.12.82,1.27,1.49.09.38.08.79-.12,1.12-.49.84-1.98,1.13-2.82.78-.54-.22-1-.67-1.21-1.21-.03-.07-.06-.14-.11-.19-.07-.06-.16-.08-.22-.08-2.05-.18-2.88.28-2.88.28-.84.46-1.28,1.15-1.46,1.49.5.32,1.03.62,1.61.91,5.3,2.67,8.56,2.53,10.29,2.02,0,0-4.22-6.42-1.89-12.14,0,0,.71-1.56,1.01-.17.31,1.39-.3,4.1.14,5.47.43,1.37,1.5,4.86,4.96,7.12,3.46,2.26,4.32,3.7,9.81,6.29.04.02.09.04.14.06.33-1.05.91-3.93-.98-7.49-.01-.03-.13-.21-.34-.59-.62-1.05-.74-1.25-.97-1.28-.2-.03-.37.08-.63.25,0,0-.42.28-.53.62,0,.02-.01.03-.01.03,0,.02,0,.03-.02.07-.06.2-.13.39-.24.57-.23.37-.57.66-.9.93-.25.19-.54.34-.85.36-.6.03-1.15-.48-1.24-1.07-.09-.59.26-1.2.78-1.5.43-.24.93-.26,1.4-.15.08.02.22.14.43.15.2.02.36-.04.43-.07.15-.06.24-.15.38-.28.11-.11.25-.26.39-.48-.78-.65-1.51-1.08-2.11-1.38-.07-.03-.23-.11-.46-.21-.87-.38-1.69-.62-2.33-.76-.02.02-.05.04-.08.05-.34.23-.71.47-1.12.47-.29,0-.58-.11-.83-.25-.33-.18-.65-.42-.84-.75-.19-.33-.23-.76-.04-1.09.1-.16.24-.28.4-.37.49-.27,1.11-.2,1.59.08.22.13.71.58.98,1.01.3.09.63.2.98.33,0-.03.02-.06.03-.09.12-.48.04-.87-.02-1.13-.25-1.14-.37-1.71-.55-1.94-.55-.69-1.13-.4-1.53-1.03-.33-.52-.33-1.34.1-1.9.44-.56,1.14-.6,1.33-.61.19-.01.78-.04,1.28.37.44.37.63.94.59,1.43-.06.75-.62.8-.81,1.63-.12.55.11.61.18,1.77.02.37.08,1.26-.1,1.68.07.02.14.05.2.08.48.2.99.43,1.52.7.13-.16.25-.38.36-.73.13-.42.3-.96.2-1.61-.13-.9-.61-.93-.6-1.62,0-.53.29-1.18.84-1.43.43-.2.86-.08,1.03-.03.15.04.83.23,1.09.89.16.4.15.91-.09,1.29-.37.58-.94.35-1.41.94-.33.4-.11.59-.48,1.52-.02.06-.26.63-.53,1.02.05.03.11.06.16.09.4.23.81.48,1.22.76.13.09.27.19.4.28t0,0c.06-.01.13-.03.23-.09.08-.06.16-.15.32-.33.1-.12.13-.18.17-.25.05-.08.03-.14.06-.23.05-.21.12-.4.22-.59.22-.38.54-.69.87-.98.24-.21.53-.37.85-.4.6-.05,1.18.43,1.3,1.03.12.59-.2,1.23-.72,1.54-.42.26-.93.31-1.41.21-.15-.03-.3-.1-.45-.14-.06-.01-.37-.1-.4-.07-.04.04-.23.25-.31.37-.09.13-.17.23-.24.32.68.55,1.34,1.17,1.94,1.9.07.09.14.17.21.26.21.27.41.54.6.83,1.99,3.01,2.37,6.43,2.32,8.83.38.25.71.48,1.01.71,0,0,1.16-22.72,1.21-24.11.06-1.39.43-4,0-4.85-.33-.64-1.27-2.96-3.91-5.11-.12.27-.2.41-.32.67-.57,1.29.05,3.01.83,4.06.05.06.1.13.17.16.07.03.15.02.22.01.59-.04,1.19.16,1.63.54.68.6,1.09,2.06.56,2.87-.21.32-.58.51-.95.61-.66.16-1.42.02-1.89-.47-.85-.87-.46-2.08-.1-3.06.02-.06.05-.13.03-.19-.01-.04-.04-.08-.07-.11-.2-.25-.63-.94-.94-1.03-.32-.1-.76.37-.95.59-.34.39-.65.89-.52,1.39.05.2.17.38.27.56.41.76.54,1.66.35,2.5-.13.59-.45,1.18-1,1.43-.36.16-.77.15-1.16.06-.7-.17-1.35-.61-1.7-1.24-.35-.63-.37-1.45,0-2.07.48-.78,1.44-1.1,2.31-1.37-.05-.42-.04-.33-.09-.75-1.1-.05-2.19-.06-3.29-.03-.32,0-.66.03-.93.19-.81.47-.58,1.7-1,2.53-.47.9-1.74,1.16-2.64.71-.9-.45-1.44-1.44-1.59-2.44-.1-.68,0-1.48.44-2.03.55-.68,1.44-.77,2.28-.71.61.04,1.22.26,1.64.7.06.06.11.13.19.16.06.02.13.02.19.02.65-.01,1.28-.05,1.93-.06,1.04,0,2.12.07,3.15-.01.71-.06,1.35-.9,1.56-1.69.14-.54-.04-.8,0-1.87.02-.61.1-1.1.17-1.42-.55-.36-1.19-.74-1.93-1.1-.86-.42-1.66-.73-2.38-.96-.24.48-.87,1.04-1.02,1.19-.13.13-1.26.87-1.49,1.06.1-.08.58,1.79.09,2.48-.34.47-.97.68-1.55.61-.58-.06-1.11-.29-1.56-.66-.16-.13-.32-.35-.41-.53-.1-.21-.12-.45-.1-.68.07-.7.51-1.35,1.13-1.68.62-.33,1.41-.33,2.03,0,.12.07,1.5-1.07,1.66-1.2.03-.02.05-.05.08-.07.23-.2.42-.43.56-.68-2.73-.75-5.22-.72-6.63-.6-.38.53-.8,1.08-1.4,1.33-.45.18-.96.17-1.44.11-.62-.09-1.25-.27-1.74-.67-.49-.4-.81-1.04-.7-1.66.05-.3.21-.58.41-.81.59-.7,1.6-.97,2.5-.82.55.09,2.11.75,2.57,1.46.48-.07,1.05-.12,1.71-.13-.19-.42-.3-1.02-.33-1.2-.02-.14-.09-1.22-.04-1.54,0-.04-.02-.08-.06-.08-.4-.03-1.31-.65-1.5-1.29-.14-.48.05-1.02.4-1.38.35-.36.83-.56,1.32-.67.17-.04.36-.07.53-.03.2.04.37.16.52.29.44.42.65,1.06.55,1.66-.1.6-.52,1.13-1.08,1.37-.11.05-.06,1.59-.06,1.77,0,.03,0,.06,0,.09.03.37.12.71.31,1.01,1.16.04,2.57.22,4.2.67.02-.68-.12-1.35-.33-2-.01-.04-.03-.08-.05-.11-.04-.05-.1-.06-.16-.08-.86-.27-1.57-1.01-1.8-1.89-.06-.23-.09-.48-.05-.71.07-.42.35-.79.7-1.03.35-.25.76-.39,1.17-.51.13-.04.27-.08.41-.07.26.01.48.17.67.34.43.38.8.87.83,1.44.03.62-.34,1.19-.81,1.59-.18.16-.38.31-.46.54-.04.12-.04.26-.02.38.04.36.15.72.33,1.03,1.14-.54,1.84-1.72,2.23-2.91.07-.2.13-.44.02-.63-.04-.08-.11-.14-.18-.21-.48-.5-.6-1.29-.34-1.93.26-.64.87-1.11,1.54-1.26.31-.07.64-.08.94.02.51.17.88.63,1.08,1.13.17.4.24.86.09,1.27-.12.33-.35.59-.6.83-.22.21-.45.41-.72.53-.27.13-.59.18-.88.09-.31.78-.65,1.55-1.03,2.3-.13.25-.44.68-.57.8-.32.31-.61.38-1.01.57-.12.05-.24.12-.29.24-.07.16.03.33.11.49.79.25,1.63.57,2.51.96,1.18.52,2.35,1.23,3.49,1.98.65-.41,1.35-1.64.63-5.23,0,0,0,0,.03.03-.02-.09-.03-.18-.04-.27-.09-.76.07-1.56.56-2.12.32-.37.77-.64.97-1.08.06-.14.1-.29.2-.41.23-.26.67-.18,1.01-.28.47-.14.74-.62,1.18-.82.46-.21,1.01-.08,1.52-.09.36,0,.82-.04.99.28.1.18.05.41.11.61.09.35.48.6.54.95.06.34-.19.65-.21.99-.01.33.2.68.08.98-.08.21-.29.33-.39.53-.13.26-.05.59-.15.87-.1.27-.37.43-.53.67-.21.31-.24.74-.52.99-.26.23-.64.24-.98.34-.06.02-.16.05-.29.11-.13.07-.24.17-.36.25-.15.09-.31.15-.48.19-.88.53-2.07,1.51-2.89,3.18,2.21,1.5,4.21,2.95,5.71,3.05,1.49.1,2.57-.45,3.75-1.85.64-.76,1.26-1.47,1.88-2.12-.18-.16-.37-.33-.55-.5-.25.34-.68.54-1.11.58-.43.03-.85-.09-1.24-.28-.32-.16-.62-.38-.84-.67-.44-.6-.47-1.46-.11-2.1.36-.65,1.08-1.07,1.82-1.12.51-.03,1.07.13,1.38.54.43.57.25,1.37.43,2.05.12.32.53.68.67,1.04,1.95-1.98,3.83-3.38,6.06-4.38.06-.17.12-.33.03-.47-.06-.11-.19-.16-.32-.2-.48-.16-.67-.31-1.1-.67-.46-.37-.72-.76-.76-.81-1.08-1.39-.94-1.68-1.43-1.92-.55-.27-.82.05-1.44-.32-.13-.08-.48-.3-.7-.74-.2-.39-.18-.85-.07-1.27.14-.52.32-.94.8-1.17.29-.14.74-.26,1.05-.23.69.07,1.35.46,1.69,1.06.34.6.32,1.4-.09,1.96-.05.07-.12.15-.15.23-.08.2,0,.43.1.62.55,1.14,1.39,2.21,2.59,2.61.14-.34.2-.7.19-1.07,0-.13-.02-.26-.07-.38-.1-.22-.33-.34-.52-.48-.51-.34-.96-.86-1-1.48-.04-.57.26-1.1.64-1.53.17-.19.35-.29.6-.33.14-.02.44-.08.58-.06.42.07.7.14,1.08.34.37.2.7.53.82.94.07.23.07.48.04.72-.12.9-.72,1.72-1.55,2.1-.06.03-.12.05-.15.1-.02.03-.03.08-.04.12-.13.67-.18,1.35-.07,2.02,1.23-.48,2.54-.83,4-1.05.21-.37.28-.76.25-1.19,0,0,0-.04,0-.09-.05-.62-.12-1.38-.45-1.89-.37-.57-.75-.33-1.05-.84-.33-.55-.24-1.46.3-1.96.38-.35.84-.38,1.01-.39.17-.01.91-.06,1.4.5.37.43.44,1.06.26,1.52-.26.65-.84.55-1.07,1.17-.19.52.14.81.17,1.71.01.59-.12,1.07-.22,1.37.51.09,1.28.15,2.02-.21,1.07-.51,1.08-1.4,2.1-1.8.73-.29,1.93-.31,2.59.5.58.71.52,1.79.02,2.49-.54.75-1.45.86-1.64.88-1.18.14-1.58-.63-3.1-.98-1.12-.26-2.02-.1-2.96.07-1.53.27-2.69.85-3.44,1.31.17.23.39.42.64.59.03.02.06.04.09.06.17.11,1.69,1.07,1.8.99.57-.41,1.35-.51,2.01-.27.66.25,1.18.84,1.33,1.53.05.23.07.47,0,.69-.07.2-.21.36-.35.51-.4.42-.89.79-1.45.92-.56.14-1.22.02-1.61-.41-.58-.62-.35-1.72-.06-2.38-.09.21-1.68-.78-1.9-.93-.17-.13-.73-.62-1.03-1.07-.26.11-.52.24-.78.36-.73.37-1.3.72-1.66.96-.5.33-1.07.74-1.67,1.25.1.23.26.6.37,1.07.29,1.13.05,1.55.31,2.18.31.78,1.09,1.51,1.76,1.48,1.04-.05,2.1-.26,3.13-.39.65-.08,1.28-.12,1.92-.19.06,0,.13-.01.19-.04.07-.04.12-.11.17-.18.36-.49.94-.78,1.54-.9.83-.17,1.71-.19,2.35.42.51.49.71,1.26.69,1.95-.02,1.01-.42,2.06-1.26,2.63-.84.56-2.13.46-2.71-.37-.53-.77-.46-2.01-1.32-2.38-.3-.13-.63-.1-.95-.07-1.09.11-2.18.26-3.26.45,0,.43,0,.33,0,.75.9.15,1.9.35,2.47,1.06.45.56.53,1.38.27,2.05-.27.67-.85,1.19-1.53,1.45-.37.14-.78.2-1.15.09-.58-.17-.98-.72-1.18-1.29-.29-.81-.28-1.73.03-2.53.08-.19.17-.38.19-.59.06-.51-.31-.97-.69-1.31-.22-.19-.71-.6-1.02-.46-.3.13-.63.87-.8,1.15-.02.04-.05.08-.05.12,0,.06.02.13.05.19.48.93,1.02,2.08.3,3.05-.41.54-1.14.78-1.82.71-.38-.04-.77-.19-1.02-.48-.63-.74-.41-2.24.19-2.92.39-.44.96-.72,1.55-.75.08,0,.16,0,.22-.04.09-.05.14-.14.15-.18,1.19-2.64.46-3.89.46-3.89-.12-.2-.18-.65-.56-.94-2.02,2.02-3.47,4.51-3.64,6.56,0,0,.22,12.33.44,15.3.22,2.97.93,15.37.93,15.37,0,0,.48-.28,1.27-.75-.17-2.37-.02-6.37,2.27-9.84.19-.29.39-.57.6-.83.07-.09.14-.18.21-.26.58-.7,1.22-1.31,1.87-1.85,0-.07-.02-.15-.06-.24-.03-.07-.13-.32-.33-.37-.12-.03-.18.06-.49.14-.15.04-.29.11-.45.14-.48.09-.99.05-1.41-.21-.51-.32-.83-.95-.72-1.55.12-.59.7-1.08,1.3-1.02.32.03.61.19.85.4.33.29.66.6.87.98.11.18.17.38.22.59.02.09,0,.15.06.23.05.09.1.19.17.25.06.05.14.14.27.19.1.04.18.04.24.05.01,0,.02-.02.03-.03l.4-.28c.4-.26.81-.51,1.21-.76.17-.09.34-.18.51-.28.03-.01.05-.03.08-.04-.17-.29-.31-.64-.36-.77-.05-.13-.4-1.34-.3-1.57,0-.01-.24-.01-.52-.05-.36-.04-.92-.17-1.25-.76-.23-.42-.15-.95.1-1.36.12-.2.26-.55.81-.89.27-.17.52-.15.69-.15.19,0,.47.07.63.17.49.3.82.86.84,1.43.02.58-.26,1.16-.72,1.5-.09.06.26,1.49.3,1.66,0,.03.01.05.02.08.06.22.12.37.2.5.37-.18.74-.35,1.08-.49.14-.05.28-.11.42-.17.46-.18.89-.32,1.26-.43.26-.43.75-.88.98-1.01.48-.28,1.1-.34,1.59-.08.16.09.31.21.4.37.2.33.15.76-.04,1.09-.19.33-.5.57-.84.75-.26.14-.54.26-.83.25-.41,0-.78-.24-1.12-.47-.03-.02-.05-.04-.08-.05-.63.14-1.45.37-2.33.76.19.19.42.33.68.43.02,0,.05.02.08.03.16.06,1.67.61,1.74.52.38-.42.84-.69,1.4-.61.56.08,1.08.46,1.32.98.08.17.13.36.11.55-.02.17-.1.32-.19.47-.24.4-.57.77-.99.98-.42.21-.96.22-1.35-.05-.56-.39-.83-1.3-.46-1.88,0,.02-1.35-.33-1.5-.38-.44-.15-1.03-.49-1.3-.83-.73.36-1.55.86-2.24,1.47.11.16.34.48.76.65.12.05.32.13.57.1.21-.02.33-.13.43-.16.47-.11.97-.09,1.4.15.52.29.86.9.78,1.5-.09.59-.64,1.09-1.24,1.07-.31-.01-.61-.16-.85-.36-.34-.27-.67-.56-.9-.93,0-.02,0,0-.24-.57-.09-.22-.14-.33-.24-.46-.11-.15-.23-.24-.31-.3-.11-.08-.28-.19-.51-.28-.33.31-.74.75-1.12,1.34,0,0-.18.28-.34.58-2.12,4.01-.96,7.43-.68,8.14,3.55-2.25,8.01-5.28,9.32-7.03,2.12-2.82,5.7-5.53,5.16-11.14-.56.08-1.12.1-1.66,0-.79-.14-1.54-.54-1.96-1.2-.27-.43-.4-.96-.79-1.3-.12-.11-.26-.19-.35-.33-.19-.32.02-.72.03-1.09,0-.51-.39-.93-.46-1.44-.07-.52.23-1.03.37-1.55.1-.36.21-.83.58-.91.22-.05.43.07.64.08.38.01.74-.3,1.12-.25.36.04.59.39.93.51.33.11.74,0,1.01.22.18.14.25.39.42.55.22.21.58.23.82.42.24.18.32.5.51.73.25.31.67.47.83.82.2.42-.03.94.06,1.4.03.15.1.3.14.45.09.33.04.67,0,1.01-.06.42-.27.85-.57,1.17.35,2.29.56,6.64-1.85,10.77,0,0,6.78.28,12.66-3.95-.65-.63-1.28-.99-1.72-1.2,0,0-1.32-.64-3.34-.48-.04,0-.14,0-.22.08-.06.05-.08.12-.11.19-.23.54-.68.99-1.23,1.2-.84.33-2.33.02-2.81-.82-.19-.33-.19-.75-.1-1.13.16-.66.64-1.27,1.29-1.47,1.16-.35,2.05.55,2.76,1.32.05.05.09.1.16.12.04,0,.09,0,.13,0,.31-.07,1.12-.13,1.35-.36.24-.24.02-.84-.08-1.11-.19-.48-.49-.98-.99-1.1-.2-.05-.42-.02-.62-.02-.86.02-1.73-.29-2.39-.84-.46-.39-.84-.95-.8-1.55.02-.39.22-.75.48-1.05.47-.55,1.16-.92,1.88-.94.72-.02,1.46.34,1.84.96.47.78.32,1.76.16,2.66.41.15.31.11.72.26.54-.94,1.05-1.9,1.52-2.88.14-.29.28-.59.26-.92-.05-.93-1.24-1.29-1.78-2.05-.58-.83-.23-2.08.58-2.67.82-.6,1.94-.62,2.9-.29.65.23,1.31.67,1.6,1.33.35.81.03,1.63-.42,2.35-.32.52-.79.96-1.38,1.14-.08.02-.16.04-.22.1-.05.04-.08.1-.11.16-.29.58-.54,1.16-.83,1.74-.78,1.52-1.41,1.72-1.44,2.81-.02,1.04.74,1.8,1.15,2.22.98.99,2.14,1.32,2.76,1.45.09-.07.18-.14.28-.22.67-.55,1.21-1.15,1.65-1.73-.04-.22-.07-.4-.1-.54-.02-.1-.11-.5-.29-.98-.05-.13-.12-.24-.21-.38-.07-.12-.16-.14-.26-.23-.23-.19-.44-.4-.61-.66-.35-.53-.54-1.14-.69-1.75-.11-.44-.13-.92.04-1.34.32-.81,1.31-1.24,2.15-1,.83.23,1.44,1.05,1.52,1.91.06.71-.2,1.38-.63,1.94-.14.18-.31.31-.46.48-.06.06-.52.48-.5.54.02.08.1.22.2.41.14.25.31.56.45.86.36-.61,2-3.41,2.61-5.82.28-1.11.26-1.8.02-2.4-.18-.45-.5-.91-.69-1.18-.5-.71-.65-.7-.89-1.09-.46-.74-.66-1.95-.1-2.91.38-.65.95-.93,1.15-1.03.7-.36,1.57-.38,2.29-.06.8.36,1.14,1.35,1.08,2.18-.05.68-.31,1.33-.59,1.96-.17.37-.44.78-.61,1.18-.29.69-.28,1.19-.5,1.89,0,.02-.01.04-.02.07-.08.42-.17.89-.31,1.39-.05.29-.12.67-.17.92.62.52,1.35.85,2.11,1.1.04.01.09.03.13.02.07,0,.12-.05.18-.09.79-.58,1.87-.72,2.79-.37.24.09.47.22.66.41.33.33.46.8.46,1.26,0,.46-.14.91-.29,1.34-.05.14-.1.29-.2.4-.17.21-.46.31-.73.37-.6.13-1.26.14-1.78-.19-.56-.36-.82-1.05-.87-1.71-.02-.26-.03-.53-.18-.74-.08-.11-.2-.19-.32-.27-.34-.2-.72-.32-1.11-.37-.25,1.33.33,2.69,1.12,3.79.14.19.31.39.54.42.1.01.19,0,.29-.02.74-.1,1.5.3,1.89.93.39.63.42,1.46.12,2.14-.14.31-.34.6-.62.8-.47.33-1.1.36-1.67.22-.45-.11-.9-.34-1.16-.73-.21-.31-.29-.68-.34-1.04-.04-.32-.07-.65,0-.97s.22-.63.48-.82c-.49-.76-.93-1.55-1.34-2.36-.14-.27-.19-.71-.25-1.01-.08-.47-.03-.77.06-1.24.02-.14.05-.29-.03-.41-.08-.13-.17-.15-.27-.15-.68,1.94-1.79,4.19-3.62,6.44-.26.32-.53.63-.81.94.05.14.18.49.53.7.39.24.81.17,1.04.14.32-.05.5-.19.67-.23.73-.16,1.5-.12,2.16.26.8.46,1.31,1.42,1.17,2.33-.15.91-1.02,1.68-1.94,1.62-.61-.04-1.05-.36-1.31-.57-.69-.56-.67-1.04-1.63-2.41-.13-.19-.41-.58-.9-.95-.16-.12-.31-.21-.4-.27-1.25,1.25-2.68,2.4-4.19,3.4.02.03.04.07.08.12.09.11.21.17.29.2.14.05.26.02.58-.09.32-.1.47-.17.56-.19.61-.14,1.25-.1,1.79.22.66.38,1.09,1.18.97,1.93-.13.8-.94,1.3-1.61,1.35-.95.06-1.98-.81-2.23-1.69-.11-.36-.14-.93-.61-1.34-.11-.1-.22-.17-.29-.2-4.53,2.89-9.7,4.5-12.94,3.91,0,0-7.54,5.15-9.45,7.38-1.91,2.22-5.79,7.37-5.79,7.37,0,0,.72,25.91,1.33,26.17.61.26,6.27-3.17,11.61-3.77.19-.02.38-.04.57-.06.04-1.39.18-3.17.56-5.2-.08,0-.15,0-.2.01-.85.15-1.59.65-2.27,1.16-.08.06-.16.12-.2.21-.04.09-.02.18-.02.28.06.73-.19,1.47-.68,2.02-.75.84-2.55,1.35-3.56.69-.4-.26-.64-.72-.75-1.18-.2-.82-.02-1.76.59-2.35,1.08-1.05,2.58-.56,3.8-.12.08.03.16.06.24.04.05-.01.1-.05.14-.08.31-.25,1.17-.78,1.28-1.16.12-.4-.46-.95-.72-1.18-.48-.42-1.1-.81-1.72-.65-.25.06-.47.21-.7.33-.94.51-2.06.67-3.11.44-.73-.16-1.47-.56-1.77-1.25-.2-.45-.18-.96-.07-1.43.21-.87.76-1.68,1.54-2.11.79-.44,1.8-.46,2.57,0,.96.59,1.36,1.76,1.69,2.84.27,0,.54.02.81.03.16-1.76.18-3.17.17-4.19,0-.52-.04-.83-.23-1.16-.58-1-2.11-.72-3.13-1.25-1.11-.58-1.44-2.16-.88-3.28.56-1.12,1.8-1.78,3.03-1.96.85-.12,1.83,0,2.51.55.85.69.96,1.79.88,2.83-.06.75-.33,1.51-.87,2.03-.07.07-.16.14-.19.24-.03.08-.03.16-.02.24.01.8.07,1.59.07,2.39,0,1.29-.09,2.63.01,3.91.08,1.05.98,1.94,2,1.94.89-4.04,2.73-8.87,6.4-13.5.04-.05.09-.11.13-.16-.32-.47-.52-1.05-1.01-1.34-.25-.15-.54-.2-.83-.29-.65-.2-1.24-.59-1.67-1.11-.31-.36-.54-.81-.57-1.28-.06-.9.68-1.76,1.57-1.91.89-.16,1.83.34,2.29,1.12.46.78.46,1.78.11,2.61-.12.27-.28.57-.18.85.05.14.16.25.26.35.08.07.3.21.54.39,1.49-1.77,3-3.19,4.48-4.33.05-.36.29-.89.17-1.15-.07-.13-.22-.2-.36-.26-.48-.19-.87-.32-1.25-.67-.1-.09-.32-.23-.7-.81-1.07-1.59-.77-2.29-1.47-2.72-.63-.38-1.05.07-1.84-.46-.14-.1-.53-.38-.77-.91-.2-.47-.16-1.01,0-1.49.2-.6.59-1.16,1.17-1.4.34-.14.73-.16,1.09-.11.09.01,1.46.23,1.9,1.35.31.77.08,1.71-.22,2.12-.04.05-.15.19-.21.41,0,0-.09.33.08.73.56,1.36,1.47,2.68,2.84,3.22.18-.38.28-.81.3-1.23,0-.15,0-.31-.06-.45-.1-.26-.35-.42-.58-.59-.57-.44-1.06-1.07-1.07-1.79,0-.66.38-1.27.85-1.74.21-.21.48-.44.77-.47.16-.02.59-.03.75,0,.49.11.69.31,1.12.57.42.26.78.66.9,1.15.06.27.05.56,0,.84-.2,1.04-.96,1.96-1.95,2.35-.07.03-.14.05-.18.11-.03.04-.04.09-.05.13-.21.83-.32,1.68-.2,2.54,1.93-1.34,3.78-2.21,5.43-2.77.23-.53.58-1.09.65-1.27.06-.17.12-.35.1-.53-.04-.36-.38-.6-.66-.84-.85-.72-1.39-1.83-1.3-2.94.09-1.11.85-2.17,1.92-2.48,1.06-.32,2.35.22,2.77,1.25.22.54.2,1.16.07,1.72-.2.81-.64,1.57-1.25,2.14-.26.25-.56.46-.75.76-.33.5-.3,1.26-.35,1.87.22-.1.5-.22.83-.35.24-.09.46-.18.74-.27.54-.18.65-.2,1.1-.33.15-.04.38-.13.62-.27.54-.31.77-.73,1.03-.95.56-.46,1.15-.91,1.84-1.15.83-.29,1.94-.23,2.53.49.53.65.75,1.54.58,2.36-.13.59-.38,1.08-.73,1.46-1.01,1.1-2.48,1.01-2.76.99-.48-.04-1.27-.11-1.77-.66-.16-.17-.27-.38-.55-.5-.4-.17-.81-.04-1.02.03-1.78.57-1.4.17-3.45.95-.34.13-.79.31-1.37.56-1.03.46-2.71,1.31-4.83,2.8.31.26.57.54.68.62.13.09.27.17.42.19.31.04.58-.18.84-.37.78-.55,1.81-.76,2.72-.46.9.31,1.62,1.17,1.65,2.12.04.95-.68,1.9-1.63,2.03-.5.07-1-.08-1.45-.31-.63-.33-1.17-.86-1.51-1.49-.15-.27-.26-.56-.47-.79-.5-.53-1.35-.54-1.96-.92-.95.86-1.86,1.84-2.68,2.88.41.23,1.02.64,1.61,1.27.9.97.96,1.6,1.74,2.1.89.57,1.91.45,2.23.41,1.5-.18,1.63-.84,3.48-1.8.72-.37,1.43-.68,2.15-1.04.07-.04.15-.07.2-.13.07-.08.09-.18.12-.28.21-.72.76-1.32,1.4-1.71.89-.55,1.91-.96,2.92-.52.81.35,1.37,1.17,1.65,1.98.41,1.18.39,2.58-.34,3.6-.73,1.01-2.28,1.45-3.31.73-.95-.67-1.4-2.15-2.56-2.2-.4-.02-.78.16-1.13.33-1.21.59-2.4,1.22-3.57,1.9.19.5.14.38.33.89,1.11-.21,2.33-.4,3.3.18.77.46,1.21,1.38,1.19,2.28-.02.9-.48,1.76-1.16,2.34-.37.32-.82.57-1.3.6-.75.05-1.44-.42-1.93-.99-.69-.82-1.07-1.89-1.05-2.96,0-.26.03-.52-.03-.77-.15-.62-.78-.99-1.37-1.22-.33-.13-1.08-.39-1.38-.1-.29.28-.36,1.29-.44,1.67,0,.05-.02.11,0,.16.02.08.08.14.15.19.96.88,2.08,1.98,1.65,3.42-.24.81-.99,1.4-1.81,1.61-.47.12-.98.11-1.4-.12-1.05-.59-1.44-2.43-1.03-3.48.26-.68.81-1.25,1.48-1.53.09-.04.18-.07.24-.14.06-.08.08-.18.1-.28.14-.83.25-1.72-.02-2.54-.18-.56-.41-1.47-1.25-2.16-.59-.48-1.2-.65-1.56-.72-.23.33-.42.61-.64.96-4.02,6.48-2.94,13.63-1.87,17.46,4.86-.69,10.32-1.84,13.74-4.16,5.18-3.51,8.69-5.77,10.76-14.19,2.06-8.42,1.2,2.45,1.2,2.45,0,0,5.25-3.1,10.87-2.43.05-.1.17-.37.28-.59.02-.06.04-.12.06-.18.05-.15.11-.29.12-.44,0-.1-.01-.29-.03-.42-.02-.13-.09-.19-.14-.31-.12-.27-.23-.54-.27-.83-.1-.61-.01-1.23.1-1.83.08-.44.26-.87.58-1.17.61-.58,1.67-.56,2.31-.01.64.55.84,1.52.56,2.31-.23.65-.74,1.14-1.35,1.46-.12.06-.34.08-.61.24-.11.07-.43.26-.61.59-.33.59-.05,1.26,0,1.36.03,0,.07.01.1.02,3.47.72,6.47,2.05,8.38,3.03.13-.17.16-.31.16-.4,0-.58-.95-.77-1.46-1.74-.03-.06-.12-.18-.22-.61-.23-.96-.41-1.92-.54-2.89-.35.02-.7-.13-.97-.34-.27-.22-.48-.51-.67-.81-.22-.34-.41-.7-.45-1.1-.05-.5.16-1.01.46-1.42.37-.51.91-.93,1.53-.98.37-.03.74.07,1.07.23.72.36,1.28,1.06,1.4,1.86.12.8-.24,1.67-.92,2.1-.09.06-.19.11-.26.19-.17.18-.17.47-.15.72.12,1.47.59,3,1.73,3.93.29-.31.52-.68.66-1.08.05-.14.09-.29.08-.44-.02-.28-.21-.51-.37-.74-.41-.59-.68-1.34-.47-2.03.18-.61.71-1.06,1.27-1.36.27-.15.59-.21.89-.16.16.03.35.03.49.11.43.25.85.53,1.18.91.33.38.54.87.5,1.37-.02.28-.12.55-.26.8-.51.93-1.51,1.57-2.57,1.65-.07,0-.15,0-.21.05-.04.03-.07.07-.09.11-.48.77-.85,1.59-.99,2.48.53.27,1.05.72,1.62.89.36.11.78.16,1.12.26.57.17,1.15.35,1.62.7.58.42,1.05,1.2.84,1.93-.19.66-.69,1.22-1.32,1.48-1.33.55-2.58-.06-3.26-1.21-.51-.88-.39-1.79-.39-1.79.02-.18.05-.35-.02-.57-.17-.51-.77-.7-.96-.81-1.03-.57-2.73-1.45-5.36-2.67,0,.18,0,.59.23,1.01.06.11.2.34.45.51.5.35.95.08,1.57.2.89.16,1.43.96,1.54,1.12.38.58.73,1.73.09,2.69-.53.79-1.68,1.13-2.52.68-.44-.24-.77-.65-.99-1.1-.3-.62-.58-1.27-.66-1.96-.04-.33,0-.66.04-.99.03-.2.05-.19.06-.3.01-.33-.14-.6-.36-1-.06-.1-.13-.21-.2-.33l-.57-.87c-.27-.06-.56-.11-.85-.16-.74-.12-1.44-.18-2.07-.2-.1.44-.28,1.07-.66,1.76-.49.91-.85,1.05-.98,1.64-.19.87.18,2.02.88,2.37,1.02.52,2.15.9,3.2,1.34.66.28,1.29.58,1.94.87.06.03.13.06.2.06.09,0,.17-.04.26-.08.61-.27,1.33-.23,1.97-.02.88.29,1.74.75,2.02,1.68.22.75-.01,1.59-.4,2.25-.57.96-1.53,1.74-2.64,1.82-1.11.08-2.29-.72-2.39-1.83-.09-1.02.66-2.18.04-3-.21-.28-.55-.44-.87-.58-1.09-.49-2.2-.93-3.33-1.34-.24.42-.18.32-.41.73.77.63,1.6,1.36,1.76,2.34.12.79-.24,1.61-.86,2.11-.62.5-1.47.67-2.25.55-.43-.07-.85-.23-1.15-.54-.46-.48-.54-1.22-.42-1.87.16-.93.67-1.8,1.41-2.4.18-.15.37-.28.51-.46.34-.46.23-1.1.05-1.63-.1-.3-.35-.96-.72-.99-.35-.03-1.08.49-1.39.66-.04.02-.09.05-.12.09-.04.06-.05.14-.05.21-.05,1.15-.16,2.54-1.38,3.07-.69.3-1.52.13-2.13-.32-.34-.25-.64-.6-.71-1.02-.2-1.05.83-2.36,1.77-2.69.61-.21,1.31-.16,1.89.13.07.04.15.08.23.08.12,0,.2-.06.24-.09,2.31-1.68,2.81-3.5,2.81-3.5.08-.28.18-.72.2-1.28-1.22.09-3,.36-4.94,1.23-2.89,1.29-4.55,3.2-6.81,5.85-1.47,1.72-3.35,4.2-5.14,7.48.96-.24,2.13-.66,3.55-1.33,0,0-.01.02-.02.05.12-.05.24-.1.36-.15,1.02-.39,2.19-.44,3.14.04.89.46.8.64,1.83.98.34.11.69.19.98.52.27.31.22.54.39.92.35.77.95.61,1.54,1.36.45.56.46,1.37.65,2.08.14.5.34,1.12-.04,1.47-.22.2-.55.21-.81.36-.46.25-.66.87-1.14,1.08-.45.2-.96-.05-1.44.05-.46.09-.87.51-1.34.45-.31-.04-.56-.29-.87-.36-.41-.09-.84.14-1.26.09-.41-.05-.73-.36-1.11-.5-.5-.18-1.11-.08-1.55-.38-.41-.28-.56-.81-.8-1.25-.05-.07-.13-.2-.25-.36-.14-.15-.31-.27-.46-.42-.17-.17-.31-.38-.43-.6-.75-.75-1.88-1.65-3.43-2.3-4.81,2.82-10.63,4.08-17.87,5.56-1.24.25-2.49.64-3.7,1.12.35,1.95,1.72,6.64,6.84,9.46.15-.81.11-1.64-.03-2.45,0-.05-.02-.1-.04-.14-.04-.06-.11-.09-.17-.13-.96-.47-1.65-1.44-1.77-2.5-.03-.28-.03-.57.06-.84.15-.48.54-.85.98-1.08.45-.23.72-.39,1.22-.46.16-.02.55.02.71.05.3.06.53.28.72.51.43.51.78,1.15.72,1.81-.07.72-.6,1.32-1.2,1.71-.24.15-.5.3-.62.55-.07.14-.09.29-.09.44-.02.43.05.85.2,1.25,1.41-.44,2.42-1.68,3.08-3,.12-.23.22-.49.13-.73-.04-.1-.11-.18-.17-.27-.47-.66-.48-1.6-.07-2.3.41-.7,1.19-1.14,2-1.2.37-.03.75.02,1.08.19.56.29.91.88,1.06,1.49.12.5.13,1.04-.11,1.49-.25.48-.64.75-.83.85-.17.1-.33.15-.47.17-.76.13-1.02-.02-1.4.07-.72.17-.74,1.18-1.89,2.71-.2.27-.4.51-.71.73-.43.31-.91.5-.91.5-.37.15-.52.15-.62.31-.13.21-.1.61.08.72.18.12.4.18.62.27,1.47.61,2.88.94,4.24,1.08.67-.74.88-1.38.95-1.83.04-.28,0-.28.04-.89.06-.88.1-1.33.34-1.8.2-.38.49-.73.87-.93.73-.37,1.71-.05,2.16.64.44.69.36,1.66-.13,2.32-.49.66-1.33,1.02-2.15,1.01-.2,0-.55-.06-.77.15-.07.06-.14.16-.25.62-.08.31-.13.58-.16.78,1.58.07,3.01-.11,4.32-.4.67-.82.87-1.52.93-2.01.03-.23,0-.26.05-.77.08-.91.12-1.38.34-1.8.2-.38.49-.74.87-.93.73-.37,1.71-.05,2.16.64.44.69.36,1.66-.13,2.32-.49.66-1.33,1.02-2.15,1.01-.17,0-.54-.07-.78.15-.11.1-.16.23-.23.46-.1.29-.14.54-.16.71.36,0,.98-.02,1.67-.31.77-.33,1.22-.8,1.33-.92.24-.26.22-.32.53-.66.3-.33.61-.65,1-.85.47-.25,1.14-.31,1.56.07.38.34.59.85.56,1.36-.03.51-.3,1-.71,1.29-.58.41-1.35.42-2.04.3-.39-.07-.42-.11-.71-.13-.76-.07-1.44.26-1.98.65.06.07.14.13.22.19.54.36,1.23.48,1.87.57.15.02.3.04.44.01.17-.03.31-.13.45-.22.61-.39,1.3-.71,2.03-.7.72,0,1.48.42,1.71,1.11.13.4.07.84-.06,1.25-.13.39-.33.76-.62,1.06-.6.61-1.6.79-2.37.42-.78-.36-1.28-1.24-1.19-2.09-.65-.19-1.29-.43-1.91-.7-.37-.17-.83-.4-1.18-.71-.39.08-1.02.2-1.82.31-.01.07-.03.14-.05.2-.21.88-.17,1.78-.01,2.67,0,.05.02.1.04.14.04.06.11.09.17.13.96.46,1.65,1.44,1.77,2.49.02.19.05.49-.06.84-.3.92-1.37,1.55-2.39,1.47-.17-.01-.74-.06-1.24-.5-.51-.44-.78-1.14-.72-1.81.07-.72.6-1.32,1.2-1.71.24-.15.5-.3.62-.55.07-.14.09-.29.09-.44.02-.43-.05-.85-.2-1.25-1.41.43-2.42,1.68-3.08,3-.12.23-.22.49-.13.73.04.1.11.18.17.27.47.66.48,1.6.07,2.29-.41.7-1.19,1.14-2,1.2-.37.03-.75-.02-1.09-.19-.56-.28-.91-.88-1.06-1.49-.12-.5-.13-1.04.11-1.49.23-.43.56-.67.83-.85.63-.42,1.07-.42,1.56-.61,1.16-.43.86-1.21,2.23-2.23,1.09-.81,2.05-.88,2.21-1.66.05-.23,0-.43-.03-.56-1.72.17-3.96.21-6.27-.18-.26.42-.45,1.13-.45,1.55,0,.98.16,1.37-.12,2.08-.07.19-.36.91-1.07,1.16-.71.25-1.62-.06-1.95-.67-.12-.22-.13-.42-.14-.61-.06-.9.42-1.82,1.19-2.3.35-.22.76-.34,1.12-.55.32-.18.63-.44.75-.79-1.5-.31-3.01-.83-4.42-1.63-4.27-2.42-7.52-6.07-9.18-8.18-4.36,2.62-7.64,6.2-7.67,8.82-.01,1.19.15,5.25.15,5.25.06,1.25.14,2.6.23,3.99" fill="#102b42"/>
      </g>
      <path d="M158.02,21.12c-74.63,0-135.13,60.5-135.13,135.13s60.5,135.13,135.13,135.13,135.13-60.5,135.13-135.13S232.65,21.12,158.02,21.12ZM241.16,70.09c3.36,0,6.08,2.72,6.08,6.08s-2.72,6.08-6.08,6.08-6.08-2.72-6.08-6.08,2.72-6.08,6.08-6.08ZM74.19,71.84c3.36,0,6.08,2.72,6.08,6.08s-2.72,6.08-6.08,6.08-6.08-2.72-6.08-6.08,2.72-6.08,6.08-6.08ZM159.97,249.62c-51.56,0-93.37-41.8-93.37-93.37s41.8-93.37,93.37-93.37,93.37,41.8,93.37,93.37-41.8,93.37-93.37,93.37Z" fill="#102b42"/>
      <g>
        <path d="M123.76,259.12l.89,1.9.7-.32c.3-.14.61-.29.92-.44.3-.15.57-.27.83-.38.04-.02.08-.04.12-.05.01.19.02.45.02.81v15.31c0,.58-.03,1.05-.08,1.39-.03.21-.09.37-.16.45-.07.07-.22.13-.42.17-.34.06-.82.1-1.43.12l-.75.03v2.13h7.11v-24.15h-1.53l-6.23,3.06Z" fill="#fff"/>
        <path d="M151.23,259.54c-.65-.99-1.46-1.81-2.43-2.45-1.01-.66-2.2-1-3.55-1-1.17,0-2.25.26-3.21.78-.93.5-1.74,1.17-2.41,1.98-.65.8-1.17,1.73-1.54,2.76-.36,1.03-.55,2.08-.55,3.12,0,.9.14,1.79.4,2.65.27.88.68,1.67,1.22,2.35.54.7,1.22,1.26,2.01,1.69h0c.97.53,2.09.75,3.39.6,2.27-.67,3.08-3.68,3.08-3.68l.05-.03c-.38.24-.78.44-1.18.6-.97.39-1.94.24-2.61-.31-.48-.4-.88-.9-1.19-1.49-.32-.63-.56-1.31-.71-2.03-.16-.73-.23-1.4-.23-1.99s.07-1.2.21-1.82c.14-.59.36-1.14.66-1.62.29-.46.64-.83,1.09-1.13.41-.27.89-.4,1.47-.4.38,0,.7.09.98.29.33.22.61.51.84.85.25.38.46.82.63,1.32.18.54.32,1.08.43,1.61.11.54.18,1.07.22,1.58.04.52.06.97.06,1.36,0,.69-.02,1.26-.06,1.72-.03.36-.09.75-.16,1.19.02.3-.8,3.01-.8,3.01-.12.3-.25.61-.39.91-.56,1.2-1.26,2.3-2.09,3.26-.82.95-1.78,1.75-2.84,2.37-1.03.6-2.14.92-3.3.96l-.75.03v2.13h1.48c1.85,0,3.63-.42,5.3-1.25,1.64-.82,3.09-1.92,4.32-3.28,1.22-1.35,2.21-2.92,2.92-4.66.71-1.75,1.08-3.58,1.08-5.46,0-1.06-.15-2.18-.44-3.32-.3-1.16-.77-2.24-1.41-3.21Z" fill="#fff"/>
        <path d="M190.43,259.54c-.65-.99-1.46-1.81-2.43-2.45-1.01-.66-2.2-1-3.55-1-1.17,0-2.25.26-3.21.78-.93.5-1.74,1.17-2.41,1.98-.65.8-1.17,1.73-1.54,2.76-.36,1.03-.55,2.08-.55,3.12,0,.9.14,1.79.4,2.65.27.88.68,1.67,1.22,2.35.54.7,1.22,1.26,2.01,1.69h0c.97.53,2.09.75,3.39.6,2.27-.67,3.08-3.68,3.08-3.68l.05-.03c-.38.24-.78.44-1.18.6-.97.39-1.94.24-2.61-.31-.48-.4-.88-.9-1.19-1.49-.32-.63-.56-1.31-.71-2.03-.16-.73-.23-1.4-.23-1.99s.07-1.2.21-1.82c.14-.59.36-1.14.66-1.62.29-.46.64-.83,1.09-1.13.41-.27.89-.4,1.47-.4.38,0,.7.09.98.29.33.22.61.51.84.85.25.38.46.82.63,1.32.18.54.32,1.08.43,1.61.11.54.18,1.07.22,1.58.04.52.06.97.06,1.36,0,.69-.02,1.26-.06,1.72-.03.36-.09.75-.16,1.19.02.3-.8,3.01-.8,3.01-.12.3-.25.61-.39.91-.56,1.2-1.26,2.3-2.09,3.26-.82.95-1.78,1.75-2.84,2.37-1.03.6-2.14.92-3.3.96l-.75.03v2.13h1.48c1.85,0,3.63-.42,5.3-1.25,1.64-.82,3.09-1.92,4.32-3.28,1.22-1.35,2.21-2.92,2.92-4.66.71-1.75,1.08-3.58,1.08-5.46,0-1.06-.15-2.18-.44-3.32-.3-1.16-.77-2.24-1.41-3.21Z" fill="#fff"/>
        <path d="M168.81,269.33c-.61-.66-1.27-1.28-1.97-1.84-.45-.36-.87-.71-1.27-1.05l-.5-.42s-.05-.04-.08-.07c-.45-.36-.92-.73-1.43-1.13-.47-.36-.91-.76-1.32-1.18-.38-.39-.7-.82-.94-1.28-.22-.41-.33-.87-.33-1.39,0-.37.08-.72.24-1.05.17-.35.4-.67.67-.94.27-.27.57-.48.93-.65.33-.15.66-.23.99-.23.45,0,.88.09,1.3.28.43.19.82.46,1.15.79.33.33.6.72.79,1.15.19.42.29.86.29,1.3s-.04.8-.11,1.06c-.07.27-.16.5-.27.68l-.85,2.14s1.62.32,3.08-.71c.05-.04.11-.08.16-.12.39-.36.7-.79.93-1.3.24-.51.36-1.1.36-1.75,0-.69-.16-1.38-.47-2.07-.31-.68-.77-1.28-1.36-1.81-.58-.52-1.3-.94-2.13-1.25-1.48-.55-3.52-.66-5.31-.08-.8.26-1.52.65-2.15,1.15-.64.51-1.16,1.15-1.54,1.89-.39.75-.59,1.62-.59,2.56,0,.83.14,1.6.41,2.26.26.65.62,1.25,1.05,1.79.41.51.89,1,1.41,1.46.25.23.51.45.77.67-.27.21-.54.43-.8.65-.56.46-1.07.98-1.52,1.52-.47.56-.85,1.18-1.15,1.83-.31.69-.47,1.44-.47,2.24,0,.44.1.99.32,1.68.22.71.6,1.4,1.15,2.06.54.66,1.27,1.23,2.17,1.71.92.49,2.1.74,3.49.74.93,0,1.83-.15,2.68-.44.85-.3,1.62-.73,2.28-1.27.67-.56,1.22-1.25,1.62-2.06.41-.82.62-1.75.62-2.75,0-.93-.24-1.83-.7-2.66-.43-.76-.97-1.49-1.6-2.17ZM166.94,276.71c-.21.39-.47.72-.79,1.02-.31.29-.66.52-1.06.68-.95.39-1.87.3-2.6-.11-.44-.25-.83-.58-1.14-.98-.32-.4-.57-.87-.74-1.4-.17-.53-.26-1.09-.26-1.65,0-.9.27-1.73.82-2.56h0c.46-.69.98-1.29,1.55-1.81.75.63,1.41,1.19,1.96,1.69.65.58,1.17,1.12,1.55,1.61.36.46.62.89.77,1.27.14.37.22.74.22,1.11,0,.41-.09.77-.27,1.12Z" fill="#fff"/>
        <path d="M48.8,195.18l7.41-10.1-1.92-5.86-1.81.59.15.65c.13.56.18,1.07.16,1.51-.03.44-.12.86-.26,1.25-.15.4-.36.8-.61,1.19-.28.42-.6.87-.96,1.35l-3.13,4.27c-.19-.26-.4-.5-.61-.74-.47-.51-1.01-.93-1.58-1.25-.59-.33-1.23-.54-1.91-.63-.7-.1-1.43-.01-2.18.23-.46.15-.97.41-1.51.78-.57.39-1.07.95-1.46,1.66-.39.7-.62,1.58-.7,2.61-.07,1.02.12,2.25.58,3.65l2.79,8.49,1.87-.61-.23-.69c-.23-.71-.3-1.12-.31-1.33-.02-.3.07-.41.1-.44.1-.13.28-.25.53-.35.36-.15.81-.31,1.35-.49l15.23-5-1.29-3.94-9.68,3.18ZM43.24,197c-.63.21-1,.22-1.2.2-.32-.04-.48-.12-.56-.19-.13-.11-.23-.23-.29-.37-.1-.22-.18-.42-.24-.59-.15-.45-.2-.89-.17-1.31.03-.41.15-.8.33-1.15.19-.35.45-.66.78-.92.34-.27.74-.48,1.2-.63.47-.16.91-.23,1.29-.23.14,0,.27,0,.4.03.49.08.9.24,1.25.49.36.26.68.6.93,1.02.28.46.5.95.67,1.46l.22.67-4.61,1.51Z" fill="#fff"/>
        <path d="M53.33,171.24l-1.91.22.03.68c.01.25.01.49,0,.73,0,.2-.03.39-.08.55-.03.11-.07.19-.13.26,0,0-.04.03-.15.04-.11.01-.33,0-.71-.11-.41-.12-.74-.21-.98-.28l-2.31-.67-.74-6.33,6.02-3.26-.47-4.05-19.73,10.56.17,1.47,21.74,6.7-.76-6.52ZM39.23,170.3l4.78-2.71.5,4.29-5.28-1.58Z" fill="#fff"/>
        <path d="M38.07,154.73l-.58-.16c-1.3-.35-1.89-.73-2.15-.97-.63-.62-.89-1.65-.79-3.06l.41-5.72,15.49,12.9,1.47.11,1.2-16.71-6.36-1.6-.13,1.89.47.21c.63.28,1.17.56,1.6.84.36.23.64.55.86.98.23.45.39,1.07.46,1.84.08.82.07,1.95-.04,3.35l-.23,3.29-16.86-13.71-1.26,17.5,6.28,1.19.15-2.15Z" fill="#fff"/>
        <path d="M36.43,133.6c.69,1.08,1.61,2.04,2.73,2.84,1.11.8,2.43,1.4,3.9,1.76.97.24,1.92.36,2.85.36.48,0,.96-.03,1.43-.1,1.36-.19,2.62-.61,3.74-1.24,1.12-.64,2.1-1.49,2.89-2.55.79-1.05,1.36-2.26,1.69-3.6h0c.33-1.34.39-2.68.18-3.97-.21-1.3-.67-2.51-1.37-3.6-.69-1.08-1.61-2.04-2.72-2.84-1.12-.8-2.43-1.4-3.9-1.76-1.47-.36-2.91-.45-4.27-.26-1.36.19-2.62.61-3.74,1.24-1.13.64-2.1,1.49-2.89,2.54-.79,1.05-1.36,2.26-1.69,3.6-.33,1.34-.39,2.68-.18,3.97.21,1.3.67,2.51,1.37,3.6ZM37.6,126.61h0c.2-.81.55-1.53,1.06-2.15.5-.62,1.15-1.11,1.92-1.47.79-.37,1.72-.59,2.77-.65.18-.01.37-.02.56-.02.92,0,1.92.13,2.97.39,1.28.32,2.39.76,3.3,1.31.9.55,1.62,1.18,2.15,1.87.52.68.86,1.42,1.01,2.2.16.78.14,1.59-.06,2.39-.2.81-.56,1.53-1.06,2.15-.5.62-1.15,1.11-1.92,1.47-.79.37-1.72.59-2.77.65-1.07.07-2.26-.06-3.53-.38-1.28-.32-2.39-.76-3.3-1.31-.9-.55-1.62-1.18-2.15-1.87-.52-.68-.86-1.42-1.01-2.2-.16-.78-.14-1.59.06-2.39Z" fill="#fff"/>
        <path d="M111.31,39.39l.75,14.93-11.04-10.2-5.13,2.36.8,1.73.63-.22c.3-.11.58-.15.82-.12.27.03.53.11.77.23.27.13.53.31.79.53.3.24.58.49.86.75l13.06,11.86,1.35-.62-.99-22.46-2.68,1.23Z" fill="#fff"/>
        <path d="M134.5,47.24v.55c-.02.65-.06,1.22-.14,1.7-.07.42-.19.78-.36,1.07-.16.27-.37.49-.65.67-.32.2-.75.37-1.28.52l-2.1.56c-.84.22-1.33.21-1.59.15-.35-.08-.62-.2-.8-.38-.21-.2-.35-.43-.44-.69-.12-.34-.21-.64-.28-.9l-1.12-4.19,4.41-1.18c.33-.09.6-.13.82-.12.12,0,.16.04.2.08.05.05.17.22.28.66l.19.7,1.9-.51-1.4-5.22-1.9.51.19.7c.07.26.04.36.03.36-.02.04-.08.1-.17.15-.2.11-.47.21-.82.3l-4.38,1.17-1.56-5.84,3.97-1.06c.61-.16,1.13-.27,1.55-.33.33-.04.62-.03.85.06.22.08.43.24.62.48.24.3.51.77.81,1.38l.26.55,1.88-.5-1.78-5.32-15.4,4.12.51,1.9.7-.19c.72-.19,1.13-.23,1.34-.24.26,0,.4.09.44.12.13.11.24.29.33.54.13.37.26.83.41,1.38l4.14,15.49,12.85-3.44-.34-6.33-2.17.58Z" fill="#fff"/>
        <path d="M138.15,35.08c.07.38.12.86.18,1.43l1.56,15.96,4.12-.4-.99-10.14,8.24,9.43,6.13-.6-.18-1.9h-.67c-.57,0-1.08-.05-1.51-.17-.42-.12-.81-.3-1.16-.53-.36-.24-.71-.53-1.03-.86-.35-.37-.72-.77-1.1-1.23l-3.49-3.98c.3-.13.58-.28.85-.44.6-.35,1.13-.78,1.57-1.27.45-.51.79-1.09,1.03-1.72.24-.66.33-1.39.25-2.18-.05-.49-.19-1.02-.43-1.64-.26-.65-.7-1.25-1.3-1.79-.6-.53-1.41-.96-2.39-1.25-.98-.29-2.22-.37-3.69-.23l-8.89.87.19,1.96.72-.07c.75-.07,1.16-.05,1.36-.01.29.05.38.15.41.19.11.13.19.33.23.59ZM142.52,34.88c.11-.31.23-.44.3-.5.13-.11.28-.17.43-.2.23-.05.44-.08.63-.1.13-.01.26-.02.38-.02.33,0,.64.05.93.14.4.12.74.31,1.05.58.3.26.54.58.73.96.19.39.31.83.35,1.31.07.68,0,1.25-.17,1.69-.18.45-.43.83-.75,1.11-.33.3-.73.53-1.2.68-.51.17-1.04.28-1.57.34l-.7.07-.47-4.83c-.07-.67,0-1.03.07-1.22Z" fill="#fff"/>
        <path d="M178.52,42.47c.08-.8.07-1.61-.01-2.42-.09-.81-.27-1.6-.53-2.35-.27-.76-.63-1.48-1.08-2.16-.45-.68-1.02-1.3-1.68-1.85-.56-.45-1.2-.84-1.89-1.14-.67-.3-1.38-.54-2.09-.71-.7-.17-1.41-.3-2.11-.4-.7-.1-1.38-.18-2.03-.24l-8.01-.77-.19,1.96.72.07c.74.07,1.14.18,1.34.25.28.1.34.22.36.26.08.15.12.36.12.63,0,.39-.04.86-.1,1.43l-1.54,15.96,6.82.66c.53.05,1.05.08,1.56.08,1.18,0,2.27-.14,3.26-.43,1.41-.41,2.64-1.05,3.66-1.9,1.01-.86,1.82-1.9,2.39-3.09.56-1.18.92-2.48,1.05-3.84ZM173.87,42.11c-.1,1.06-.35,2.06-.74,2.97-.38.9-.9,1.67-1.53,2.31-.62.63-1.38,1.11-2.24,1.43-.87.32-1.86.42-2.96.32-.46-.04-.93-.12-1.38-.23-.28-.07-.56-.14-.84-.22l1.15-11.89c.08-.88.27-1.53.54-1.94.28-.41.56-.69.83-.84.28-.15.67-.23,1.06-.25,1.12.11,2.1.4,2.92.87.81.47,1.47,1.08,1.97,1.81.51.74.86,1.6,1.07,2.56.21.98.26,2.02.16,3.1Z" fill="#fff"/>
        <path d="M190.22,34.77l-14.28,17.71,6.34,1.71.5-1.85-.64-.22c-.23-.08-.46-.17-.69-.27-.18-.08-.34-.17-.48-.27-.09-.07-.15-.14-.19-.22,0,0-.01-.04.02-.15.03-.09.1-.29.36-.62.26-.33.47-.61.62-.81l1.47-1.9,6.16,1.66.8,6.8,3.93,1.06-2.5-22.24-1.43-.39ZM184.95,45.76l3.42-4.32.75,5.44-4.17-1.13Z" fill="#fff"/>
        <path d="M216.07,47.18c-.37-.62-.84-1.19-1.38-1.72-.53-.51-1.11-.98-1.72-1.38-.59-.39-1.21-.76-1.85-1.1-.62-.33-1.23-.64-1.83-.92l-7.26-3.48-.85,1.78.65.31c.68.32,1.01.56,1.17.7.15.13.23.25.25.37.03.17,0,.38-.11.62-.14.36-.34.8-.58,1.31l-6.92,14.46,6.18,2.96c1.62.78,3.19,1.22,4.64,1.33.27.02.54.03.8.03,1.17,0,2.27-.19,3.29-.56,1.25-.45,2.36-1.16,3.31-2.08.93-.92,1.71-2.01,2.3-3.25.35-.73.62-1.49.82-2.28.2-.79.3-1.59.31-2.39,0-.8-.08-1.61-.28-2.4-.19-.8-.51-1.57-.94-2.32ZM212.85,51.66c-.14.99-.45,1.99-.92,2.97-.46.96-1.04,1.81-1.71,2.53-.67.71-1.42,1.26-2.23,1.65-.8.38-1.67.57-2.6.57h0c-.92,0-1.89-.24-2.89-.72-.42-.2-.82-.43-1.21-.69-.24-.16-.48-.32-.71-.5l5.16-10.77c.38-.8.78-1.35,1.18-1.64.4-.29.76-.46,1.07-.5.32-.05.71,0,1.08.13,1.02.49,1.84,1.1,2.44,1.82.6.72,1.01,1.52,1.23,2.37.22.87.26,1.8.13,2.77Z" fill="#fff"/>
        <path d="M275.04,112.18l-14.94.51,10.38-10.87-2.27-5.17-1.75.77.21.63c.11.31.14.58.11.82-.04.28-.12.53-.25.77-.14.26-.32.53-.54.79-.25.29-.5.57-.76.85l-12.07,12.87.6,1.36,22.48-.62-1.19-2.7Z" fill="#fff"/>
        <rect x="257.38" y="120.39" width="20.39" height="4.14" transform="translate(-24.15 83.86) rotate(-17.05)" fill="#fff"/>
        <path d="M277.18,124.91c.13.73.14,1.15.13,1.36-.02.2-.07.34-.15.42-.12.12-.31.21-.57.28-.38.1-.85.2-1.4.3l-15.77,2.89.75,4.07,10.02-1.84-8.71,9,1.11,6.06,1.88-.34-.06-.66c-.05-.57-.04-1.08.05-1.51.09-.43.23-.84.43-1.2.2-.38.46-.75.77-1.1.33-.38.71-.78,1.13-1.2l3.67-3.81c.16.28.32.55.51.81.4.57.87,1.06,1.4,1.45.54.4,1.15.7,1.8.88.67.19,1.41.21,2.2.06.48-.09,1.01-.28,1.6-.57.62-.31,1.19-.8,1.68-1.45.48-.64.83-1.48,1.05-2.49.21-1,.18-2.24-.08-3.7l-1.61-8.79-1.94.36.13.71ZM277.91,131.98c.07.23.12.44.15.62.09.46.08.91,0,1.32-.09.4-.25.77-.49,1.09-.23.32-.53.59-.89.81-.37.22-.8.38-1.27.46-.67.12-1.24.11-1.7-.03-.46-.14-.86-.36-1.17-.66-.32-.3-.58-.68-.78-1.14-.21-.5-.37-1.01-.47-1.54l-.13-.69,4.77-.88c.66-.12,1.02-.08,1.22-.03.31.08.46.19.53.26.12.12.19.26.24.41Z" fill="#fff"/>
        <path d="M276.35,146.98l.58.11c1.91.35,2.43.79,2.57.97.25.31.56,1.04.59,2.78l.02.88-17.73.36.09,4.31,17.73-.36.02.85c.04,2-.3,2.62-.47,2.81-.14.18-.66.63-2.55,1.09l-.57.14.04,2.02,6.31-.35-.35-17.53-6.32-.1.04,2.03Z" fill="#fff"/>
        <path d="M280.8,166.21c-.11.74-.24,1.13-.32,1.33-.08.18-.17.3-.28.35-.15.08-.37.1-.63.08-.39-.03-.86-.09-1.43-.18l-8.43-1.28c-.97-.15-1.94-.19-2.88-.12-.99.07-1.92.36-2.76.85-.84.5-1.57,1.24-2.17,2.23-.59.96-1.01,2.26-1.25,3.86-.24,1.57-.2,2.92.12,4.02.32,1.11.83,2.04,1.52,2.76.68.72,1.49,1.27,2.41,1.63.88.35,1.78.59,2.67.73l12.61,1.92.47-2.64-11.28-1.72c-.37-.06-.78-.12-1.23-.2-.43-.07-.85-.17-1.27-.29-.4-.11-.8-.26-1.18-.43-.34-.16-.65-.35-.88-.57-.61-.57-1-1.26-1.2-2.1-.21-.87-.25-1.74-.12-2.56.06-.42.17-.82.32-1.21.14-.36.34-.7.58-.99.24-.29.52-.54.84-.75.3-.2.66-.34,1.08-.42.2-.04.47-.06.77-.06.35,0,.72.03,1.1.06.39.03.76.07,1.12.11.36.05.68.09.96.13l11.78,1.8,1.03-6.75-1.95-.3-.11.72Z" fill="#fff"/>
        <path d="M277.26,187.62c-.25.71-.44,1.07-.56,1.25-.16.24-.3.28-.34.29-.16.04-.37.03-.63-.04-.37-.1-.83-.25-1.37-.43l-15.15-5.26-2.25,6.47c-.59,1.7-.86,3.3-.8,4.76.06,1.47.39,2.82.98,4,.59,1.19,1.41,2.21,2.44,3.05,1.01.83,2.19,1.47,3.49,1.92.76.27,1.56.45,2.35.56.46.06.92.09,1.38.09.34,0,.69-.02,1.03-.05.8-.08,1.59-.26,2.35-.54.77-.28,1.5-.68,2.19-1.2.57-.44,1.09-.97,1.55-1.56.45-.58.84-1.21,1.18-1.86.32-.63.62-1.29.88-1.96.26-.66.5-1.3.71-1.92l2.64-7.6-1.86-.65-.24.69ZM274.07,195.24c-.37,1.07-.89,1.95-1.54,2.63-.65.67-1.4,1.18-2.22,1.49-.84.32-1.76.47-2.74.43-1-.03-2.03-.22-3.05-.58-1.01-.35-1.92-.83-2.71-1.42-.78-.58-1.42-1.27-1.89-2.03-.46-.75-.75-1.6-.86-2.52-.11-.92.03-1.91.39-2.96.15-.43.33-.86.54-1.28.13-.26.27-.51.42-.77l11.28,3.92c.83.29,1.43.62,1.76.99.33.37.54.7.62,1.01.08.31.07.71,0,1.09Z" fill="#fff"/>
        <path d="M47.86,97.87l.44-1.1.16-.37-1.48-.65-1.2,2.72-.98,2.11,11.2,4.92-14.96,4.16-.18.05-.08.19h-.01s-1.08,2.45-1.08,2.45l18.72,8.23,1.3-2.95-9.1-4.03-2.75-1.19,16.37-4.59.18-.05.73-1.66-16.82-7.4s-.7-.25-.45-.83Z" fill="#fff"/>
      </g>
    </g>
    <g>
      <rect x="328.68" y="203.31" width="648.48" height="2.6" fill="#fff"/>
      <g>
        <path d="M368.34,92.32c0,2.09-.24,4.2-.73,6.31-.48,2.11-1.39,4.02-2.7,5.72-1.33,1.69-3.14,3.08-5.44,4.14-2.3,1.07-5.26,1.61-8.88,1.61s-6.74-.49-9.06-1.47c-2.33-.98-4.15-2.28-5.47-3.91-1.32-1.62-2.23-3.49-2.72-5.61-.49-2.11-.73-4.29-.73-6.58v-20.77c0-1.43-.03-2.65-.11-3.61-.07-.98-.32-1.77-.74-2.37-.41-.61-1.07-1.04-1.95-1.25-.88-.24-2.13-.35-3.76-.35v-1.26h13.1v27.24c0,.7.01,1.5.03,2.4.03.91.07,1.85.14,2.83.07.98.17,1.91.29,2.79.1.89.29,1.62.52,2.23.42,1.17,1,2.17,1.74,3,.75.83,1.59,1.53,2.54,2.08.96.57,1.99.97,3.11,1.23,1.12.25,2.25.39,3.41.39,2.28,0,4.54-.46,6.8-1.36,2.26-.91,4.06-2.34,5.4-4.3.56-.83.99-1.78,1.29-2.85.3-1.07.52-2.15.65-3.28.15-1.11.23-2.24.25-3.33.02-1.13.04-2.15.04-3.07v-26l2.98.07v29.34Z" fill="#fff"/>
        <path d="M429.04,62.92h6.54v46.13h-6.54v-46.13Z" fill="#fff"/>
        <path d="M468.9,110.1h-1.27l-16.37-38.47c-.37-.89-.77-1.75-1.19-2.61-.42-.86-.9-1.63-1.42-2.29-.54-.67-1.18-1.25-1.93-1.71-.74-.46-1.66-.74-2.72-.83v-1.26h10.8l15.26,36.72,14.7-36.72h3.35l-19.22,47.18Z" fill="#fff"/>
        <path d="M503.8,83.69h12.83c1.01,0,1.86-.09,2.53-.25.68-.17,1.19-.47,1.5-.92.33-.43.49-1.06.49-1.9h1.25v9.61h-1.25c0-1.12-.16-1.95-.46-2.55-.29-.58-.78-.97-1.46-1.18-.67-.21-1.52-.32-2.54-.32h-12.89v12.33c0,.7.04,1.51.11,2.45.06.92.35,1.8.84,2.65.49.82,1.28,1.52,2.36,2.08,1.09.57,2.63.84,4.63.84h5.3c1.54,0,2.82-.15,3.86-.49,1.05-.33,1.95-.86,2.69-1.61.75-.74,1.37-1.68,1.88-2.81.51-1.14,1-2.53,1.45-4.15h1.96l-2.43,11.57h-29.21v-37.28c0-1.43-.03-2.65-.1-3.61-.07-.98-.31-1.77-.74-2.37-.42-.61-1.06-1.04-1.94-1.25-.88-.24-2.13-.35-3.76-.35v-1.26h35.39l.62,10.1h-1.39c-.33-1.76-.71-3.14-1.15-4.14-.44-1-1.04-1.75-1.78-2.27-.74-.51-1.66-.83-2.75-.96-1.09-.15-2.46-.22-4.08-.22h-11.78v18.27Z" fill="#fff"/>
        <path d="M538.71,71.76c0-1.43-.04-2.65-.11-3.61-.07-.98-.31-1.77-.73-2.37-.41-.61-1.06-1.04-1.94-1.25-.89-.24-2.14-.35-3.77-.35v-1.26h20c3.39,0,6.13.43,8.22,1.3,2.09.85,3.71,1.91,4.87,3.16,1.16,1.26,1.94,2.58,2.34,3.95.38,1.37.59,2.56.59,3.59,0,1.67-.31,3.17-.95,4.46-.62,1.3-1.46,2.44-2.51,3.42-1.05.98-2.25,1.78-3.63,2.41-1.37.62-2.82,1.09-4.36,1.42l8.99,12.54c.84,1.22,1.65,2.32,2.44,3.31.78,1,1.65,1.88,2.58,2.62.91.74,1.97,1.35,3.13,1.81,1.17.47,2.53.77,4.12.91v1.26h-12.34l-16.93-23.69c1.44,0,2.87-.16,4.28-.48,1.43-.33,2.67-.89,3.73-1.68,1.07-.78,1.95-1.83,2.62-3.14.66-1.28,1.01-2.92,1.01-4.88,0-1.37-.22-2.67-.67-3.86-.44-1.18-1.08-2.22-1.91-3.11-.84-.87-1.84-1.55-3-2.05-1.16-.49-2.43-.74-3.83-.74-.51,0-1.09.03-1.74.11-.65.06-1.26.29-1.85.66-.58.38-1.07,1-1.49,1.89-.42.88-.63,2.11-.63,3.68v37.28h-6.55v-37.28Z" fill="#fff"/>
        <path d="M582.12,94.27c.27,2.78.95,5.04,2.03,6.75,1.06,1.72,2.28,3.04,3.65,3.97,1.37.93,2.79,1.56,4.25,1.88,1.46.33,2.7.49,3.72.49,1.16,0,2.31-.15,3.42-.46,1.12-.29,2.1-.76,2.97-1.38.84-.64,1.54-1.41,2.06-2.37.5-.96.76-2.06.76-3.32,0-1.76-.6-3.3-1.78-4.64-1.18-1.32-2.69-2.55-4.49-3.69-1.82-1.14-3.75-2.26-5.82-3.35-2.07-1.09-4.01-2.29-5.82-3.61-1.8-1.33-3.31-2.82-4.48-4.5-1.2-1.66-1.78-3.66-1.78-5.98,0-1.77.34-3.39,1.04-4.89.7-1.48,1.66-2.76,2.88-3.86,1.24-1.09,2.66-1.94,4.26-2.55,1.6-.59,3.31-.9,5.11-.9,1.26,0,2.41.15,3.46.42,1.05.28,1.97.6,2.82.91.42.19.9.48,1.46.91.57.43,1.17.8,1.85,1.16.67.34,1.38.56,2.12.65.76.1,1.54-.13,2.37-.69l-.21,12.61h-1.26c-.13-1.82-.51-3.52-1.15-5.16-.62-1.62-1.49-3.02-2.61-4.22-1.12-1.18-2.45-2.13-3.97-2.81-1.54-.71-3.27-1.05-5.17-1.05-.98,0-1.95.15-2.93.53-.97.33-1.84.85-2.57,1.49-.75.65-1.35,1.42-1.82,2.3-.47.88-.7,1.82-.7,2.85,0,1.63.64,3.06,1.91,4.29,1.28,1.23,2.86,2.39,4.73,3.49,1.89,1.08,3.95,2.16,6.18,3.24,2.22,1.06,4.27,2.26,6.16,3.58,1.87,1.32,3.46,2.83,4.74,4.5,1.27,1.68,1.91,3.64,1.91,5.92,0,1.82-.35,3.52-1.07,5.12-.73,1.61-1.75,3.02-3.07,4.26-1.33,1.24-2.91,2.19-4.75,2.89-1.82.7-3.86,1.06-6.09,1.06-1.63,0-3.02-.15-4.18-.44-1.16-.27-2.21-.57-3.13-.9-.46-.18-.91-.42-1.32-.73-.41-.3-.91-.59-1.49-.87-.59-.29-1.31-.52-2.16-.73-.86-.21-1.97-.31-3.31-.31v-11.85h1.26Z" fill="#fff"/>
        <path d="M622.19,62.92h6.55v46.13h-6.55v-46.13Z" fill="#fff"/>
        <path d="M644.97,71.76c0-1.43-.04-2.65-.11-3.61-.07-.98-.31-1.77-.74-2.37-.41-.61-1.07-1.04-1.94-1.25-.89-.24-2.15-.35-3.77-.35v-1.26h17.84c1.58,0,3.21.04,4.91.1,1.69.07,3.38.24,5.06.46,1.66.24,3.3.62,4.91,1.15,1.6.53,3.08,1.24,4.43,2.13,1.57,1.06,2.93,2.31,4.1,3.73,1.16,1.4,2.12,2.94,2.89,4.58.76,1.65,1.34,3.38,1.71,5.2.37,1.81.57,3.65.57,5.51,0,3.15-.52,6.14-1.55,8.95-1.02,2.81-2.57,5.29-4.68,7.43-2.09,2.14-4.69,3.82-7.79,5.05-3.12,1.23-6.76,1.84-10.94,1.84h-14.91v-37.28ZM651.51,105.63c1.21.29,2.42.5,3.63.66,1.21.16,2.41.24,3.62.24,2.97,0,5.6-.55,7.88-1.65,2.27-1.07,4.18-2.57,5.71-4.45,1.53-1.88,2.69-4.07,3.48-6.55.79-2.49,1.2-5.12,1.2-7.9s-.4-5.5-1.2-8.02c-.79-2.51-1.96-4.69-3.51-6.54-1.56-1.86-3.51-3.33-5.83-4.4-2.33-1.05-5-1.6-8.01-1.6-1.44.19-2.6.57-3.48,1.15-.88.59-1.68,1.53-2.42,2.86-.71,1.32-1.07,3.22-1.07,5.67v30.53Z" fill="#fff"/>
        <path d="M734.91,71.76c0-1.43-.02-2.65-.1-3.61-.08-.98-.31-1.77-.74-2.37-.41-.61-1.07-1.04-1.95-1.25-.88-.24-2.14-.35-3.76-.35v-1.26h17.83c1.58,0,3.22.04,4.92.1,1.7.07,3.39.24,5.05.46,1.67.24,3.31.62,4.91,1.15,1.6.53,3.07,1.24,4.42,2.13,1.58,1.06,2.96,2.31,4.11,3.73,1.16,1.4,2.12,2.94,2.9,4.58.76,1.65,1.32,3.38,1.69,5.2.37,1.81.57,3.65.57,5.51,0,3.15-.51,6.14-1.54,8.95-1.01,2.81-2.57,5.29-4.67,7.43-2.09,2.14-4.7,3.82-7.8,5.05-3.11,1.23-6.76,1.84-10.93,1.84h-14.92v-37.28ZM741.47,105.63c1.22.29,2.41.5,3.63.66,1.2.16,2.41.24,3.63.24,2.96,0,5.59-.55,7.86-1.65,2.27-1.07,4.18-2.57,5.71-4.45,1.54-1.88,2.69-4.07,3.49-6.55.79-2.49,1.19-5.12,1.19-7.9s-.4-5.5-1.19-8.02c-.8-2.51-1.96-4.69-3.51-6.54-1.56-1.86-3.51-3.33-5.82-4.4-2.33-1.05-5-1.6-8.02-1.6-1.44.19-2.6.57-3.49,1.15-.88.59-1.68,1.53-2.4,2.86-.72,1.32-1.08,3.22-1.08,5.67v30.53Z" fill="#fff"/>
        <path d="M413.4,62.83v-.02h-2.99v34.56h-.14l-.29-.35v-.03l-27.8-34.13h-.02l-.02-.04h-3.43v46.22h2.57v.03h.48v-35.5l-.05-.05v-.83h.15l30.3,37.12h.81v.02h1.32v-39.13c0-1.27.03-2.35.1-3.21.07-.87.28-1.57.66-2.1.37-.54.95-.92,1.73-1.11.79-.22,1.37-.31,2.82-.31v-1.11h-6.2Z" fill="#fff"/>
        <path d="M709.47,61.87h-1.26l-20.75,47.17h11.49v-1.25c-.64-.05-1.29-.12-1.91-.21-.62-.1-1.19-.25-1.7-.45-.52-.21-.94-.51-1.26-.87-.31-.36-.48-.89-.48-1.52s.19-1.44.6-2.38c.29-.71.53-1.29.74-1.82h-.02l.26-.6,2.67-6.34h17.9l6.21,15.47h6.12l-18.6-47.17ZM698.93,91.05l8.03-18.59,7.87,18.59h-15.9Z" fill="#fff"/>
      </g>
      <g>
        <path d="M518.28,167.09c.36,3.64,1.24,6.59,2.64,8.82,1.38,2.24,2.97,3.97,4.77,5.17,1.78,1.21,3.63,2.04,5.54,2.45,1.91.43,3.53.64,4.86.64,1.52,0,3-.18,4.45-.59,1.46-.4,2.74-.98,3.87-1.81,1.12-.83,2.01-1.85,2.67-3.09.67-1.24,1-2.69,1-4.31,0-2.32-.77-4.32-2.31-6.04-1.55-1.74-3.5-3.33-5.85-4.82-2.37-1.48-4.9-2.94-7.59-4.36-2.69-1.42-5.23-2.99-7.59-4.73-2.36-1.72-4.31-3.67-5.86-5.85-1.54-2.19-2.32-4.8-2.32-7.83,0-2.3.46-4.41,1.36-6.36.91-1.94,2.17-3.62,3.77-5.03,1.59-1.43,3.45-2.53,5.54-3.32,2.09-.8,4.32-1.18,6.67-1.18,1.65,0,3.14.17,4.51.54,1.36.36,2.59.76,3.68,1.17.56.25,1.18.66,1.91,1.19.73.54,1.54,1.05,2.41,1.49.87.46,1.81.76,2.78.88.97.11,1.98-.19,3.08-.91l-.28,16.45h-1.63c-.17-2.37-.68-4.61-1.5-6.73-.82-2.1-1.95-3.96-3.41-5.49-1.45-1.55-3.18-2.77-5.17-3.68-2.01-.91-4.24-1.37-6.73-1.37-1.27,0-2.55.21-3.82.68-1.26.45-2.39,1.1-3.36,1.95-.95.85-1.75,1.86-2.36,2.99-.6,1.16-.9,2.39-.9,3.73,0,2.11.84,3.98,2.49,5.59,1.68,1.59,3.73,3.11,6.19,4.54,2.45,1.43,5.12,2.83,8.03,4.23,2.9,1.4,5.59,2.94,8.04,4.67,2.45,1.74,4.52,3.69,6.19,5.87,1.66,2.19,2.48,4.76,2.48,7.72,0,2.36-.46,4.58-1.39,6.66-.94,2.1-2.28,3.94-4,5.57-1.71,1.59-3.77,2.85-6.18,3.76-2.38.91-5.03,1.35-7.94,1.35-2.13,0-3.94-.18-5.45-.54-1.52-.36-2.88-.76-4.09-1.19-.61-.23-1.18-.55-1.73-.95-.55-.4-1.19-.78-1.95-1.16-.76-.35-1.7-.65-2.82-.95-1.12-.25-2.55-.39-4.31-.39v-15.45h1.63Z" fill="#fff"/>
        <path d="M578.51,153.28h16.73c1.32,0,2.43-.1,3.31-.32.88-.21,1.52-.6,1.94-1.17.43-.58.64-1.42.64-2.51h1.64v12.54h-1.64c0-1.45-.19-2.57-.59-3.31-.39-.77-1.03-1.28-1.91-1.56-.88-.26-1.98-.41-3.31-.41h-16.81v16.09c0,.89.04,1.96.13,3.17.1,1.23.45,2.38,1.11,3.46.62,1.09,1.65,1.99,3.09,2.74,1.41.72,3.43,1.09,6.03,1.09h6.91c1.99,0,3.68-.22,5.05-.64,1.36-.41,2.52-1.12,3.5-2.09.96-.97,1.77-2.18,2.45-3.67.66-1.48,1.28-3.3,1.9-5.41h2.56l-3.19,15.08h-38.07v-48.61c0-1.87-.05-3.45-.13-4.72-.09-1.26-.41-2.31-.96-3.09-.55-.79-1.39-1.33-2.54-1.63-1.16-.31-2.79-.45-4.91-.45v-1.65h46.15l.82,13.17h-1.82c-.41-2.29-.92-4.08-1.5-5.4-.57-1.3-1.34-2.27-2.31-2.95-.98-.67-2.17-1.09-3.6-1.26-1.43-.2-3.19-.28-5.31-.28h-15.35v23.8Z" fill="#fff"/>
        <path d="M625.48,137.75c0-1.87-.04-3.45-.13-4.72-.09-1.26-.41-2.31-.95-3.09-.55-.79-1.4-1.33-2.55-1.63-1.15-.31-2.78-.45-4.9-.45v-1.65h27.78c4.25,0,7.85.45,10.83,1.32,2.97.88,5.37,2.08,7.23,3.6,1.85,1.51,3.18,3.24,4.04,5.19.86,1.92,1.27,3.94,1.27,6.07,0,3.34-1.02,6.15-3.09,8.44-2.05,2.31-4.57,3.89-7.53,4.73v.17c1.76.25,3.43.75,5.04,1.51,1.61.74,3.03,1.71,4.26,2.9,1.26,1.19,2.26,2.58,3.02,4.2.75,1.59,1.14,3.35,1.14,5.3,0,1.32-.26,2.95-.78,4.85-.52,1.91-1.59,3.74-3.23,5.52-1.63,1.75-3.98,3.24-7.06,4.49-3.03,1.23-7.08,1.86-12.11,1.86h-22.26v-48.61ZM634.02,181.92c3.15.78,6.58,1.18,10.26,1.18,1.95,0,3.89-.24,5.82-.69,1.94-.46,3.69-1.17,5.27-2.18,1.57-.98,2.87-2.28,3.86-3.87,1-1.57,1.5-3.48,1.5-5.72,0-2.66-.58-4.9-1.73-6.67-1.14-1.79-2.63-3.22-4.44-4.29-1.82-1.05-3.87-1.79-6.13-2.22-2.27-.43-4.53-.61-6.76-.54l-7.72.27.08,24.72ZM651.84,152.6c1.93-.88,3.43-1.95,4.49-3.22,1.05-1.27,1.73-2.6,2.04-3.95.3-1.37.45-2.51.45-3.41,0-2.37-.5-4.35-1.49-5.95-1-1.61-2.32-2.93-3.95-3.96-1.63-1.03-3.48-1.77-5.51-2.22-2.02-.45-4.04-.68-6.04-.68-1.63.06-2.94.49-3.9,1.27-.96.79-1.86,2.14-2.68,4.05-.82,1.92-1.23,4.74-1.23,8.5v10.81l10,.1c3.28,0,5.87-.46,7.82-1.33Z" fill="#fff"/>
        <path d="M734.24,167.09c.36,3.64,1.24,6.59,2.64,8.82,1.39,2.24,2.97,3.97,4.76,5.17,1.8,1.21,3.63,2.04,5.54,2.45,1.9.43,3.52.64,4.87.64,1.51,0,3-.18,4.44-.59,1.45-.4,2.74-.98,3.87-1.81,1.12-.83,2-1.85,2.67-3.09.67-1.24,1-2.69,1-4.31,0-2.32-.75-4.32-2.31-6.04-1.54-1.74-3.51-3.33-5.86-4.82-2.36-1.48-4.9-2.94-7.59-4.36-2.69-1.42-5.22-2.99-7.59-4.73-2.36-1.72-4.31-3.67-5.85-5.85-1.55-2.19-2.33-4.8-2.33-7.83,0-2.3.45-4.41,1.36-6.36.9-1.94,2.17-3.62,3.78-5.03,1.59-1.43,3.44-2.53,5.53-3.32,2.09-.8,4.32-1.18,6.69-1.18,1.62,0,3.13.17,4.5.54,1.35.36,2.57.76,3.68,1.17.54.25,1.16.66,1.91,1.19.72.54,1.52,1.05,2.39,1.49.88.46,1.82.76,2.79.88.96.11,1.99-.19,3.08-.91l-.28,16.45h-1.63c-.18-2.37-.69-4.61-1.51-6.73-.82-2.1-1.95-3.96-3.39-5.49-1.45-1.55-3.19-2.77-5.2-3.68-1.98-.91-4.22-1.37-6.72-1.37-1.26,0-2.53.21-3.8.68-1.27.45-2.39,1.1-3.36,1.95-.96.85-1.75,1.86-2.37,2.99-.6,1.16-.89,2.39-.89,3.73,0,2.11.82,3.98,2.48,5.59,1.68,1.59,3.73,3.11,6.18,4.54,2.45,1.43,5.13,2.83,8.05,4.23,2.9,1.4,5.58,2.94,8.04,4.67,2.46,1.74,4.5,3.69,6.17,5.87,1.66,2.19,2.5,4.76,2.5,7.72,0,2.36-.46,4.58-1.41,6.66-.95,2.1-2.26,3.94-3.98,5.57-1.73,1.59-3.79,2.85-6.18,3.76-2.39.91-5.04,1.35-7.96,1.35-2.12,0-3.94-.18-5.45-.54-1.51-.36-2.87-.76-4.1-1.19-.6-.23-1.16-.55-1.72-.95-.54-.4-1.2-.78-1.95-1.16-.76-.35-1.7-.65-2.83-.95-1.11-.25-2.55-.39-4.31-.39v-15.45h1.63Z" fill="#fff"/>
        <path d="M798.57,130.02h-5.1c-4.97,0-8.38.73-10.27,2.19-1.69,1.28-3.04,4.44-4.08,9.45h-2.18l.54-15.45h51.25l.54,15.45h-2.19c-1.09-4.96-2.45-8.11-4.08-9.45-1.64-1.45-5.09-2.19-10.36-2.19h-5v56.34h-9.08v-56.34Z" fill="#fff"/>
        <path d="M841,126.21h8.53v60.15h-8.53v-60.15Z" fill="#fff"/>
        <path d="M968.09,126.22v-.02h-3.91v44.98h-.17l-.37-.46v-.04l-36.19-44.43h-.02l-.03-.05h-4.46v60.15h3.95v-47.33h.14l39.44,48.35h2.78v-50.93c0-1.66.04-3.07.13-4.19.08-1.12.37-2.05.85-2.73.48-.7,1.23-1.19,2.25-1.45,1.02-.28,1.8-.41,3.68-.41v-1.44h-8.06Z" fill="#fff"/>
        <path d="M398.02,124.86h-1.64l-27.07,61.5h14.99v-1.64c-.84-.05-1.68-.15-2.49-.26-.83-.13-1.57-.31-2.22-.59-.67-.28-1.23-.65-1.65-1.15-.43-.49-.63-1.15-.63-1.99s.26-1.87.76-3.09c.39-.91.72-1.69.98-2.36h-.01s.34-.8.34-.8l3.47-8.3h23.35l8.09,20.18h8l-24.26-61.5ZM384.25,162.93l10.5-24.28,10.26,24.28h-20.76Z" fill="#fff"/>
        <path d="M478.02,126.21h0s-3.91,0-3.91,0v44.98h-.17l-.37-.46v-.04l-36.19-44.44h-.01l-.04-.04h-4.46v60.15h3.91v-47.33h.18l39.44,48.35h2.78v-50.93c0-1.66.04-3.07.12-4.19.08-1.12.37-2.06.85-2.73.48-.7,1.23-1.2,2.25-1.45,1.02-.28,1.79-.41,3.67-.41v-1.46h-8.05Z" fill="#fff"/>
        <path d="M704.42,124.74h-1.63l-27.08,61.49h15v-1.63c-.85-.07-1.69-.15-2.5-.28-.81-.12-1.56-.32-2.24-.6-.66-.25-1.2-.64-1.63-1.11-.43-.5-.63-1.16-.63-2s.25-1.88.78-3.09c.38-.94.69-1.71.97-2.38h-.02l.34-.77,3.47-8.3h23.35l8.08,20.16h7.98l-24.25-61.49ZM690.67,162.79l10.49-24.25,10.25,24.25h-20.74Z" fill="#fff"/>
        <path d="M327.79,167.09c.36,3.64,1.24,6.59,2.64,8.82,1.38,2.24,2.98,3.97,4.75,5.17,1.79,1.21,3.65,2.04,5.55,2.45,1.92.43,3.52.64,4.86.64,1.51,0,2.99-.18,4.45-.59,1.46-.4,2.74-.98,3.86-1.81,1.12-.83,2.01-1.85,2.68-3.09.66-1.24,1-2.69,1-4.31,0-2.32-.77-4.32-2.32-6.04-1.54-1.74-3.51-3.33-5.85-4.82-2.37-1.48-4.9-2.94-7.59-4.36-2.69-1.42-5.23-2.99-7.59-4.73-2.36-1.72-4.32-3.67-5.86-5.85-1.54-2.19-2.32-4.8-2.32-7.83,0-2.3.46-4.41,1.36-6.36.93-1.94,2.17-3.62,3.78-5.03,1.59-1.43,3.45-2.53,5.54-3.32,2.09-.8,4.31-1.18,6.67-1.18,1.65,0,3.14.17,4.5.54,1.36.36,2.58.76,3.67,1.17.55.25,1.19.64,1.92,1.19.72.54,1.52,1.05,2.41,1.49.87.46,1.79.76,2.77.87.97.13,1.99-.18,3.08-.91l-.27,16.45h-1.64c-.18-2.37-.68-4.61-1.49-6.73-.82-2.13-1.97-3.96-3.42-5.49-1.44-1.56-3.19-2.77-5.18-3.68-1.99-.91-4.23-1.37-6.72-1.37-1.26,0-2.55.21-3.82.68-1.27.45-2.39,1.1-3.36,1.95-.98.85-1.76,1.86-2.37,2.99-.6,1.16-.91,2.39-.91,3.73,0,2.11.82,3.98,2.49,5.59,1.68,1.59,3.74,3.11,6.19,4.54,2.45,1.43,5.14,2.83,8.04,4.23,2.91,1.4,5.59,2.94,8.03,4.67,2.45,1.74,4.52,3.69,6.19,5.87,1.67,2.19,2.49,4.76,2.49,7.72,0,2.38-.45,4.58-1.39,6.68-.95,2.08-2.29,3.93-4.01,5.55-1.72,1.59-3.78,2.85-6.18,3.76-2.4.91-5.04,1.35-7.94,1.35-2.14,0-3.96-.17-5.46-.54-1.52-.36-2.89-.76-4.08-1.19-.62-.23-1.19-.55-1.73-.95-.55-.4-1.19-.78-1.95-1.16-.76-.35-1.71-.65-2.82-.95-1.13-.25-2.55-.39-4.32-.39v-15.45h1.64Z" fill="#fff"/>
        <path d="M897.17,166.05h-23.38l-3.55,8.46c-.3.79-.71,1.79-1.23,3-.52,1.21-.77,2.24-.77,3.09s.21,1.52.64,2c.42.49.97.86,1.64,1.14.67.27,1.41.47,2.23.59.82.12,1.65.21,2.5.27v1.64h-15.01l27.11-61.58h1.64l24.29,61.58h-8l-8.1-20.19ZM885.71,138.49l-10.46,24.29h20.74l-10.28-24.29Z" fill="#fff"/>
      </g>
    </g>
  </g>
</svg>